{"glyphs":{"0":{"ha":901,"x_min":76,"x_max":822,"o":"m 322 696 q 335 728 322 715 q 368 740 349 740 q 400 728 388 740 q 413 696 413 715 q 400 663 413 676 q 368 650 388 650 q 335 663 349 650 q 322 696 322 676 m 486 40 q 499 72 486 60 q 532 85 513 85 q 564 72 551 85 q 576 40 576 60 q 564 8 576 21 q 532 -6 551 -6 q 499 8 513 -6 q 486 40 486 21 m 322 40 q 335 72 322 60 q 368 85 349 85 q 400 72 388 85 q 413 40 413 60 q 400 8 413 21 q 368 -6 388 -6 q 335 8 349 -6 q 322 40 322 21 m 650 122 q 663 154 650 142 q 696 167 676 167 q 728 154 715 167 q 740 122 740 142 q 728 90 740 103 q 696 76 715 76 q 663 90 676 76 q 650 122 650 103 m 158 122 q 172 154 158 142 q 204 167 185 167 q 236 154 224 167 q 249 122 249 142 q 236 90 249 103 q 204 76 224 76 q 172 90 185 76 q 158 122 158 103 m 732 286 q 745 318 732 306 q 778 331 758 331 q 810 318 797 331 q 822 286 822 306 q 810 253 822 267 q 778 240 797 240 q 745 253 758 240 q 732 286 732 267 m 76 286 q 90 318 76 306 q 122 331 103 331 q 154 318 142 331 q 167 286 167 306 q 154 253 167 267 q 122 240 142 240 q 90 253 103 240 q 76 286 76 267 m 732 450 q 745 482 732 469 q 778 494 758 494 q 810 482 797 494 q 822 450 822 469 q 810 417 822 431 q 778 404 797 404 q 745 417 758 404 q 732 450 732 431 m 76 450 q 90 482 76 469 q 122 494 103 494 q 154 482 142 494 q 167 450 167 469 q 154 417 167 431 q 122 404 142 404 q 90 417 103 404 q 76 450 76 431 m 650 614 q 663 646 650 633 q 696 658 676 658 q 728 646 715 658 q 740 614 740 633 q 728 581 740 594 q 696 568 715 568 q 663 581 676 568 q 650 614 650 594 m 158 614 q 172 646 158 633 q 204 658 185 658 q 236 646 224 658 q 249 614 249 633 q 236 581 249 594 q 204 568 224 568 q 172 581 185 568 q 158 614 158 594 m 486 696 q 499 728 486 715 q 532 740 513 740 q 564 728 551 740 q 576 696 576 715 q 564 663 576 676 q 532 650 551 650 q 499 663 513 650 q 486 696 486 676 z "},"1":{"ha":574,"x_min":76,"x_max":494,"o":"m 240 696 q 253 728 240 715 q 286 740 267 740 q 318 728 306 740 q 331 696 331 715 q 318 663 331 676 q 286 650 306 650 q 253 663 267 650 q 240 696 240 676 m 404 40 q 417 72 404 60 q 450 85 431 85 q 482 72 469 85 q 494 40 494 60 q 482 8 494 21 q 450 -6 469 -6 q 417 8 431 -6 q 404 40 404 21 m 240 40 q 253 72 240 60 q 286 85 267 85 q 318 72 306 85 q 331 40 331 60 q 318 8 331 21 q 286 -6 306 -6 q 253 8 267 -6 q 240 40 240 21 m 76 40 q 90 72 76 60 q 122 85 103 85 q 154 72 142 85 q 167 40 167 60 q 154 8 167 21 q 122 -6 142 -6 q 90 8 103 -6 q 76 40 76 21 m 240 204 q 253 236 240 224 q 286 249 267 249 q 318 236 306 249 q 331 204 331 224 q 318 172 331 185 q 286 158 306 158 q 253 172 267 158 q 240 204 240 185 m 240 368 q 253 400 240 388 q 286 413 267 413 q 318 400 306 413 q 331 368 331 388 q 318 335 331 349 q 286 322 306 322 q 253 335 267 322 q 240 368 240 349 m 240 532 q 253 564 240 551 q 286 576 267 576 q 318 564 306 576 q 331 532 331 551 q 318 499 331 513 q 286 486 306 486 q 253 499 267 486 q 240 532 240 513 m 76 614 q 90 646 76 633 q 122 658 103 658 q 154 646 142 658 q 167 614 167 633 q 154 581 167 594 q 122 568 142 568 q 90 581 103 568 q 76 614 76 594 z "},"2":{"ha":738,"x_min":76,"x_max":658,"o":"m 76 696 q 90 728 76 715 q 122 740 103 740 q 154 728 142 740 q 167 696 167 715 q 154 663 167 676 q 122 650 142 650 q 90 663 103 650 q 76 696 76 676 m 568 40 q 581 72 568 60 q 614 85 594 85 q 646 72 633 85 q 658 40 658 60 q 646 8 658 21 q 614 -6 633 -6 q 581 8 594 -6 q 568 40 568 21 m 404 40 q 417 72 404 60 q 450 85 431 85 q 482 72 469 85 q 494 40 494 60 q 482 8 494 21 q 450 -6 469 -6 q 417 8 431 -6 q 404 40 404 21 m 240 40 q 253 72 240 60 q 286 85 267 85 q 318 72 306 85 q 331 40 331 60 q 318 8 331 21 q 286 -6 306 -6 q 253 8 267 -6 q 240 40 240 21 m 76 40 q 90 72 76 60 q 122 85 103 85 q 154 72 142 85 q 167 40 167 60 q 154 8 167 21 q 122 -6 142 -6 q 90 8 103 -6 q 76 40 76 21 m 76 204 q 90 236 76 224 q 122 249 103 249 q 154 236 142 249 q 167 204 167 224 q 154 172 167 185 q 122 158 142 158 q 90 172 103 158 q 76 204 76 185 m 240 286 q 253 318 240 306 q 286 331 267 331 q 318 318 306 331 q 331 286 331 306 q 318 253 331 267 q 286 240 306 240 q 253 253 267 240 q 240 286 240 267 m 404 368 q 417 400 404 388 q 450 413 431 413 q 482 400 469 413 q 494 368 494 388 q 482 335 494 349 q 450 322 469 322 q 417 335 431 322 q 404 368 404 349 m 568 532 q 581 564 568 551 q 614 576 594 576 q 646 564 633 576 q 658 532 658 551 q 646 499 658 513 q 614 486 633 486 q 581 499 594 486 q 568 532 568 513 m 404 696 q 417 728 404 715 q 450 740 431 740 q 482 728 469 740 q 494 696 494 715 q 482 663 494 676 q 450 650 469 650 q 417 663 431 650 q 404 696 404 676 m 240 696 q 253 728 240 715 q 286 740 267 740 q 318 728 306 740 q 331 696 331 715 q 318 663 331 676 q 286 650 306 650 q 253 663 267 650 q 240 696 240 676 z "},"3":{"ha":901,"x_min":76,"x_max":822,"o":"m 76 696 q 90 728 76 715 q 122 740 103 740 q 154 728 142 740 q 167 696 167 715 q 154 663 167 676 q 122 650 142 650 q 90 663 103 650 q 76 696 76 676 m 568 40 q 581 72 568 60 q 614 85 594 85 q 646 72 633 85 q 658 40 658 60 q 646 8 658 21 q 614 -6 633 -6 q 581 8 594 -6 q 568 40 568 21 m 404 40 q 417 72 404 60 q 450 85 431 85 q 482 72 469 85 q 494 40 494 60 q 482 8 494 21 q 450 -6 469 -6 q 417 8 431 -6 q 404 40 404 21 m 240 40 q 253 72 240 60 q 286 85 267 85 q 318 72 306 85 q 331 40 331 60 q 318 8 331 21 q 286 -6 306 -6 q 253 8 267 -6 q 240 40 240 21 m 76 40 q 90 72 76 60 q 122 85 103 85 q 154 72 142 85 q 167 40 167 60 q 154 8 167 21 q 122 -6 142 -6 q 90 8 103 -6 q 76 40 76 21 m 732 204 q 745 236 732 224 q 778 249 758 249 q 810 236 797 249 q 822 204 822 224 q 810 172 822 185 q 778 158 797 158 q 745 172 758 158 q 732 204 732 185 m 732 368 q 745 400 732 388 q 778 413 758 413 q 810 400 797 413 q 822 368 822 388 q 810 335 822 349 q 778 322 797 322 q 745 335 758 322 q 732 368 732 349 m 568 368 q 581 400 568 388 q 614 413 594 413 q 646 400 633 413 q 658 368 658 388 q 646 335 658 349 q 614 322 633 322 q 581 335 594 322 q 568 368 568 349 m 404 368 q 417 400 404 388 q 450 413 431 413 q 482 400 469 413 q 494 368 494 388 q 482 335 494 349 q 450 322 469 322 q 417 335 431 322 q 404 368 404 349 m 240 368 q 253 400 240 388 q 286 413 267 413 q 318 400 306 413 q 331 368 331 388 q 318 335 331 349 q 286 322 306 322 q 253 335 267 322 q 240 368 240 349 m 650 532 q 663 564 650 551 q 696 576 676 576 q 728 564 715 576 q 740 532 740 551 q 728 499 740 513 q 696 486 715 486 q 663 499 676 486 q 650 532 650 513 m 568 696 q 581 728 568 715 q 614 740 594 740 q 646 728 633 740 q 658 696 658 715 q 646 663 658 676 q 614 650 633 650 q 581 663 594 650 q 568 696 568 676 m 404 696 q 417 728 404 715 q 450 740 431 740 q 482 728 469 740 q 494 696 494 715 q 482 663 494 676 q 450 650 469 650 q 417 663 431 650 q 404 696 404 676 m 240 696 q 253 728 240 715 q 286 740 267 740 q 318 728 306 740 q 331 696 331 715 q 318 663 331 676 q 286 650 306 650 q 253 663 267 650 q 240 696 240 676 z "},"4":{"ha":901,"x_min":76,"x_max":822,"o":"m 568 778 q 581 810 568 797 q 614 822 594 822 q 646 810 633 822 q 658 778 658 797 q 646 745 658 758 q 614 732 633 732 q 581 745 594 732 q 568 778 568 758 m 568 -42 q 581 -10 568 -22 q 614 3 594 3 q 646 -10 633 3 q 658 -42 658 -22 q 646 -74 658 -61 q 614 -87 633 -87 q 581 -74 594 -87 q 568 -42 568 -61 m 568 122 q 581 154 568 142 q 614 167 594 167 q 646 154 633 167 q 658 122 658 142 q 646 90 658 103 q 614 76 633 76 q 581 90 594 76 q 568 122 568 103 m 732 204 q 745 236 732 224 q 778 249 758 249 q 810 236 797 249 q 822 204 822 224 q 810 172 822 185 q 778 158 797 158 q 745 172 758 158 q 732 204 732 185 m 404 204 q 417 236 404 224 q 450 249 431 249 q 482 236 469 249 q 494 204 494 224 q 482 172 494 185 q 450 158 469 158 q 417 172 431 158 q 404 204 404 185 m 240 204 q 253 236 240 224 q 286 249 267 249 q 318 236 306 249 q 331 204 331 224 q 318 172 331 185 q 286 158 306 158 q 253 172 267 158 q 240 204 240 185 m 76 204 q 90 236 76 224 q 122 249 103 249 q 154 236 142 249 q 167 204 167 224 q 154 172 167 185 q 122 158 142 158 q 90 172 103 158 q 76 204 76 185 m 568 286 q 581 318 568 306 q 614 331 594 331 q 646 318 633 331 q 658 286 658 306 q 646 253 658 267 q 614 240 633 240 q 581 253 594 240 q 568 286 568 267 m 76 368 q 90 400 76 388 q 122 413 103 413 q 154 400 142 413 q 167 368 167 388 q 154 335 167 349 q 122 322 142 322 q 90 335 103 322 q 76 368 76 349 m 568 450 q 581 482 568 469 q 614 494 594 494 q 646 482 633 494 q 658 450 658 469 q 646 417 658 431 q 614 404 633 404 q 581 417 594 404 q 568 450 568 431 m 240 532 q 253 564 240 551 q 286 576 267 576 q 318 564 306 576 q 331 532 331 551 q 318 499 331 513 q 286 486 306 486 q 253 499 267 486 q 240 532 240 513 m 568 614 q 581 646 568 633 q 614 658 594 658 q 646 646 633 658 q 658 614 658 633 q 646 581 658 594 q 614 568 633 568 q 581 581 594 568 q 568 614 568 594 m 404 614 q 417 646 404 633 q 450 658 431 658 q 482 646 469 658 q 494 614 494 633 q 482 581 494 594 q 450 568 469 568 q 417 581 431 568 q 404 614 404 594 z "},"5":{"ha":738,"x_min":76,"x_max":658,"o":"m 76 696 q 90 728 76 715 q 122 740 103 740 q 154 728 142 740 q 167 696 167 715 q 154 663 167 676 q 122 650 142 650 q 90 663 103 650 q 76 696 76 676 m 404 40 q 417 72 404 60 q 450 85 431 85 q 482 72 469 85 q 494 40 494 60 q 482 8 494 21 q 450 -6 469 -6 q 417 8 431 -6 q 404 40 404 21 m 240 40 q 253 72 240 60 q 286 85 267 85 q 318 72 306 85 q 331 40 331 60 q 318 8 331 21 q 286 -6 306 -6 q 253 8 267 -6 q 240 40 240 21 m 568 122 q 581 154 568 142 q 614 167 594 167 q 646 154 633 167 q 658 122 658 142 q 646 90 658 103 q 614 76 633 76 q 581 90 594 76 q 568 122 568 103 m 76 122 q 90 154 76 142 q 122 167 103 167 q 154 154 142 167 q 167 122 167 142 q 154 90 167 103 q 122 76 142 76 q 90 90 103 76 q 76 122 76 103 m 568 368 q 581 400 568 388 q 614 413 594 413 q 646 400 633 413 q 658 368 658 388 q 646 335 658 349 q 614 322 633 322 q 581 335 594 322 q 568 368 568 349 m 76 368 q 90 400 76 388 q 122 413 103 413 q 154 400 142 413 q 167 368 167 388 q 154 335 167 349 q 122 322 142 322 q 90 335 103 322 q 76 368 76 349 m 404 450 q 417 482 404 469 q 450 494 431 494 q 482 482 469 494 q 494 450 494 469 q 482 417 494 431 q 450 404 469 404 q 417 417 431 404 q 404 450 404 431 m 240 450 q 253 482 240 469 q 286 494 267 494 q 318 482 306 494 q 331 450 331 469 q 318 417 331 431 q 286 404 306 404 q 253 417 267 404 q 240 450 240 431 m 76 532 q 90 564 76 551 q 122 576 103 576 q 154 564 142 576 q 167 532 167 551 q 154 499 167 513 q 122 486 142 486 q 90 499 103 486 q 76 532 76 513 m 568 696 q 581 728 568 715 q 614 740 594 740 q 646 728 633 740 q 658 696 658 715 q 646 663 658 676 q 614 650 633 650 q 581 663 594 650 q 568 696 568 676 m 404 696 q 417 728 404 715 q 450 740 431 740 q 482 728 469 740 q 494 696 494 715 q 482 663 494 676 q 450 650 469 650 q 417 663 431 650 q 404 696 404 676 m 240 696 q 253 728 240 715 q 286 740 267 740 q 318 728 306 740 q 331 696 331 715 q 318 663 331 676 q 286 650 306 650 q 253 663 267 650 q 240 696 240 676 z "},"6":{"ha":901,"x_min":76,"x_max":822,"o":"m 322 696 q 335 728 322 715 q 368 740 349 740 q 400 728 388 740 q 413 696 413 715 q 400 663 413 676 q 368 650 388 650 q 335 663 349 650 q 322 696 322 676 m 568 40 q 581 72 568 60 q 614 85 594 85 q 646 72 633 85 q 658 40 658 60 q 646 8 658 21 q 614 -6 633 -6 q 581 8 594 -6 q 568 40 568 21 m 404 40 q 417 72 404 60 q 450 85 431 85 q 482 72 469 85 q 494 40 494 60 q 482 8 494 21 q 450 -6 469 -6 q 417 8 431 -6 q 404 40 404 21 m 240 40 q 253 72 240 60 q 286 85 267 85 q 318 72 306 85 q 331 40 331 60 q 318 8 331 21 q 286 -6 306 -6 q 253 8 267 -6 q 240 40 240 21 m 732 204 q 745 236 732 224 q 778 249 758 249 q 810 236 797 249 q 822 204 822 224 q 810 172 822 185 q 778 158 797 158 q 745 172 758 158 q 732 204 732 185 m 76 204 q 90 236 76 224 q 122 249 103 249 q 154 236 142 249 q 167 204 167 224 q 154 172 167 185 q 122 158 142 158 q 90 172 103 158 q 76 204 76 185 m 568 368 q 581 400 568 388 q 614 413 594 413 q 646 400 633 413 q 658 368 658 388 q 646 335 658 349 q 614 322 633 322 q 581 335 594 322 q 568 368 568 349 m 404 368 q 417 400 404 388 q 450 413 431 413 q 482 400 469 413 q 494 368 494 388 q 482 335 494 349 q 450 322 469 322 q 417 335 431 322 q 404 368 404 349 m 240 368 q 253 400 240 388 q 286 413 267 413 q 318 400 306 413 q 331 368 331 388 q 318 335 331 349 q 286 322 306 322 q 253 335 267 322 q 240 368 240 349 m 76 368 q 90 400 76 388 q 122 413 103 413 q 154 400 142 413 q 167 368 167 388 q 154 335 167 349 q 122 322 142 322 q 90 335 103 322 q 76 368 76 349 m 158 532 q 172 564 158 551 q 204 576 185 576 q 236 564 224 576 q 249 532 249 551 q 236 499 249 513 q 204 486 224 486 q 172 499 185 486 q 158 532 158 513 m 486 696 q 499 728 486 715 q 532 740 513 740 q 564 728 551 740 q 576 696 576 715 q 564 663 576 676 q 532 650 551 650 q 499 663 513 650 q 486 696 486 676 z "},"7":{"ha":901,"x_min":76,"x_max":740,"o":"m 76 696 q 90 728 76 715 q 122 740 103 740 q 154 728 142 740 q 167 696 167 715 q 154 663 167 676 q 122 650 142 650 q 90 663 103 650 q 76 696 76 676 m 240 40 q 253 72 240 60 q 286 85 267 85 q 318 72 306 85 q 331 40 331 60 q 318 8 331 21 q 286 -6 306 -6 q 253 8 267 -6 q 240 40 240 21 m 322 204 q 335 236 322 224 q 368 249 349 249 q 400 236 388 249 q 413 204 413 224 q 400 172 413 185 q 368 158 388 158 q 335 172 349 158 q 322 204 322 185 m 486 368 q 499 400 486 388 q 532 413 513 413 q 564 400 551 413 q 576 368 576 388 q 564 335 576 349 q 532 322 551 322 q 499 335 513 322 q 486 368 486 349 m 650 532 q 663 564 650 551 q 696 576 676 576 q 728 564 715 576 q 740 532 740 551 q 728 499 740 513 q 696 486 715 486 q 663 499 676 486 q 650 532 650 513 m 568 696 q 581 728 568 715 q 614 740 594 740 q 646 728 633 740 q 658 696 658 715 q 646 663 658 676 q 614 650 633 650 q 581 663 594 650 q 568 696 568 676 m 404 696 q 417 728 404 715 q 450 740 431 740 q 482 728 469 740 q 494 696 494 715 q 482 663 494 676 q 450 650 469 650 q 417 663 431 650 q 404 696 404 676 m 240 696 q 253 728 240 715 q 286 740 267 740 q 318 728 306 740 q 331 696 331 715 q 318 663 331 676 q 286 650 306 650 q 253 663 267 650 q 240 696 240 676 z "},"8":{"ha":901,"x_min":76,"x_max":822,"o":"m 240 696 q 253 728 240 715 q 286 740 267 740 q 318 728 306 740 q 331 696 331 715 q 318 663 331 676 q 286 650 306 650 q 253 663 267 650 q 240 696 240 676 m 568 40 q 581 72 568 60 q 614 85 594 85 q 646 72 633 85 q 658 40 658 60 q 646 8 658 21 q 614 -6 633 -6 q 581 8 594 -6 q 568 40 568 21 m 404 40 q 417 72 404 60 q 450 85 431 85 q 482 72 469 85 q 494 40 494 60 q 482 8 494 21 q 450 -6 469 -6 q 417 8 431 -6 q 404 40 404 21 m 240 40 q 253 72 240 60 q 286 85 267 85 q 318 72 306 85 q 331 40 331 60 q 318 8 331 21 q 286 -6 306 -6 q 253 8 267 -6 q 240 40 240 21 m 732 204 q 745 236 732 224 q 778 249 758 249 q 810 236 797 249 q 822 204 822 224 q 810 172 822 185 q 778 158 797 158 q 745 172 758 158 q 732 204 732 185 m 76 204 q 90 236 76 224 q 122 249 103 249 q 154 236 142 249 q 167 204 167 224 q 154 172 167 185 q 122 158 142 158 q 90 172 103 158 q 76 204 76 185 m 568 368 q 581 400 568 388 q 614 413 594 413 q 646 400 633 413 q 658 368 658 388 q 646 335 658 349 q 614 322 633 322 q 581 335 594 322 q 568 368 568 349 m 404 368 q 417 400 404 388 q 450 413 431 413 q 482 400 469 413 q 494 368 494 388 q 482 335 494 349 q 450 322 469 322 q 417 335 431 322 q 404 368 404 349 m 240 368 q 253 400 240 388 q 286 413 267 413 q 318 400 306 413 q 331 368 331 388 q 318 335 331 349 q 286 322 306 322 q 253 335 267 322 q 240 368 240 349 m 650 532 q 663 564 650 551 q 696 576 676 576 q 728 564 715 576 q 740 532 740 551 q 728 499 740 513 q 696 486 715 486 q 663 499 676 486 q 650 532 650 513 m 158 532 q 172 564 158 551 q 204 576 185 576 q 236 564 224 576 q 249 532 249 551 q 236 499 249 513 q 204 486 224 486 q 172 499 185 486 q 158 532 158 513 m 568 696 q 581 728 568 715 q 614 740 594 740 q 646 728 633 740 q 658 696 658 715 q 646 663 658 676 q 614 650 633 650 q 581 663 594 650 q 568 696 568 676 m 404 696 q 417 728 404 715 q 450 740 431 740 q 482 728 469 740 q 494 696 494 715 q 482 663 494 676 q 450 650 469 650 q 417 663 431 650 q 404 696 404 676 z "},"9":{"ha":901,"x_min":76,"x_max":822,"o":"m 240 696 q 253 728 240 715 q 286 740 267 740 q 318 728 306 740 q 331 696 331 715 q 318 663 331 676 q 286 650 306 650 q 253 663 267 650 q 240 696 240 676 m 486 40 q 499 72 486 60 q 532 85 513 85 q 564 72 551 85 q 576 40 576 60 q 564 8 576 21 q 532 -6 551 -6 q 499 8 513 -6 q 486 40 486 21 m 322 40 q 335 72 322 60 q 368 85 349 85 q 400 72 388 85 q 413 40 413 60 q 400 8 413 21 q 368 -6 388 -6 q 335 8 349 -6 q 322 40 322 21 m 650 204 q 663 236 650 224 q 696 249 676 249 q 728 236 715 249 q 740 204 740 224 q 728 172 740 185 q 696 158 715 158 q 663 172 676 158 q 650 204 650 185 m 732 368 q 745 400 732 388 q 778 413 758 413 q 810 400 797 413 q 822 368 822 388 q 810 335 822 349 q 778 322 797 322 q 745 335 758 322 q 732 368 732 349 m 568 368 q 581 400 568 388 q 614 413 594 413 q 646 400 633 413 q 658 368 658 388 q 646 335 658 349 q 614 322 633 322 q 581 335 594 322 q 568 368 568 349 m 404 368 q 417 400 404 388 q 450 413 431 413 q 482 400 469 413 q 494 368 494 388 q 482 335 494 349 q 450 322 469 322 q 417 335 431 322 q 404 368 404 349 m 240 368 q 253 400 240 388 q 286 413 267 413 q 318 400 306 413 q 331 368 331 388 q 318 335 331 349 q 286 322 306 322 q 253 335 267 322 q 240 368 240 349 m 732 532 q 745 564 732 551 q 778 576 758 576 q 810 564 797 576 q 822 532 822 551 q 810 499 822 513 q 778 486 797 486 q 745 499 758 486 q 732 532 732 513 m 76 532 q 90 564 76 551 q 122 576 103 576 q 154 564 142 576 q 167 532 167 551 q 154 499 167 513 q 122 486 142 486 q 90 499 103 486 q 76 532 76 513 m 568 696 q 581 728 568 715 q 614 740 594 740 q 646 728 633 740 q 658 696 658 715 q 646 663 658 676 q 614 650 633 650 q 581 663 594 650 q 568 696 568 676 m 404 696 q 417 728 404 715 q 450 740 431 740 q 482 728 469 740 q 494 696 494 715 q 482 663 494 676 q 450 650 469 650 q 417 663 431 650 q 404 696 404 676 z "}," ":{"ha":410,"x_min":0,"x_max":0,"o":""},"!":{"ha":246,"x_min":76,"x_max":167,"o":"m 76 696 q 90 728 76 715 q 122 740 103 740 q 154 728 142 740 q 167 696 167 715 q 154 663 167 676 q 122 650 142 650 q 90 663 103 650 q 76 696 76 676 m 76 40 q 90 72 76 60 q 122 85 103 85 q 154 72 142 85 q 167 40 167 60 q 154 8 167 21 q 122 -6 142 -6 q 90 8 103 -6 q 76 40 76 21 m 76 368 q 90 400 76 388 q 122 413 103 413 q 154 400 142 413 q 167 368 167 388 q 154 335 167 349 q 122 322 142 322 q 90 335 103 322 q 76 368 76 349 m 76 532 q 90 564 76 551 q 122 576 103 576 q 154 564 142 576 q 167 532 167 551 q 154 499 167 513 q 122 486 142 486 q 90 499 103 486 q 76 532 76 513 z "},"\"":{"ha":410,"x_min":76,"x_max":331,"o":"m 76 942 q 90 974 76 961 q 122 986 103 986 q 154 974 142 986 q 167 942 167 961 q 154 909 167 922 q 122 896 142 896 q 90 909 103 896 q 76 942 76 922 m 240 778 q 253 810 240 797 q 286 822 267 822 q 318 810 306 822 q 331 778 331 797 q 318 745 331 758 q 286 732 306 732 q 253 745 267 732 q 240 778 240 758 m 76 778 q 90 810 76 797 q 122 822 103 822 q 154 810 142 822 q 167 778 167 797 q 154 745 167 758 q 122 732 142 732 q 90 745 103 732 q 76 778 76 758 m 240 942 q 253 974 240 961 q 286 986 267 986 q 318 974 306 986 q 331 942 331 961 q 318 909 331 922 q 286 896 306 896 q 253 909 267 896 q 240 942 240 922 z "},"#":{"ha":983,"x_min":76,"x_max":904,"o":"m 404 696 q 417 728 404 715 q 450 740 431 740 q 482 728 469 740 q 494 696 494 715 q 482 663 494 676 q 450 650 469 650 q 417 663 431 650 q 404 696 404 676 m 486 204 q 499 236 486 224 q 532 249 513 249 q 564 236 551 249 q 576 204 576 224 q 564 172 576 185 q 532 158 551 158 q 499 172 513 158 q 486 204 486 185 m 158 204 q 172 236 158 224 q 204 249 185 249 q 236 236 224 249 q 249 204 249 224 q 236 172 249 185 q 204 158 224 158 q 172 172 185 158 q 158 204 158 185 m 732 368 q 745 400 732 388 q 778 413 758 413 q 810 400 797 413 q 822 368 822 388 q 810 335 822 349 q 778 322 797 322 q 745 335 758 322 q 732 368 732 349 m 568 368 q 581 400 568 388 q 614 413 594 413 q 646 400 633 413 q 658 368 658 388 q 646 335 658 349 q 614 322 633 322 q 581 335 594 322 q 568 368 568 349 m 404 368 q 417 400 404 388 q 450 413 431 413 q 482 400 469 413 q 494 368 494 388 q 482 335 494 349 q 450 322 469 322 q 417 335 431 322 q 404 368 404 349 m 240 368 q 253 400 240 388 q 286 413 267 413 q 318 400 306 413 q 331 368 331 388 q 318 335 331 349 q 286 322 306 322 q 253 335 267 322 q 240 368 240 349 m 76 368 q 90 400 76 388 q 122 413 103 413 q 154 400 142 413 q 167 368 167 388 q 154 335 167 349 q 122 322 142 322 q 90 335 103 322 q 76 368 76 349 m 814 532 q 827 564 814 551 q 860 576 840 576 q 892 564 879 576 q 904 532 904 551 q 892 499 904 513 q 860 486 879 486 q 827 499 840 486 q 814 532 814 513 m 650 532 q 663 564 650 551 q 696 576 676 576 q 728 564 715 576 q 740 532 740 551 q 728 499 740 513 q 696 486 715 486 q 663 499 676 486 q 650 532 650 513 m 486 532 q 499 564 486 551 q 532 576 513 576 q 564 564 551 576 q 576 532 576 551 q 564 499 576 513 q 532 486 551 486 q 499 499 513 486 q 486 532 486 513 m 322 532 q 335 564 322 551 q 368 576 349 576 q 400 564 388 576 q 413 532 413 551 q 400 499 413 513 q 368 486 388 486 q 335 499 349 486 q 322 532 322 513 m 158 532 q 172 564 158 551 q 204 576 185 576 q 236 564 224 576 q 249 532 249 551 q 236 499 249 513 q 204 486 224 486 q 172 499 185 486 q 158 532 158 513 m 732 696 q 745 728 732 715 q 778 740 758 740 q 810 728 797 740 q 822 696 822 715 q 810 663 822 676 q 778 650 797 650 q 745 663 758 650 q 732 696 732 676 z "},"$":{"ha":738,"x_min":76,"x_max":658,"o":"m 322 860 q 335 892 322 879 q 368 904 349 904 q 400 892 388 904 q 413 860 413 879 q 400 827 413 840 q 368 814 388 814 q 335 827 349 814 q 322 860 322 840 m 322 -124 q 335 -92 322 -104 q 368 -79 349 -79 q 400 -92 388 -79 q 413 -124 413 -104 q 400 -156 413 -143 q 368 -169 388 -169 q 335 -156 349 -169 q 322 -124 322 -143 m 404 40 q 417 72 404 60 q 450 85 431 85 q 482 72 469 85 q 494 40 494 60 q 482 8 494 21 q 450 -6 469 -6 q 417 8 431 -6 q 404 40 404 21 m 240 40 q 253 72 240 60 q 286 85 267 85 q 318 72 306 85 q 331 40 331 60 q 318 8 331 21 q 286 -6 306 -6 q 253 8 267 -6 q 240 40 240 21 m 76 40 q 90 72 76 60 q 122 85 103 85 q 154 72 142 85 q 167 40 167 60 q 154 8 167 21 q 122 -6 142 -6 q 90 8 103 -6 q 76 40 76 21 m 568 122 q 581 154 568 142 q 614 167 594 167 q 646 154 633 167 q 658 122 658 142 q 646 90 658 103 q 614 76 633 76 q 581 90 594 76 q 568 122 568 103 m 322 204 q 335 236 322 224 q 368 249 349 249 q 400 236 388 249 q 413 204 413 224 q 400 172 413 185 q 368 158 388 158 q 335 172 349 158 q 322 204 322 185 m 486 286 q 499 318 486 306 q 532 331 513 331 q 564 318 551 331 q 576 286 576 306 q 564 253 576 267 q 532 240 551 240 q 499 253 513 240 q 486 286 486 267 m 322 368 q 335 400 322 388 q 368 413 349 413 q 400 400 388 413 q 413 368 413 388 q 400 335 413 349 q 368 322 388 322 q 335 335 349 322 q 322 368 322 349 m 158 450 q 172 482 158 469 q 204 494 185 494 q 236 482 224 494 q 249 450 249 469 q 236 417 249 431 q 204 404 224 404 q 172 417 185 404 q 158 450 158 431 m 322 532 q 335 564 322 551 q 368 576 349 576 q 400 564 388 576 q 413 532 413 551 q 400 499 413 513 q 368 486 388 486 q 335 499 349 486 q 322 532 322 513 m 76 614 q 90 646 76 633 q 122 658 103 658 q 154 646 142 658 q 167 614 167 633 q 154 581 167 594 q 122 568 142 568 q 90 581 103 568 q 76 614 76 594 m 568 696 q 581 728 568 715 q 614 740 594 740 q 646 728 633 740 q 658 696 658 715 q 646 663 658 676 q 614 650 633 650 q 581 663 594 650 q 568 696 568 676 m 404 696 q 417 728 404 715 q 450 740 431 740 q 482 728 469 740 q 494 696 494 715 q 482 663 494 676 q 450 650 469 650 q 417 663 431 650 q 404 696 404 676 m 240 696 q 253 728 240 715 q 286 740 267 740 q 318 728 306 740 q 331 696 331 715 q 318 663 331 676 q 286 650 306 650 q 253 663 267 650 q 240 696 240 676 z "},"%":{"ha":901,"x_min":76,"x_max":822,"o":"m 240 696 q 253 728 240 715 q 286 740 267 740 q 318 728 306 740 q 331 696 331 715 q 318 663 331 676 q 286 650 306 650 q 253 663 267 650 q 240 696 240 676 m 568 40 q 581 72 568 60 q 614 85 594 85 q 646 72 633 85 q 658 40 658 60 q 646 8 658 21 q 614 -6 633 -6 q 581 8 594 -6 q 568 40 568 21 m 240 40 q 253 72 240 60 q 286 85 267 85 q 318 72 306 85 q 331 40 331 60 q 318 8 331 21 q 286 -6 306 -6 q 253 8 267 -6 q 240 40 240 21 m 732 122 q 745 154 732 142 q 778 167 758 167 q 810 154 797 167 q 822 122 822 142 q 810 90 822 103 q 778 76 797 76 q 745 90 758 76 q 732 122 732 103 m 486 204 q 499 236 486 224 q 532 249 513 249 q 564 236 551 249 q 576 204 576 224 q 564 172 576 185 q 532 158 551 158 q 499 172 513 158 q 486 204 486 185 m 322 204 q 335 236 322 224 q 368 249 349 249 q 400 236 388 249 q 413 204 413 224 q 400 172 413 185 q 368 158 388 158 q 335 172 349 158 q 322 204 322 185 m 650 286 q 663 318 650 306 q 696 331 676 331 q 728 318 715 331 q 740 286 740 306 q 728 253 740 267 q 696 240 715 240 q 663 253 676 240 q 650 286 650 267 m 404 368 q 417 400 404 388 q 450 413 431 413 q 482 400 469 413 q 494 368 494 388 q 482 335 494 349 q 450 322 469 322 q 417 335 431 322 q 404 368 404 349 m 158 450 q 172 482 158 469 q 204 494 185 494 q 236 482 224 494 q 249 450 249 469 q 236 417 249 431 q 204 404 224 404 q 172 417 185 404 q 158 450 158 431 m 486 532 q 499 564 486 551 q 532 576 513 576 q 564 564 551 576 q 576 532 576 551 q 564 499 576 513 q 532 486 551 486 q 499 499 513 486 q 486 532 486 513 m 322 532 q 335 564 322 551 q 368 576 349 576 q 400 564 388 576 q 413 532 413 551 q 400 499 413 513 q 368 486 388 486 q 335 499 349 486 q 322 532 322 513 m 76 614 q 90 646 76 633 q 122 658 103 658 q 154 646 142 658 q 167 614 167 633 q 154 581 167 594 q 122 568 142 568 q 90 581 103 568 q 76 614 76 594 m 568 696 q 581 728 568 715 q 614 740 594 740 q 646 728 633 740 q 658 696 658 715 q 646 663 658 676 q 614 650 633 650 q 581 663 594 650 q 568 696 568 676 z "},"&":{"ha":1065,"x_min":76,"x_max":986,"o":"m 404 696 q 417 728 404 715 q 450 740 431 740 q 482 728 469 740 q 494 696 494 715 q 482 663 494 676 q 450 650 469 650 q 417 663 431 650 q 404 696 404 676 m 896 40 q 909 72 896 60 q 942 85 922 85 q 974 72 961 85 q 986 40 986 60 q 974 8 986 21 q 942 -6 961 -6 q 909 8 922 -6 q 896 40 896 21 m 568 40 q 581 72 568 60 q 614 85 594 85 q 646 72 633 85 q 658 40 658 60 q 646 8 658 21 q 614 -6 633 -6 q 581 8 594 -6 q 568 40 568 21 m 404 40 q 417 72 404 60 q 450 85 431 85 q 482 72 469 85 q 494 40 494 60 q 482 8 494 21 q 450 -6 469 -6 q 417 8 431 -6 q 404 40 404 21 m 240 40 q 253 72 240 60 q 286 85 267 85 q 318 72 306 85 q 331 40 331 60 q 318 8 331 21 q 286 -6 306 -6 q 253 8 267 -6 q 240 40 240 21 m 732 122 q 745 154 732 142 q 778 167 758 167 q 810 154 797 167 q 822 122 822 142 q 810 90 822 103 q 778 76 797 76 q 745 90 758 76 q 732 122 732 103 m 76 204 q 90 236 76 224 q 122 249 103 249 q 154 236 142 249 q 167 204 167 224 q 154 172 167 185 q 122 158 142 158 q 90 172 103 158 q 76 204 76 185 m 896 286 q 909 318 896 306 q 942 331 922 331 q 974 318 961 331 q 986 286 986 306 q 974 253 986 267 q 942 240 961 240 q 909 253 922 240 q 896 286 896 267 m 568 286 q 581 318 568 306 q 614 331 594 331 q 646 318 633 331 q 658 286 658 306 q 646 253 658 267 q 614 240 633 240 q 581 253 594 240 q 568 286 568 267 m 240 286 q 253 318 240 306 q 286 331 267 331 q 318 318 306 331 q 331 286 331 306 q 318 253 331 267 q 286 240 306 240 q 253 253 267 240 q 240 286 240 267 m 404 368 q 417 400 404 388 q 450 413 431 413 q 482 400 469 413 q 494 368 494 388 q 482 335 494 349 q 450 322 469 322 q 417 335 431 322 q 404 368 404 349 m 568 450 q 581 482 568 469 q 614 494 594 494 q 646 482 633 494 q 658 450 658 469 q 646 417 658 431 q 614 404 633 404 q 581 417 594 404 q 568 450 568 431 m 240 450 q 253 482 240 469 q 286 494 267 494 q 318 482 306 494 q 331 450 331 469 q 318 417 331 431 q 286 404 306 404 q 253 417 267 404 q 240 450 240 431 m 732 532 q 745 564 732 551 q 778 576 758 576 q 810 564 797 576 q 822 532 822 551 q 810 499 822 513 q 778 486 797 486 q 745 499 758 486 q 732 532 732 513 m 240 614 q 253 646 240 633 q 286 658 267 658 q 318 646 306 658 q 331 614 331 633 q 318 581 331 594 q 286 568 306 568 q 253 581 267 568 q 240 614 240 594 m 568 696 q 581 728 568 715 q 614 740 594 740 q 646 728 633 740 q 658 696 658 715 q 646 663 658 676 q 614 650 633 650 q 581 663 594 650 q 568 696 568 676 z "},"'":{"ha":246,"x_min":76,"x_max":167,"o":"m 76 942 q 90 974 76 961 q 122 986 103 986 q 154 974 142 986 q 167 942 167 961 q 154 909 167 922 q 122 896 142 896 q 90 909 103 896 q 76 942 76 922 m 76 778 q 90 810 76 797 q 122 822 103 822 q 154 810 142 822 q 167 778 167 797 q 154 745 167 758 q 122 732 142 732 q 90 745 103 732 q 76 778 76 758 z "},"(":{"ha":492,"x_min":76,"x_max":413,"o":"m 322 696 q 335 728 322 715 q 368 740 349 740 q 400 728 388 740 q 413 696 413 715 q 400 663 413 676 q 368 650 388 650 q 335 663 349 650 q 322 696 322 676 m 322 40 q 335 72 322 60 q 368 85 349 85 q 400 72 388 85 q 413 40 413 60 q 400 8 413 21 q 368 -6 388 -6 q 335 8 349 -6 q 322 40 322 21 m 158 122 q 172 154 158 142 q 204 167 185 167 q 236 154 224 167 q 249 122 249 142 q 236 90 249 103 q 204 76 224 76 q 172 90 185 76 q 158 122 158 103 m 76 286 q 90 318 76 306 q 122 331 103 331 q 154 318 142 331 q 167 286 167 306 q 154 253 167 267 q 122 240 142 240 q 90 253 103 240 q 76 286 76 267 m 76 450 q 90 482 76 469 q 122 494 103 494 q 154 482 142 494 q 167 450 167 469 q 154 417 167 431 q 122 404 142 404 q 90 417 103 404 q 76 450 76 431 m 158 614 q 172 646 158 633 q 204 658 185 658 q 236 646 224 658 q 249 614 249 633 q 236 581 249 594 q 204 568 224 568 q 172 581 185 568 q 158 614 158 594 z "},")":{"ha":492,"x_min":76,"x_max":413,"o":"m 76 696 q 90 728 76 715 q 122 740 103 740 q 154 728 142 740 q 167 696 167 715 q 154 663 167 676 q 122 650 142 650 q 90 663 103 650 q 76 696 76 676 m 76 40 q 90 72 76 60 q 122 85 103 85 q 154 72 142 85 q 167 40 167 60 q 154 8 167 21 q 122 -6 142 -6 q 90 8 103 -6 q 76 40 76 21 m 240 122 q 253 154 240 142 q 286 167 267 167 q 318 154 306 167 q 331 122 331 142 q 318 90 331 103 q 286 76 306 76 q 253 90 267 76 q 240 122 240 103 m 322 286 q 335 318 322 306 q 368 331 349 331 q 400 318 388 331 q 413 286 413 306 q 400 253 413 267 q 368 240 388 240 q 335 253 349 240 q 322 286 322 267 m 322 450 q 335 482 322 469 q 368 494 349 494 q 400 482 388 494 q 413 450 413 469 q 400 417 413 431 q 368 404 388 404 q 335 417 349 404 q 322 450 322 431 m 240 614 q 253 646 240 633 q 286 658 267 658 q 318 646 306 658 q 331 614 331 633 q 318 581 331 594 q 286 568 306 568 q 253 581 267 568 q 240 614 240 594 z "},"*":{"ha":901,"x_min":76,"x_max":822,"o":"m 76 696 q 90 728 76 715 q 122 740 103 740 q 154 728 142 740 q 167 696 167 715 q 154 663 167 676 q 122 650 142 650 q 90 663 103 650 q 76 696 76 676 m 732 40 q 745 72 732 60 q 778 85 758 85 q 810 72 797 85 q 822 40 822 60 q 810 8 822 21 q 778 -6 797 -6 q 745 8 758 -6 q 732 40 732 21 m 404 40 q 417 72 404 60 q 450 85 431 85 q 482 72 469 85 q 494 40 494 60 q 482 8 494 21 q 450 -6 469 -6 q 417 8 431 -6 q 404 40 404 21 m 76 40 q 90 72 76 60 q 122 85 103 85 q 154 72 142 85 q 167 40 167 60 q 154 8 167 21 q 122 -6 142 -6 q 90 8 103 -6 q 76 40 76 21 m 568 204 q 581 236 568 224 q 614 249 594 249 q 646 236 633 249 q 658 204 658 224 q 646 172 658 185 q 614 158 633 158 q 581 172 594 158 q 568 204 568 185 m 404 204 q 417 236 404 224 q 450 249 431 249 q 482 236 469 249 q 494 204 494 224 q 482 172 494 185 q 450 158 469 158 q 417 172 431 158 q 404 204 404 185 m 240 204 q 253 236 240 224 q 286 249 267 249 q 318 236 306 249 q 331 204 331 224 q 318 172 331 185 q 286 158 306 158 q 253 172 267 158 q 240 204 240 185 m 732 368 q 745 400 732 388 q 778 413 758 413 q 810 400 797 413 q 822 368 822 388 q 810 335 822 349 q 778 322 797 322 q 745 335 758 322 q 732 368 732 349 m 568 368 q 581 400 568 388 q 614 413 594 413 q 646 400 633 413 q 658 368 658 388 q 646 335 658 349 q 614 322 633 322 q 581 335 594 322 q 568 368 568 349 m 404 368 q 417 400 404 388 q 450 413 431 413 q 482 400 469 413 q 494 368 494 388 q 482 335 494 349 q 450 322 469 322 q 417 335 431 322 q 404 368 404 349 m 240 368 q 253 400 240 388 q 286 413 267 413 q 318 400 306 413 q 331 368 331 388 q 318 335 331 349 q 286 322 306 322 q 253 335 267 322 q 240 368 240 349 m 76 368 q 90 400 76 388 q 122 413 103 413 q 154 400 142 413 q 167 368 167 388 q 154 335 167 349 q 122 322 142 322 q 90 335 103 322 q 76 368 76 349 m 568 532 q 581 564 568 551 q 614 576 594 576 q 646 564 633 576 q 658 532 658 551 q 646 499 658 513 q 614 486 633 486 q 581 499 594 486 q 568 532 568 513 m 404 532 q 417 564 404 551 q 450 576 431 576 q 482 564 469 576 q 494 532 494 551 q 482 499 494 513 q 450 486 469 486 q 417 499 431 486 q 404 532 404 513 m 240 532 q 253 564 240 551 q 286 576 267 576 q 318 564 306 576 q 331 532 331 551 q 318 499 331 513 q 286 486 306 486 q 253 499 267 486 q 240 532 240 513 m 732 696 q 745 728 732 715 q 778 740 758 740 q 810 728 797 740 q 822 696 822 715 q 810 663 822 676 q 778 650 797 650 q 745 663 758 650 q 732 696 732 676 m 404 696 q 417 728 404 715 q 450 740 431 740 q 482 728 469 740 q 494 696 494 715 q 482 663 494 676 q 450 650 469 650 q 417 663 431 650 q 404 696 404 676 z "},"+":{"ha":901,"x_min":76,"x_max":822,"o":"m 404 696 q 417 728 404 715 q 450 740 431 740 q 482 728 469 740 q 494 696 494 715 q 482 663 494 676 q 450 650 469 650 q 417 663 431 650 q 404 696 404 676 m 404 40 q 417 72 404 60 q 450 85 431 85 q 482 72 469 85 q 494 40 494 60 q 482 8 494 21 q 450 -6 469 -6 q 417 8 431 -6 q 404 40 404 21 m 404 204 q 417 236 404 224 q 450 249 431 249 q 482 236 469 249 q 494 204 494 224 q 482 172 494 185 q 450 158 469 158 q 417 172 431 158 q 404 204 404 185 m 732 368 q 745 400 732 388 q 778 413 758 413 q 810 400 797 413 q 822 368 822 388 q 810 335 822 349 q 778 322 797 322 q 745 335 758 322 q 732 368 732 349 m 568 368 q 581 400 568 388 q 614 413 594 413 q 646 400 633 413 q 658 368 658 388 q 646 335 658 349 q 614 322 633 322 q 581 335 594 322 q 568 368 568 349 m 404 368 q 417 400 404 388 q 450 413 431 413 q 482 400 469 413 q 494 368 494 388 q 482 335 494 349 q 450 322 469 322 q 417 335 431 322 q 404 368 404 349 m 240 368 q 253 400 240 388 q 286 413 267 413 q 318 400 306 413 q 331 368 331 388 q 318 335 331 349 q 286 322 306 322 q 253 335 267 322 q 240 368 240 349 m 76 368 q 90 400 76 388 q 122 413 103 413 q 154 400 142 413 q 167 368 167 388 q 154 335 167 349 q 122 322 142 322 q 90 335 103 322 q 76 368 76 349 m 404 532 q 417 564 404 551 q 450 576 431 576 q 482 564 469 576 q 494 532 494 551 q 482 499 494 513 q 450 486 469 486 q 417 499 431 486 q 404 532 404 513 z "},",":{"ha":246,"x_min":-6,"x_max":167,"o":"m 76 40 q 90 72 76 60 q 122 85 103 85 q 154 72 142 85 q 167 40 167 60 q 154 8 167 21 q 122 -6 142 -6 q 90 8 103 -6 q 76 40 76 21 m -6 -124 q 8 -92 -6 -104 q 40 -79 21 -79 q 72 -92 60 -79 q 85 -124 85 -104 q 72 -156 85 -143 q 40 -169 60 -169 q 8 -156 21 -169 q -6 -124 -6 -143 z "},"-":{"ha":738,"x_min":76,"x_max":658,"o":"m 76 368 q 90 400 76 388 q 122 413 103 413 q 154 400 142 413 q 167 368 167 388 q 154 335 167 349 q 122 322 142 322 q 90 335 103 322 q 76 368 76 349 m 568 368 q 581 400 568 388 q 614 413 594 413 q 646 400 633 413 q 658 368 658 388 q 646 335 658 349 q 614 322 633 322 q 581 335 594 322 q 568 368 568 349 m 404 368 q 417 400 404 388 q 450 413 431 413 q 482 400 469 413 q 494 368 494 388 q 482 335 494 349 q 450 322 469 322 q 417 335 431 322 q 404 368 404 349 m 240 368 q 253 400 240 388 q 286 413 267 413 q 318 400 306 413 q 331 368 331 388 q 318 335 331 349 q 286 322 306 322 q 253 335 267 322 q 240 368 240 349 z "},".":{"ha":246,"x_min":76,"x_max":167,"o":"m 76 40 q 90 72 76 60 q 122 85 103 85 q 154 72 142 85 q 167 40 167 60 q 154 8 167 21 q 122 -6 142 -6 q 90 8 103 -6 q 76 40 76 21 z "},"/":{"ha":574,"x_min":76,"x_max":494,"o":"m 404 696 q 417 728 404 715 q 450 740 431 740 q 482 728 469 740 q 494 696 494 715 q 482 663 494 676 q 450 650 469 650 q 417 663 431 650 q 404 696 404 676 m 76 40 q 90 72 76 60 q 122 85 103 85 q 154 72 142 85 q 167 40 167 60 q 154 8 167 21 q 122 -6 142 -6 q 90 8 103 -6 q 76 40 76 21 m 158 204 q 172 236 158 224 q 204 249 185 249 q 236 236 224 249 q 249 204 249 224 q 236 172 249 185 q 204 158 224 158 q 172 172 185 158 q 158 204 158 185 m 240 368 q 253 400 240 388 q 286 413 267 413 q 318 400 306 413 q 331 368 331 388 q 318 335 331 349 q 286 322 306 322 q 253 335 267 322 q 240 368 240 349 m 322 532 q 335 564 322 551 q 368 576 349 576 q 400 564 388 576 q 413 532 413 551 q 400 499 413 513 q 368 486 388 486 q 335 499 349 486 q 322 532 322 513 z "},":":{"ha":246,"x_min":76,"x_max":167,"o":"m 76 532 q 90 564 76 551 q 122 576 103 576 q 154 564 142 576 q 167 532 167 551 q 154 499 167 513 q 122 486 142 486 q 90 499 103 486 q 76 532 76 513 m 76 40 q 90 72 76 60 q 122 85 103 85 q 154 72 142 85 q 167 40 167 60 q 154 8 167 21 q 122 -6 142 -6 q 90 8 103 -6 q 76 40 76 21 z "},";":{"ha":328,"x_min":76,"x_max":249,"o":"m 158 532 q 172 564 158 551 q 204 576 185 576 q 236 564 224 576 q 249 532 249 551 q 236 499 249 513 q 204 486 224 486 q 172 499 185 486 q 158 532 158 513 m 76 -124 q 90 -92 76 -104 q 122 -79 103 -79 q 154 -92 142 -79 q 167 -124 167 -104 q 154 -156 167 -143 q 122 -169 142 -169 q 90 -156 103 -169 q 76 -124 76 -143 m 158 40 q 172 72 158 60 q 204 85 185 85 q 236 72 224 85 q 249 40 249 60 q 236 8 249 21 q 204 -6 224 -6 q 172 8 185 -6 q 158 40 158 21 z "},"<":{"ha":574,"x_min":76,"x_max":494,"o":"m 404 696 q 417 728 404 715 q 450 740 431 740 q 482 728 469 740 q 494 696 494 715 q 482 663 494 676 q 450 650 469 650 q 417 663 431 650 q 404 696 404 676 m 404 40 q 417 72 404 60 q 450 85 431 85 q 482 72 469 85 q 494 40 494 60 q 482 8 494 21 q 450 -6 469 -6 q 417 8 431 -6 q 404 40 404 21 m 240 204 q 253 236 240 224 q 286 249 267 249 q 318 236 306 249 q 331 204 331 224 q 318 172 331 185 q 286 158 306 158 q 253 172 267 158 q 240 204 240 185 m 76 368 q 90 400 76 388 q 122 413 103 413 q 154 400 142 413 q 167 368 167 388 q 154 335 167 349 q 122 322 142 322 q 90 335 103 322 q 76 368 76 349 m 240 532 q 253 564 240 551 q 286 576 267 576 q 318 564 306 576 q 331 532 331 551 q 318 499 331 513 q 286 486 306 486 q 253 499 267 486 q 240 532 240 513 z "},"=":{"ha":738,"x_min":76,"x_max":658,"o":"m 76 532 q 90 564 76 551 q 122 576 103 576 q 154 564 142 576 q 167 532 167 551 q 154 499 167 513 q 122 486 142 486 q 90 499 103 486 q 76 532 76 513 m 568 286 q 581 318 568 306 q 614 331 594 331 q 646 318 633 331 q 658 286 658 306 q 646 253 658 267 q 614 240 633 240 q 581 253 594 240 q 568 286 568 267 m 404 286 q 417 318 404 306 q 450 331 431 331 q 482 318 469 331 q 494 286 494 306 q 482 253 494 267 q 450 240 469 240 q 417 253 431 240 q 404 286 404 267 m 240 286 q 253 318 240 306 q 286 331 267 331 q 318 318 306 331 q 331 286 331 306 q 318 253 331 267 q 286 240 306 240 q 253 253 267 240 q 240 286 240 267 m 76 286 q 90 318 76 306 q 122 331 103 331 q 154 318 142 331 q 167 286 167 306 q 154 253 167 267 q 122 240 142 240 q 90 253 103 240 q 76 286 76 267 m 568 532 q 581 564 568 551 q 614 576 594 576 q 646 564 633 576 q 658 532 658 551 q 646 499 658 513 q 614 486 633 486 q 581 499 594 486 q 568 532 568 513 m 404 532 q 417 564 404 551 q 450 576 431 576 q 482 564 469 576 q 494 532 494 551 q 482 499 494 513 q 450 486 469 486 q 417 499 431 486 q 404 532 404 513 m 240 532 q 253 564 240 551 q 286 576 267 576 q 318 564 306 576 q 331 532 331 551 q 318 499 331 513 q 286 486 306 486 q 253 499 267 486 q 240 532 240 513 z "},">":{"ha":574,"x_min":76,"x_max":494,"o":"m 76 696 q 90 728 76 715 q 122 740 103 740 q 154 728 142 740 q 167 696 167 715 q 154 663 167 676 q 122 650 142 650 q 90 663 103 650 q 76 696 76 676 m 76 40 q 90 72 76 60 q 122 85 103 85 q 154 72 142 85 q 167 40 167 60 q 154 8 167 21 q 122 -6 142 -6 q 90 8 103 -6 q 76 40 76 21 m 240 204 q 253 236 240 224 q 286 249 267 249 q 318 236 306 249 q 331 204 331 224 q 318 172 331 185 q 286 158 306 158 q 253 172 267 158 q 240 204 240 185 m 404 368 q 417 400 404 388 q 450 413 431 413 q 482 400 469 413 q 494 368 494 388 q 482 335 494 349 q 450 322 469 322 q 417 335 431 322 q 404 368 404 349 m 240 532 q 253 564 240 551 q 286 576 267 576 q 318 564 306 576 q 331 532 331 551 q 318 499 331 513 q 286 486 306 486 q 253 499 267 486 q 240 532 240 513 z "},"?":{"ha":574,"x_min":76,"x_max":494,"o":"m 240 696 q 253 728 240 715 q 286 740 267 740 q 318 728 306 740 q 331 696 331 715 q 318 663 331 676 q 286 650 306 650 q 253 663 267 650 q 240 696 240 676 m 240 40 q 253 72 240 60 q 286 85 267 85 q 318 72 306 85 q 331 40 331 60 q 318 8 331 21 q 286 -6 306 -6 q 253 8 267 -6 q 240 40 240 21 m 240 286 q 253 318 240 306 q 286 331 267 331 q 318 318 306 331 q 331 286 331 306 q 318 253 331 267 q 286 240 306 240 q 253 253 267 240 q 240 286 240 267 m 404 450 q 417 482 404 469 q 450 494 431 494 q 482 482 469 494 q 494 450 494 469 q 482 417 494 431 q 450 404 469 404 q 417 417 431 404 q 404 450 404 431 m 404 614 q 417 646 404 633 q 450 658 431 658 q 482 646 469 658 q 494 614 494 633 q 482 581 494 594 q 450 568 469 568 q 417 581 431 568 q 404 614 404 594 m 76 614 q 90 646 76 633 q 122 658 103 658 q 154 646 142 658 q 167 614 167 633 q 154 581 167 594 q 122 568 142 568 q 90 581 103 568 q 76 614 76 594 z "},"@":{"ha":901,"x_min":76,"x_max":822,"o":"m 322 696 q 335 728 322 715 q 368 740 349 740 q 400 728 388 740 q 413 696 413 715 q 400 663 413 676 q 368 650 388 650 q 335 663 349 650 q 322 696 322 676 m 404 -124 q 417 -92 404 -104 q 450 -79 431 -79 q 482 -92 469 -79 q 494 -124 494 -104 q 482 -156 494 -143 q 450 -169 469 -169 q 417 -156 431 -169 q 404 -124 404 -143 m 240 -42 q 253 -10 240 -22 q 286 3 267 3 q 318 -10 306 3 q 331 -42 331 -22 q 318 -74 331 -61 q 286 -87 306 -87 q 253 -74 267 -87 q 240 -42 240 -61 m 486 40 q 499 72 486 60 q 532 85 513 85 q 564 72 551 85 q 576 40 576 60 q 564 8 576 21 q 532 -6 551 -6 q 499 8 513 -6 q 486 40 486 21 m 650 122 q 663 154 650 142 q 696 167 676 167 q 728 154 715 167 q 740 122 740 142 q 728 90 740 103 q 696 76 715 76 q 663 90 676 76 q 650 122 650 103 m 158 122 q 172 154 158 142 q 204 167 185 167 q 236 154 224 167 q 249 122 249 142 q 236 90 249 103 q 204 76 224 76 q 172 90 185 76 q 158 122 158 103 m 486 204 q 499 236 486 224 q 532 249 513 249 q 564 236 551 249 q 576 204 576 224 q 564 172 576 185 q 532 158 551 158 q 499 172 513 158 q 486 204 486 185 m 322 204 q 335 236 322 224 q 368 249 349 249 q 400 236 388 249 q 413 204 413 224 q 400 172 413 185 q 368 158 388 158 q 335 172 349 158 q 322 204 322 185 m 732 286 q 745 318 732 306 q 778 331 758 331 q 810 318 797 331 q 822 286 822 306 q 810 253 822 267 q 778 240 797 240 q 745 253 758 240 q 732 286 732 267 m 76 286 q 90 318 76 306 q 122 331 103 331 q 154 318 142 331 q 167 286 167 306 q 154 253 167 267 q 122 240 142 240 q 90 253 103 240 q 76 286 76 267 m 486 368 q 499 400 486 388 q 532 413 513 413 q 564 400 551 413 q 576 368 576 388 q 564 335 576 349 q 532 322 551 322 q 499 335 513 322 q 486 368 486 349 m 322 368 q 335 400 322 388 q 368 413 349 413 q 400 400 388 413 q 413 368 413 388 q 400 335 413 349 q 368 322 388 322 q 335 335 349 322 q 322 368 322 349 m 732 450 q 745 482 732 469 q 778 494 758 494 q 810 482 797 494 q 822 450 822 469 q 810 417 822 431 q 778 404 797 404 q 745 417 758 404 q 732 450 732 431 m 76 450 q 90 482 76 469 q 122 494 103 494 q 154 482 142 494 q 167 450 167 469 q 154 417 167 431 q 122 404 142 404 q 90 417 103 404 q 76 450 76 431 m 650 614 q 663 646 650 633 q 696 658 676 658 q 728 646 715 658 q 740 614 740 633 q 728 581 740 594 q 696 568 715 568 q 663 581 676 568 q 650 614 650 594 m 158 614 q 172 646 158 633 q 204 658 185 658 q 236 646 224 658 q 249 614 249 633 q 236 581 249 594 q 204 568 224 568 q 172 581 185 568 q 158 614 158 594 m 486 696 q 499 728 486 715 q 532 740 513 740 q 564 728 551 740 q 576 696 576 715 q 564 663 576 676 q 532 650 551 650 q 499 663 513 650 q 486 696 486 676 z "},"A":{"ha":901,"x_min":76,"x_max":822,"o":"m 240 696 q 253 728 240 715 q 286 740 267 740 q 318 728 306 740 q 331 696 331 715 q 318 663 331 676 q 286 650 306 650 q 253 663 267 650 q 240 696 240 676 m 732 40 q 745 72 732 60 q 778 85 758 85 q 810 72 797 85 q 822 40 822 60 q 810 8 822 21 q 778 -6 797 -6 q 745 8 758 -6 q 732 40 732 21 m 76 40 q 90 72 76 60 q 122 85 103 85 q 154 72 142 85 q 167 40 167 60 q 154 8 167 21 q 122 -6 142 -6 q 90 8 103 -6 q 76 40 76 21 m 732 204 q 745 236 732 224 q 778 249 758 249 q 810 236 797 249 q 822 204 822 224 q 810 172 822 185 q 778 158 797 158 q 745 172 758 158 q 732 204 732 185 m 76 204 q 90 236 76 224 q 122 249 103 249 q 154 236 142 249 q 167 204 167 224 q 154 172 167 185 q 122 158 142 158 q 90 172 103 158 q 76 204 76 185 m 568 286 q 581 318 568 306 q 614 331 594 331 q 646 318 633 331 q 658 286 658 306 q 646 253 658 267 q 614 240 633 240 q 581 253 594 240 q 568 286 568 267 m 404 286 q 417 318 404 306 q 450 331 431 331 q 482 318 469 331 q 494 286 494 306 q 482 253 494 267 q 450 240 469 240 q 417 253 431 240 q 404 286 404 267 m 240 286 q 253 318 240 306 q 286 331 267 331 q 318 318 306 331 q 331 286 331 306 q 318 253 331 267 q 286 240 306 240 q 253 253 267 240 q 240 286 240 267 m 732 368 q 745 400 732 388 q 778 413 758 413 q 810 400 797 413 q 822 368 822 388 q 810 335 822 349 q 778 322 797 322 q 745 335 758 322 q 732 368 732 349 m 76 368 q 90 400 76 388 q 122 413 103 413 q 154 400 142 413 q 167 368 167 388 q 154 335 167 349 q 122 322 142 322 q 90 335 103 322 q 76 368 76 349 m 732 532 q 745 564 732 551 q 778 576 758 576 q 810 564 797 576 q 822 532 822 551 q 810 499 822 513 q 778 486 797 486 q 745 499 758 486 q 732 532 732 513 m 76 532 q 90 564 76 551 q 122 576 103 576 q 154 564 142 576 q 167 532 167 551 q 154 499 167 513 q 122 486 142 486 q 90 499 103 486 q 76 532 76 513 m 568 696 q 581 728 568 715 q 614 740 594 740 q 646 728 633 740 q 658 696 658 715 q 646 663 658 676 q 614 650 633 650 q 581 663 594 650 q 568 696 568 676 m 404 696 q 417 728 404 715 q 450 740 431 740 q 482 728 469 740 q 494 696 494 715 q 482 663 494 676 q 450 650 469 650 q 417 663 431 650 q 404 696 404 676 z "},"B":{"ha":901,"x_min":76,"x_max":822,"o":"m 240 696 q 253 728 240 715 q 286 740 267 740 q 318 728 306 740 q 331 696 331 715 q 318 663 331 676 q 286 650 306 650 q 253 663 267 650 q 240 696 240 676 m 568 40 q 581 72 568 60 q 614 85 594 85 q 646 72 633 85 q 658 40 658 60 q 646 8 658 21 q 614 -6 633 -6 q 581 8 594 -6 q 568 40 568 21 m 404 40 q 417 72 404 60 q 450 85 431 85 q 482 72 469 85 q 494 40 494 60 q 482 8 494 21 q 450 -6 469 -6 q 417 8 431 -6 q 404 40 404 21 m 240 40 q 253 72 240 60 q 286 85 267 85 q 318 72 306 85 q 331 40 331 60 q 318 8 331 21 q 286 -6 306 -6 q 253 8 267 -6 q 240 40 240 21 m 76 40 q 90 72 76 60 q 122 85 103 85 q 154 72 142 85 q 167 40 167 60 q 154 8 167 21 q 122 -6 142 -6 q 90 8 103 -6 q 76 40 76 21 m 732 204 q 745 236 732 224 q 778 249 758 249 q 810 236 797 249 q 822 204 822 224 q 810 172 822 185 q 778 158 797 158 q 745 172 758 158 q 732 204 732 185 m 76 204 q 90 236 76 224 q 122 249 103 249 q 154 236 142 249 q 167 204 167 224 q 154 172 167 185 q 122 158 142 158 q 90 172 103 158 q 76 204 76 185 m 732 368 q 745 400 732 388 q 778 413 758 413 q 810 400 797 413 q 822 368 822 388 q 810 335 822 349 q 778 322 797 322 q 745 335 758 322 q 732 368 732 349 m 568 368 q 581 400 568 388 q 614 413 594 413 q 646 400 633 413 q 658 368 658 388 q 646 335 658 349 q 614 322 633 322 q 581 335 594 322 q 568 368 568 349 m 404 368 q 417 400 404 388 q 450 413 431 413 q 482 400 469 413 q 494 368 494 388 q 482 335 494 349 q 450 322 469 322 q 417 335 431 322 q 404 368 404 349 m 240 368 q 253 400 240 388 q 286 413 267 413 q 318 400 306 413 q 331 368 331 388 q 318 335 331 349 q 286 322 306 322 q 253 335 267 322 q 240 368 240 349 m 76 368 q 90 400 76 388 q 122 413 103 413 q 154 400 142 413 q 167 368 167 388 q 154 335 167 349 q 122 322 142 322 q 90 335 103 322 q 76 368 76 349 m 650 532 q 663 564 650 551 q 696 576 676 576 q 728 564 715 576 q 740 532 740 551 q 728 499 740 513 q 696 486 715 486 q 663 499 676 486 q 650 532 650 513 m 76 532 q 90 564 76 551 q 122 576 103 576 q 154 564 142 576 q 167 532 167 551 q 154 499 167 513 q 122 486 142 486 q 90 499 103 486 q 76 532 76 513 m 568 696 q 581 728 568 715 q 614 740 594 740 q 646 728 633 740 q 658 696 658 715 q 646 663 658 676 q 614 650 633 650 q 581 663 594 650 q 568 696 568 676 m 404 696 q 417 728 404 715 q 450 740 431 740 q 482 728 469 740 q 494 696 494 715 q 482 663 494 676 q 450 650 469 650 q 417 663 431 650 q 404 696 404 676 z "},"C":{"ha":819,"x_min":76,"x_max":740,"o":"m 322 696 q 335 728 322 715 q 368 740 349 740 q 400 728 388 740 q 413 696 413 715 q 400 663 413 676 q 368 650 388 650 q 335 663 349 650 q 322 696 322 676 m 486 40 q 499 72 486 60 q 532 85 513 85 q 564 72 551 85 q 576 40 576 60 q 564 8 576 21 q 532 -6 551 -6 q 499 8 513 -6 q 486 40 486 21 m 322 40 q 335 72 322 60 q 368 85 349 85 q 400 72 388 85 q 413 40 413 60 q 400 8 413 21 q 368 -6 388 -6 q 335 8 349 -6 q 322 40 322 21 m 650 122 q 663 154 650 142 q 696 167 676 167 q 728 154 715 167 q 740 122 740 142 q 728 90 740 103 q 696 76 715 76 q 663 90 676 76 q 650 122 650 103 m 158 122 q 172 154 158 142 q 204 167 185 167 q 236 154 224 167 q 249 122 249 142 q 236 90 249 103 q 204 76 224 76 q 172 90 185 76 q 158 122 158 103 m 76 286 q 90 318 76 306 q 122 331 103 331 q 154 318 142 331 q 167 286 167 306 q 154 253 167 267 q 122 240 142 240 q 90 253 103 240 q 76 286 76 267 m 76 450 q 90 482 76 469 q 122 494 103 494 q 154 482 142 494 q 167 450 167 469 q 154 417 167 431 q 122 404 142 404 q 90 417 103 404 q 76 450 76 431 m 650 614 q 663 646 650 633 q 696 658 676 658 q 728 646 715 658 q 740 614 740 633 q 728 581 740 594 q 696 568 715 568 q 663 581 676 568 q 650 614 650 594 m 158 614 q 172 646 158 633 q 204 658 185 658 q 236 646 224 658 q 249 614 249 633 q 236 581 249 594 q 204 568 224 568 q 172 581 185 568 q 158 614 158 594 m 486 696 q 499 728 486 715 q 532 740 513 740 q 564 728 551 740 q 576 696 576 715 q 564 663 576 676 q 532 650 551 650 q 499 663 513 650 q 486 696 486 676 z "},"D":{"ha":819,"x_min":76,"x_max":740,"o":"m 240 696 q 253 728 240 715 q 286 740 267 740 q 318 728 306 740 q 331 696 331 715 q 318 663 331 676 q 286 650 306 650 q 253 663 267 650 q 240 696 240 676 m 404 40 q 417 72 404 60 q 450 85 431 85 q 482 72 469 85 q 494 40 494 60 q 482 8 494 21 q 450 -6 469 -6 q 417 8 431 -6 q 404 40 404 21 m 240 40 q 253 72 240 60 q 286 85 267 85 q 318 72 306 85 q 331 40 331 60 q 318 8 331 21 q 286 -6 306 -6 q 253 8 267 -6 q 240 40 240 21 m 76 40 q 90 72 76 60 q 122 85 103 85 q 154 72 142 85 q 167 40 167 60 q 154 8 167 21 q 122 -6 142 -6 q 90 8 103 -6 q 76 40 76 21 m 568 122 q 581 154 568 142 q 614 167 594 167 q 646 154 633 167 q 658 122 658 142 q 646 90 658 103 q 614 76 633 76 q 581 90 594 76 q 568 122 568 103 m 76 204 q 90 236 76 224 q 122 249 103 249 q 154 236 142 249 q 167 204 167 224 q 154 172 167 185 q 122 158 142 158 q 90 172 103 158 q 76 204 76 185 m 650 286 q 663 318 650 306 q 696 331 676 331 q 728 318 715 331 q 740 286 740 306 q 728 253 740 267 q 696 240 715 240 q 663 253 676 240 q 650 286 650 267 m 76 368 q 90 400 76 388 q 122 413 103 413 q 154 400 142 413 q 167 368 167 388 q 154 335 167 349 q 122 322 142 322 q 90 335 103 322 q 76 368 76 349 m 650 450 q 663 482 650 469 q 696 494 676 494 q 728 482 715 494 q 740 450 740 469 q 728 417 740 431 q 696 404 715 404 q 663 417 676 404 q 650 450 650 431 m 76 532 q 90 564 76 551 q 122 576 103 576 q 154 564 142 576 q 167 532 167 551 q 154 499 167 513 q 122 486 142 486 q 90 499 103 486 q 76 532 76 513 m 568 614 q 581 646 568 633 q 614 658 594 658 q 646 646 633 658 q 658 614 658 633 q 646 581 658 594 q 614 568 633 568 q 581 581 594 568 q 568 614 568 594 m 404 696 q 417 728 404 715 q 450 740 431 740 q 482 728 469 740 q 494 696 494 715 q 482 663 494 676 q 450 650 469 650 q 417 663 431 650 q 404 696 404 676 z "},"E":{"ha":901,"x_min":76,"x_max":822,"o":"m 240 696 q 253 728 240 715 q 286 740 267 740 q 318 728 306 740 q 331 696 331 715 q 318 663 331 676 q 286 650 306 650 q 253 663 267 650 q 240 696 240 676 m 732 40 q 745 72 732 60 q 778 85 758 85 q 810 72 797 85 q 822 40 822 60 q 810 8 822 21 q 778 -6 797 -6 q 745 8 758 -6 q 732 40 732 21 m 568 40 q 581 72 568 60 q 614 85 594 85 q 646 72 633 85 q 658 40 658 60 q 646 8 658 21 q 614 -6 633 -6 q 581 8 594 -6 q 568 40 568 21 m 404 40 q 417 72 404 60 q 450 85 431 85 q 482 72 469 85 q 494 40 494 60 q 482 8 494 21 q 450 -6 469 -6 q 417 8 431 -6 q 404 40 404 21 m 240 40 q 253 72 240 60 q 286 85 267 85 q 318 72 306 85 q 331 40 331 60 q 318 8 331 21 q 286 -6 306 -6 q 253 8 267 -6 q 240 40 240 21 m 76 204 q 90 236 76 224 q 122 249 103 249 q 154 236 142 249 q 167 204 167 224 q 154 172 167 185 q 122 158 142 158 q 90 172 103 158 q 76 204 76 185 m 568 368 q 581 400 568 388 q 614 413 594 413 q 646 400 633 413 q 658 368 658 388 q 646 335 658 349 q 614 322 633 322 q 581 335 594 322 q 568 368 568 349 m 404 368 q 417 400 404 388 q 450 413 431 413 q 482 400 469 413 q 494 368 494 388 q 482 335 494 349 q 450 322 469 322 q 417 335 431 322 q 404 368 404 349 m 240 368 q 253 400 240 388 q 286 413 267 413 q 318 400 306 413 q 331 368 331 388 q 318 335 331 349 q 286 322 306 322 q 253 335 267 322 q 240 368 240 349 m 76 368 q 90 400 76 388 q 122 413 103 413 q 154 400 142 413 q 167 368 167 388 q 154 335 167 349 q 122 322 142 322 q 90 335 103 322 q 76 368 76 349 m 76 532 q 90 564 76 551 q 122 576 103 576 q 154 564 142 576 q 167 532 167 551 q 154 499 167 513 q 122 486 142 486 q 90 499 103 486 q 76 532 76 513 m 732 696 q 745 728 732 715 q 778 740 758 740 q 810 728 797 740 q 822 696 822 715 q 810 663 822 676 q 778 650 797 650 q 745 663 758 650 q 732 696 732 676 m 568 696 q 581 728 568 715 q 614 740 594 740 q 646 728 633 740 q 658 696 658 715 q 646 663 658 676 q 614 650 633 650 q 581 663 594 650 q 568 696 568 676 m 404 696 q 417 728 404 715 q 450 740 431 740 q 482 728 469 740 q 494 696 494 715 q 482 663 494 676 q 450 650 469 650 q 417 663 431 650 q 404 696 404 676 z "},"F":{"ha":738,"x_min":76,"x_max":658,"o":"m 240 696 q 253 728 240 715 q 286 740 267 740 q 318 728 306 740 q 331 696 331 715 q 318 663 331 676 q 286 650 306 650 q 253 663 267 650 q 240 696 240 676 m 76 40 q 90 72 76 60 q 122 85 103 85 q 154 72 142 85 q 167 40 167 60 q 154 8 167 21 q 122 -6 142 -6 q 90 8 103 -6 q 76 40 76 21 m 76 204 q 90 236 76 224 q 122 249 103 249 q 154 236 142 249 q 167 204 167 224 q 154 172 167 185 q 122 158 142 158 q 90 172 103 158 q 76 204 76 185 m 404 286 q 417 318 404 306 q 450 331 431 331 q 482 318 469 331 q 494 286 494 306 q 482 253 494 267 q 450 240 469 240 q 417 253 431 240 q 404 286 404 267 m 240 286 q 253 318 240 306 q 286 331 267 331 q 318 318 306 331 q 331 286 331 306 q 318 253 331 267 q 286 240 306 240 q 253 253 267 240 q 240 286 240 267 m 76 368 q 90 400 76 388 q 122 413 103 413 q 154 400 142 413 q 167 368 167 388 q 154 335 167 349 q 122 322 142 322 q 90 335 103 322 q 76 368 76 349 m 76 532 q 90 564 76 551 q 122 576 103 576 q 154 564 142 576 q 167 532 167 551 q 154 499 167 513 q 122 486 142 486 q 90 499 103 486 q 76 532 76 513 m 568 696 q 581 728 568 715 q 614 740 594 740 q 646 728 633 740 q 658 696 658 715 q 646 663 658 676 q 614 650 633 650 q 581 663 594 650 q 568 696 568 676 m 404 696 q 417 728 404 715 q 450 740 431 740 q 482 728 469 740 q 494 696 494 715 q 482 663 494 676 q 450 650 469 650 q 417 663 431 650 q 404 696 404 676 z "},"G":{"ha":901,"x_min":76,"x_max":822,"o":"m 322 696 q 335 728 322 715 q 368 740 349 740 q 400 728 388 740 q 413 696 413 715 q 400 663 413 676 q 368 650 388 650 q 335 663 349 650 q 322 696 322 676 m 650 40 q 663 72 650 60 q 696 85 676 85 q 728 72 715 85 q 740 40 740 60 q 728 8 740 21 q 696 -6 715 -6 q 663 8 676 -6 q 650 40 650 21 m 486 40 q 499 72 486 60 q 532 85 513 85 q 564 72 551 85 q 576 40 576 60 q 564 8 576 21 q 532 -6 551 -6 q 499 8 513 -6 q 486 40 486 21 m 322 40 q 335 72 322 60 q 368 85 349 85 q 400 72 388 85 q 413 40 413 60 q 400 8 413 21 q 368 -6 388 -6 q 335 8 349 -6 q 322 40 322 21 m 158 122 q 172 154 158 142 q 204 167 185 167 q 236 154 224 167 q 249 122 249 142 q 236 90 249 103 q 204 76 224 76 q 172 90 185 76 q 158 122 158 103 m 732 204 q 745 236 732 224 q 778 249 758 249 q 810 236 797 249 q 822 204 822 224 q 810 172 822 185 q 778 158 797 158 q 745 172 758 158 q 732 204 732 185 m 76 286 q 90 318 76 306 q 122 331 103 331 q 154 318 142 331 q 167 286 167 306 q 154 253 167 267 q 122 240 142 240 q 90 253 103 240 q 76 286 76 267 m 732 368 q 745 400 732 388 q 778 413 758 413 q 810 400 797 413 q 822 368 822 388 q 810 335 822 349 q 778 322 797 322 q 745 335 758 322 q 732 368 732 349 m 568 368 q 581 400 568 388 q 614 413 594 413 q 646 400 633 413 q 658 368 658 388 q 646 335 658 349 q 614 322 633 322 q 581 335 594 322 q 568 368 568 349 m 404 368 q 417 400 404 388 q 450 413 431 413 q 482 400 469 413 q 494 368 494 388 q 482 335 494 349 q 450 322 469 322 q 417 335 431 322 q 404 368 404 349 m 76 450 q 90 482 76 469 q 122 494 103 494 q 154 482 142 494 q 167 450 167 469 q 154 417 167 431 q 122 404 142 404 q 90 417 103 404 q 76 450 76 431 m 158 614 q 172 646 158 633 q 204 658 185 658 q 236 646 224 658 q 249 614 249 633 q 236 581 249 594 q 204 568 224 568 q 172 581 185 568 q 158 614 158 594 m 650 696 q 663 728 650 715 q 696 740 676 740 q 728 728 715 740 q 740 696 740 715 q 728 663 740 676 q 696 650 715 650 q 663 663 676 650 q 650 696 650 676 m 486 696 q 499 728 486 715 q 532 740 513 740 q 564 728 551 740 q 576 696 576 715 q 564 663 576 676 q 532 650 551 650 q 499 663 513 650 q 486 696 486 676 z "},"H":{"ha":901,"x_min":76,"x_max":822,"o":"m 76 696 q 90 728 76 715 q 122 740 103 740 q 154 728 142 740 q 167 696 167 715 q 154 663 167 676 q 122 650 142 650 q 90 663 103 650 q 76 696 76 676 m 732 40 q 745 72 732 60 q 778 85 758 85 q 810 72 797 85 q 822 40 822 60 q 810 8 822 21 q 778 -6 797 -6 q 745 8 758 -6 q 732 40 732 21 m 76 40 q 90 72 76 60 q 122 85 103 85 q 154 72 142 85 q 167 40 167 60 q 154 8 167 21 q 122 -6 142 -6 q 90 8 103 -6 q 76 40 76 21 m 732 204 q 745 236 732 224 q 778 249 758 249 q 810 236 797 249 q 822 204 822 224 q 810 172 822 185 q 778 158 797 158 q 745 172 758 158 q 732 204 732 185 m 76 204 q 90 236 76 224 q 122 249 103 249 q 154 236 142 249 q 167 204 167 224 q 154 172 167 185 q 122 158 142 158 q 90 172 103 158 q 76 204 76 185 m 732 368 q 745 400 732 388 q 778 413 758 413 q 810 400 797 413 q 822 368 822 388 q 810 335 822 349 q 778 322 797 322 q 745 335 758 322 q 732 368 732 349 m 568 368 q 581 400 568 388 q 614 413 594 413 q 646 400 633 413 q 658 368 658 388 q 646 335 658 349 q 614 322 633 322 q 581 335 594 322 q 568 368 568 349 m 404 368 q 417 400 404 388 q 450 413 431 413 q 482 400 469 413 q 494 368 494 388 q 482 335 494 349 q 450 322 469 322 q 417 335 431 322 q 404 368 404 349 m 240 368 q 253 400 240 388 q 286 413 267 413 q 318 400 306 413 q 331 368 331 388 q 318 335 331 349 q 286 322 306 322 q 253 335 267 322 q 240 368 240 349 m 76 368 q 90 400 76 388 q 122 413 103 413 q 154 400 142 413 q 167 368 167 388 q 154 335 167 349 q 122 322 142 322 q 90 335 103 322 q 76 368 76 349 m 732 532 q 745 564 732 551 q 778 576 758 576 q 810 564 797 576 q 822 532 822 551 q 810 499 822 513 q 778 486 797 486 q 745 499 758 486 q 732 532 732 513 m 76 532 q 90 564 76 551 q 122 576 103 576 q 154 564 142 576 q 167 532 167 551 q 154 499 167 513 q 122 486 142 486 q 90 499 103 486 q 76 532 76 513 m 732 696 q 745 728 732 715 q 778 740 758 740 q 810 728 797 740 q 822 696 822 715 q 810 663 822 676 q 778 650 797 650 q 745 663 758 650 q 732 696 732 676 z "},"I":{"ha":246,"x_min":76,"x_max":167,"o":"m 76 696 q 90 728 76 715 q 122 740 103 740 q 154 728 142 740 q 167 696 167 715 q 154 663 167 676 q 122 650 142 650 q 90 663 103 650 q 76 696 76 676 m 76 40 q 90 72 76 60 q 122 85 103 85 q 154 72 142 85 q 167 40 167 60 q 154 8 167 21 q 122 -6 142 -6 q 90 8 103 -6 q 76 40 76 21 m 76 204 q 90 236 76 224 q 122 249 103 249 q 154 236 142 249 q 167 204 167 224 q 154 172 167 185 q 122 158 142 158 q 90 172 103 158 q 76 204 76 185 m 76 368 q 90 400 76 388 q 122 413 103 413 q 154 400 142 413 q 167 368 167 388 q 154 335 167 349 q 122 322 142 322 q 90 335 103 322 q 76 368 76 349 m 76 532 q 90 564 76 551 q 122 576 103 576 q 154 564 142 576 q 167 532 167 551 q 154 499 167 513 q 122 486 142 486 q 90 499 103 486 q 76 532 76 513 z "},"J":{"ha":246,"x_min":-6,"x_max":167,"o":"m 76 696 q 90 728 76 715 q 122 740 103 740 q 154 728 142 740 q 167 696 167 715 q 154 663 167 676 q 122 650 142 650 q 90 663 103 650 q 76 696 76 676 m -6 -124 q 8 -92 -6 -104 q 40 -79 21 -79 q 72 -92 60 -79 q 85 -124 85 -104 q 72 -156 85 -143 q 40 -169 60 -169 q 8 -156 21 -169 q -6 -124 -6 -143 m 76 40 q 90 72 76 60 q 122 85 103 85 q 154 72 142 85 q 167 40 167 60 q 154 8 167 21 q 122 -6 142 -6 q 90 8 103 -6 q 76 40 76 21 m 76 204 q 90 236 76 224 q 122 249 103 249 q 154 236 142 249 q 167 204 167 224 q 154 172 167 185 q 122 158 142 158 q 90 172 103 158 q 76 204 76 185 m 76 368 q 90 400 76 388 q 122 413 103 413 q 154 400 142 413 q 167 368 167 388 q 154 335 167 349 q 122 322 142 322 q 90 335 103 322 q 76 368 76 349 m 76 532 q 90 564 76 551 q 122 576 103 576 q 154 564 142 576 q 167 532 167 551 q 154 499 167 513 q 122 486 142 486 q 90 499 103 486 q 76 532 76 513 z "},"K":{"ha":901,"x_min":76,"x_max":822,"o":"m 76 696 q 90 728 76 715 q 122 740 103 740 q 154 728 142 740 q 167 696 167 715 q 154 663 167 676 q 122 650 142 650 q 90 663 103 650 q 76 696 76 676 m 732 40 q 745 72 732 60 q 778 85 758 85 q 810 72 797 85 q 822 40 822 60 q 810 8 822 21 q 778 -6 797 -6 q 745 8 758 -6 q 732 40 732 21 m 76 40 q 90 72 76 60 q 122 85 103 85 q 154 72 142 85 q 167 40 167 60 q 154 8 167 21 q 122 -6 142 -6 q 90 8 103 -6 q 76 40 76 21 m 568 204 q 581 236 568 224 q 614 249 594 249 q 646 236 633 249 q 658 204 658 224 q 646 172 658 185 q 614 158 633 158 q 581 172 594 158 q 568 204 568 185 m 76 204 q 90 236 76 224 q 122 249 103 249 q 154 236 142 249 q 167 204 167 224 q 154 172 167 185 q 122 158 142 158 q 90 172 103 158 q 76 204 76 185 m 404 368 q 417 400 404 388 q 450 413 431 413 q 482 400 469 413 q 494 368 494 388 q 482 335 494 349 q 450 322 469 322 q 417 335 431 322 q 404 368 404 349 m 240 368 q 253 400 240 388 q 286 413 267 413 q 318 400 306 413 q 331 368 331 388 q 318 335 331 349 q 286 322 306 322 q 253 335 267 322 q 240 368 240 349 m 76 368 q 90 400 76 388 q 122 413 103 413 q 154 400 142 413 q 167 368 167 388 q 154 335 167 349 q 122 322 142 322 q 90 335 103 322 q 76 368 76 349 m 568 532 q 581 564 568 551 q 614 576 594 576 q 646 564 633 576 q 658 532 658 551 q 646 499 658 513 q 614 486 633 486 q 581 499 594 486 q 568 532 568 513 m 76 532 q 90 564 76 551 q 122 576 103 576 q 154 564 142 576 q 167 532 167 551 q 154 499 167 513 q 122 486 142 486 q 90 499 103 486 q 76 532 76 513 m 732 696 q 745 728 732 715 q 778 740 758 740 q 810 728 797 740 q 822 696 822 715 q 810 663 822 676 q 778 650 797 650 q 745 663 758 650 q 732 696 732 676 z "},"L":{"ha":819,"x_min":76,"x_max":740,"o":"m 76 696 q 90 728 76 715 q 122 740 103 740 q 154 728 142 740 q 167 696 167 715 q 154 663 167 676 q 122 650 142 650 q 90 663 103 650 q 76 696 76 676 m 650 40 q 663 72 650 60 q 696 85 676 85 q 728 72 715 85 q 740 40 740 60 q 728 8 740 21 q 696 -6 715 -6 q 663 8 676 -6 q 650 40 650 21 m 486 40 q 499 72 486 60 q 532 85 513 85 q 564 72 551 85 q 576 40 576 60 q 564 8 576 21 q 532 -6 551 -6 q 499 8 513 -6 q 486 40 486 21 m 322 40 q 335 72 322 60 q 368 85 349 85 q 400 72 388 85 q 413 40 413 60 q 400 8 413 21 q 368 -6 388 -6 q 335 8 349 -6 q 322 40 322 21 m 158 40 q 172 72 158 60 q 204 85 185 85 q 236 72 224 85 q 249 40 249 60 q 236 8 249 21 q 204 -6 224 -6 q 172 8 185 -6 q 158 40 158 21 m 76 204 q 90 236 76 224 q 122 249 103 249 q 154 236 142 249 q 167 204 167 224 q 154 172 167 185 q 122 158 142 158 q 90 172 103 158 q 76 204 76 185 m 76 368 q 90 400 76 388 q 122 413 103 413 q 154 400 142 413 q 167 368 167 388 q 154 335 167 349 q 122 322 142 322 q 90 335 103 322 q 76 368 76 349 m 76 532 q 90 564 76 551 q 122 576 103 576 q 154 564 142 576 q 167 532 167 551 q 154 499 167 513 q 122 486 142 486 q 90 499 103 486 q 76 532 76 513 z "},"M":{"ha":1229,"x_min":76,"x_max":1150,"o":"m 240 696 q 253 728 240 715 q 286 740 267 740 q 318 728 306 740 q 331 696 331 715 q 318 663 331 676 q 286 650 306 650 q 253 663 267 650 q 240 696 240 676 m 1060 40 q 1073 72 1060 60 q 1106 85 1086 85 q 1138 72 1125 85 q 1150 40 1150 60 q 1138 8 1150 21 q 1106 -6 1125 -6 q 1073 8 1086 -6 q 1060 40 1060 21 m 568 40 q 581 72 568 60 q 614 85 594 85 q 646 72 633 85 q 658 40 658 60 q 646 8 658 21 q 614 -6 633 -6 q 581 8 594 -6 q 568 40 568 21 m 76 40 q 90 72 76 60 q 122 85 103 85 q 154 72 142 85 q 167 40 167 60 q 154 8 167 21 q 122 -6 142 -6 q 90 8 103 -6 q 76 40 76 21 m 1060 204 q 1073 236 1060 224 q 1106 249 1086 249 q 1138 236 1125 249 q 1150 204 1150 224 q 1138 172 1150 185 q 1106 158 1125 158 q 1073 172 1086 158 q 1060 204 1060 185 m 568 204 q 581 236 568 224 q 614 249 594 249 q 646 236 633 249 q 658 204 658 224 q 646 172 658 185 q 614 158 633 158 q 581 172 594 158 q 568 204 568 185 m 76 204 q 90 236 76 224 q 122 249 103 249 q 154 236 142 249 q 167 204 167 224 q 154 172 167 185 q 122 158 142 158 q 90 172 103 158 q 76 204 76 185 m 1060 368 q 1073 400 1060 388 q 1106 413 1086 413 q 1138 400 1125 413 q 1150 368 1150 388 q 1138 335 1150 349 q 1106 322 1125 322 q 1073 335 1086 322 q 1060 368 1060 349 m 568 368 q 581 400 568 388 q 614 413 594 413 q 646 400 633 413 q 658 368 658 388 q 646 335 658 349 q 614 322 633 322 q 581 335 594 322 q 568 368 568 349 m 76 368 q 90 400 76 388 q 122 413 103 413 q 154 400 142 413 q 167 368 167 388 q 154 335 167 349 q 122 322 142 322 q 90 335 103 322 q 76 368 76 349 m 1060 532 q 1073 564 1060 551 q 1106 576 1086 576 q 1138 564 1125 576 q 1150 532 1150 551 q 1138 499 1150 513 q 1106 486 1125 486 q 1073 499 1086 486 q 1060 532 1060 513 m 568 532 q 581 564 568 551 q 614 576 594 576 q 646 564 633 576 q 658 532 658 551 q 646 499 658 513 q 614 486 633 486 q 581 499 594 486 q 568 532 568 513 m 76 532 q 90 564 76 551 q 122 576 103 576 q 154 564 142 576 q 167 532 167 551 q 154 499 167 513 q 122 486 142 486 q 90 499 103 486 q 76 532 76 513 m 896 696 q 909 728 896 715 q 942 740 922 740 q 974 728 961 740 q 986 696 986 715 q 974 663 986 676 q 942 650 961 650 q 909 663 922 650 q 896 696 896 676 m 732 696 q 745 728 732 715 q 778 740 758 740 q 810 728 797 740 q 822 696 822 715 q 810 663 822 676 q 778 650 797 650 q 745 663 758 650 q 732 696 732 676 m 404 696 q 417 728 404 715 q 450 740 431 740 q 482 728 469 740 q 494 696 494 715 q 482 663 494 676 q 450 650 469 650 q 417 663 431 650 q 404 696 404 676 z "},"N":{"ha":901,"x_min":76,"x_max":822,"o":"m 240 696 q 253 728 240 715 q 286 740 267 740 q 318 728 306 740 q 331 696 331 715 q 318 663 331 676 q 286 650 306 650 q 253 663 267 650 q 240 696 240 676 m 732 40 q 745 72 732 60 q 778 85 758 85 q 810 72 797 85 q 822 40 822 60 q 810 8 822 21 q 778 -6 797 -6 q 745 8 758 -6 q 732 40 732 21 m 76 40 q 90 72 76 60 q 122 85 103 85 q 154 72 142 85 q 167 40 167 60 q 154 8 167 21 q 122 -6 142 -6 q 90 8 103 -6 q 76 40 76 21 m 732 204 q 745 236 732 224 q 778 249 758 249 q 810 236 797 249 q 822 204 822 224 q 810 172 822 185 q 778 158 797 158 q 745 172 758 158 q 732 204 732 185 m 76 204 q 90 236 76 224 q 122 249 103 249 q 154 236 142 249 q 167 204 167 224 q 154 172 167 185 q 122 158 142 158 q 90 172 103 158 q 76 204 76 185 m 732 368 q 745 400 732 388 q 778 413 758 413 q 810 400 797 413 q 822 368 822 388 q 810 335 822 349 q 778 322 797 322 q 745 335 758 322 q 732 368 732 349 m 76 368 q 90 400 76 388 q 122 413 103 413 q 154 400 142 413 q 167 368 167 388 q 154 335 167 349 q 122 322 142 322 q 90 335 103 322 q 76 368 76 349 m 732 532 q 745 564 732 551 q 778 576 758 576 q 810 564 797 576 q 822 532 822 551 q 810 499 822 513 q 778 486 797 486 q 745 499 758 486 q 732 532 732 513 m 76 532 q 90 564 76 551 q 122 576 103 576 q 154 564 142 576 q 167 532 167 551 q 154 499 167 513 q 122 486 142 486 q 90 499 103 486 q 76 532 76 513 m 568 696 q 581 728 568 715 q 614 740 594 740 q 646 728 633 740 q 658 696 658 715 q 646 663 658 676 q 614 650 633 650 q 581 663 594 650 q 568 696 568 676 m 404 696 q 417 728 404 715 q 450 740 431 740 q 482 728 469 740 q 494 696 494 715 q 482 663 494 676 q 450 650 469 650 q 417 663 431 650 q 404 696 404 676 z "},"O":{"ha":901,"x_min":76,"x_max":822,"o":"m 322 696 q 335 728 322 715 q 368 740 349 740 q 400 728 388 740 q 413 696 413 715 q 400 663 413 676 q 368 650 388 650 q 335 663 349 650 q 322 696 322 676 m 486 40 q 499 72 486 60 q 532 85 513 85 q 564 72 551 85 q 576 40 576 60 q 564 8 576 21 q 532 -6 551 -6 q 499 8 513 -6 q 486 40 486 21 m 322 40 q 335 72 322 60 q 368 85 349 85 q 400 72 388 85 q 413 40 413 60 q 400 8 413 21 q 368 -6 388 -6 q 335 8 349 -6 q 322 40 322 21 m 650 122 q 663 154 650 142 q 696 167 676 167 q 728 154 715 167 q 740 122 740 142 q 728 90 740 103 q 696 76 715 76 q 663 90 676 76 q 650 122 650 103 m 158 122 q 172 154 158 142 q 204 167 185 167 q 236 154 224 167 q 249 122 249 142 q 236 90 249 103 q 204 76 224 76 q 172 90 185 76 q 158 122 158 103 m 732 286 q 745 318 732 306 q 778 331 758 331 q 810 318 797 331 q 822 286 822 306 q 810 253 822 267 q 778 240 797 240 q 745 253 758 240 q 732 286 732 267 m 76 286 q 90 318 76 306 q 122 331 103 331 q 154 318 142 331 q 167 286 167 306 q 154 253 167 267 q 122 240 142 240 q 90 253 103 240 q 76 286 76 267 m 732 450 q 745 482 732 469 q 778 494 758 494 q 810 482 797 494 q 822 450 822 469 q 810 417 822 431 q 778 404 797 404 q 745 417 758 404 q 732 450 732 431 m 76 450 q 90 482 76 469 q 122 494 103 494 q 154 482 142 494 q 167 450 167 469 q 154 417 167 431 q 122 404 142 404 q 90 417 103 404 q 76 450 76 431 m 650 614 q 663 646 650 633 q 696 658 676 658 q 728 646 715 658 q 740 614 740 633 q 728 581 740 594 q 696 568 715 568 q 663 581 676 568 q 650 614 650 594 m 158 614 q 172 646 158 633 q 204 658 185 658 q 236 646 224 658 q 249 614 249 633 q 236 581 249 594 q 204 568 224 568 q 172 581 185 568 q 158 614 158 594 m 486 696 q 499 728 486 715 q 532 740 513 740 q 564 728 551 740 q 576 696 576 715 q 564 663 576 676 q 532 650 551 650 q 499 663 513 650 q 486 696 486 676 z "},"P":{"ha":901,"x_min":76,"x_max":822,"o":"m 240 696 q 253 728 240 715 q 286 740 267 740 q 318 728 306 740 q 331 696 331 715 q 318 663 331 676 q 286 650 306 650 q 253 663 267 650 q 240 696 240 676 m 76 40 q 90 72 76 60 q 122 85 103 85 q 154 72 142 85 q 167 40 167 60 q 154 8 167 21 q 122 -6 142 -6 q 90 8 103 -6 q 76 40 76 21 m 568 204 q 581 236 568 224 q 614 249 594 249 q 646 236 633 249 q 658 204 658 224 q 646 172 658 185 q 614 158 633 158 q 581 172 594 158 q 568 204 568 185 m 404 204 q 417 236 404 224 q 450 249 431 249 q 482 236 469 249 q 494 204 494 224 q 482 172 494 185 q 450 158 469 158 q 417 172 431 158 q 404 204 404 185 m 240 204 q 253 236 240 224 q 286 249 267 249 q 318 236 306 249 q 331 204 331 224 q 318 172 331 185 q 286 158 306 158 q 253 172 267 158 q 240 204 240 185 m 76 204 q 90 236 76 224 q 122 249 103 249 q 154 236 142 249 q 167 204 167 224 q 154 172 167 185 q 122 158 142 158 q 90 172 103 158 q 76 204 76 185 m 732 368 q 745 400 732 388 q 778 413 758 413 q 810 400 797 413 q 822 368 822 388 q 810 335 822 349 q 778 322 797 322 q 745 335 758 322 q 732 368 732 349 m 76 368 q 90 400 76 388 q 122 413 103 413 q 154 400 142 413 q 167 368 167 388 q 154 335 167 349 q 122 322 142 322 q 90 335 103 322 q 76 368 76 349 m 732 532 q 745 564 732 551 q 778 576 758 576 q 810 564 797 576 q 822 532 822 551 q 810 499 822 513 q 778 486 797 486 q 745 499 758 486 q 732 532 732 513 m 76 532 q 90 564 76 551 q 122 576 103 576 q 154 564 142 576 q 167 532 167 551 q 154 499 167 513 q 122 486 142 486 q 90 499 103 486 q 76 532 76 513 m 568 696 q 581 728 568 715 q 614 740 594 740 q 646 728 633 740 q 658 696 658 715 q 646 663 658 676 q 614 650 633 650 q 581 663 594 650 q 568 696 568 676 m 404 696 q 417 728 404 715 q 450 740 431 740 q 482 728 469 740 q 494 696 494 715 q 482 663 494 676 q 450 650 469 650 q 417 663 431 650 q 404 696 404 676 z "},"Q":{"ha":901,"x_min":76,"x_max":904,"o":"m 322 696 q 335 728 322 715 q 368 740 349 740 q 400 728 388 740 q 413 696 413 715 q 400 663 413 676 q 368 650 388 650 q 335 663 349 650 q 322 696 322 676 m 814 -206 q 827 -174 814 -186 q 860 -161 840 -161 q 892 -174 879 -161 q 904 -206 904 -186 q 892 -238 904 -225 q 860 -251 879 -251 q 827 -238 840 -251 q 814 -206 814 -225 m 650 -42 q 663 -10 650 -22 q 696 3 676 3 q 728 -10 715 3 q 740 -42 740 -22 q 728 -74 740 -61 q 696 -87 715 -87 q 663 -74 676 -87 q 650 -42 650 -61 m 486 40 q 499 72 486 60 q 532 85 513 85 q 564 72 551 85 q 576 40 576 60 q 564 8 576 21 q 532 -6 551 -6 q 499 8 513 -6 q 486 40 486 21 m 322 40 q 335 72 322 60 q 368 85 349 85 q 400 72 388 85 q 413 40 413 60 q 400 8 413 21 q 368 -6 388 -6 q 335 8 349 -6 q 322 40 322 21 m 650 122 q 663 154 650 142 q 696 167 676 167 q 728 154 715 167 q 740 122 740 142 q 728 90 740 103 q 696 76 715 76 q 663 90 676 76 q 650 122 650 103 m 158 122 q 172 154 158 142 q 204 167 185 167 q 236 154 224 167 q 249 122 249 142 q 236 90 249 103 q 204 76 224 76 q 172 90 185 76 q 158 122 158 103 m 732 286 q 745 318 732 306 q 778 331 758 331 q 810 318 797 331 q 822 286 822 306 q 810 253 822 267 q 778 240 797 240 q 745 253 758 240 q 732 286 732 267 m 76 286 q 90 318 76 306 q 122 331 103 331 q 154 318 142 331 q 167 286 167 306 q 154 253 167 267 q 122 240 142 240 q 90 253 103 240 q 76 286 76 267 m 732 450 q 745 482 732 469 q 778 494 758 494 q 810 482 797 494 q 822 450 822 469 q 810 417 822 431 q 778 404 797 404 q 745 417 758 404 q 732 450 732 431 m 76 450 q 90 482 76 469 q 122 494 103 494 q 154 482 142 494 q 167 450 167 469 q 154 417 167 431 q 122 404 142 404 q 90 417 103 404 q 76 450 76 431 m 650 614 q 663 646 650 633 q 696 658 676 658 q 728 646 715 658 q 740 614 740 633 q 728 581 740 594 q 696 568 715 568 q 663 581 676 568 q 650 614 650 594 m 158 614 q 172 646 158 633 q 204 658 185 658 q 236 646 224 658 q 249 614 249 633 q 236 581 249 594 q 204 568 224 568 q 172 581 185 568 q 158 614 158 594 m 486 696 q 499 728 486 715 q 532 740 513 740 q 564 728 551 740 q 576 696 576 715 q 564 663 576 676 q 532 650 551 650 q 499 663 513 650 q 486 696 486 676 z "},"R":{"ha":901,"x_min":76,"x_max":822,"o":"m 240 696 q 253 728 240 715 q 286 740 267 740 q 318 728 306 740 q 331 696 331 715 q 318 663 331 676 q 286 650 306 650 q 253 663 267 650 q 240 696 240 676 m 732 40 q 745 72 732 60 q 778 85 758 85 q 810 72 797 85 q 822 40 822 60 q 810 8 822 21 q 778 -6 797 -6 q 745 8 758 -6 q 732 40 732 21 m 76 40 q 90 72 76 60 q 122 85 103 85 q 154 72 142 85 q 167 40 167 60 q 154 8 167 21 q 122 -6 142 -6 q 90 8 103 -6 q 76 40 76 21 m 568 204 q 581 236 568 224 q 614 249 594 249 q 646 236 633 249 q 658 204 658 224 q 646 172 658 185 q 614 158 633 158 q 581 172 594 158 q 568 204 568 185 m 404 204 q 417 236 404 224 q 450 249 431 249 q 482 236 469 249 q 494 204 494 224 q 482 172 494 185 q 450 158 469 158 q 417 172 431 158 q 404 204 404 185 m 240 204 q 253 236 240 224 q 286 249 267 249 q 318 236 306 249 q 331 204 331 224 q 318 172 331 185 q 286 158 306 158 q 253 172 267 158 q 240 204 240 185 m 76 204 q 90 236 76 224 q 122 249 103 249 q 154 236 142 249 q 167 204 167 224 q 154 172 167 185 q 122 158 142 158 q 90 172 103 158 q 76 204 76 185 m 732 368 q 745 400 732 388 q 778 413 758 413 q 810 400 797 413 q 822 368 822 388 q 810 335 822 349 q 778 322 797 322 q 745 335 758 322 q 732 368 732 349 m 76 368 q 90 400 76 388 q 122 413 103 413 q 154 400 142 413 q 167 368 167 388 q 154 335 167 349 q 122 322 142 322 q 90 335 103 322 q 76 368 76 349 m 732 532 q 745 564 732 551 q 778 576 758 576 q 810 564 797 576 q 822 532 822 551 q 810 499 822 513 q 778 486 797 486 q 745 499 758 486 q 732 532 732 513 m 76 532 q 90 564 76 551 q 122 576 103 576 q 154 564 142 576 q 167 532 167 551 q 154 499 167 513 q 122 486 142 486 q 90 499 103 486 q 76 532 76 513 m 568 696 q 581 728 568 715 q 614 740 594 740 q 646 728 633 740 q 658 696 658 715 q 646 663 658 676 q 614 650 633 650 q 581 663 594 650 q 568 696 568 676 m 404 696 q 417 728 404 715 q 450 740 431 740 q 482 728 469 740 q 494 696 494 715 q 482 663 494 676 q 450 650 469 650 q 417 663 431 650 q 404 696 404 676 z "},"S":{"ha":738,"x_min":76,"x_max":658,"o":"m 404 696 q 417 728 404 715 q 450 740 431 740 q 482 728 469 740 q 494 696 494 715 q 482 663 494 676 q 450 650 469 650 q 417 663 431 650 q 404 696 404 676 m 240 40 q 253 72 240 60 q 286 85 267 85 q 318 72 306 85 q 331 40 331 60 q 318 8 331 21 q 286 -6 306 -6 q 253 8 267 -6 q 240 40 240 21 m 76 40 q 90 72 76 60 q 122 85 103 85 q 154 72 142 85 q 167 40 167 60 q 154 8 167 21 q 122 -6 142 -6 q 90 8 103 -6 q 76 40 76 21 m 322 204 q 335 236 322 224 q 368 249 349 249 q 400 236 388 249 q 413 204 413 224 q 400 172 413 185 q 368 158 388 158 q 335 172 349 158 q 322 204 322 185 m 322 368 q 335 400 322 388 q 368 413 349 413 q 400 400 388 413 q 413 368 413 388 q 400 335 413 349 q 368 322 388 322 q 335 335 349 322 q 322 368 322 349 m 322 532 q 335 564 322 551 q 368 576 349 576 q 400 564 388 576 q 413 532 413 551 q 400 499 413 513 q 368 486 388 486 q 335 499 349 486 q 322 532 322 513 m 568 696 q 581 728 568 715 q 614 740 594 740 q 646 728 633 740 q 658 696 658 715 q 646 663 658 676 q 614 650 633 650 q 581 663 594 650 q 568 696 568 676 z "},"T":{"ha":738,"x_min":76,"x_max":658,"o":"m 76 696 q 90 728 76 715 q 122 740 103 740 q 154 728 142 740 q 167 696 167 715 q 154 663 167 676 q 122 650 142 650 q 90 663 103 650 q 76 696 76 676 m 322 40 q 335 72 322 60 q 368 85 349 85 q 400 72 388 85 q 413 40 413 60 q 400 8 413 21 q 368 -6 388 -6 q 335 8 349 -6 q 322 40 322 21 m 322 204 q 335 236 322 224 q 368 249 349 249 q 400 236 388 249 q 413 204 413 224 q 400 172 413 185 q 368 158 388 158 q 335 172 349 158 q 322 204 322 185 m 322 368 q 335 400 322 388 q 368 413 349 413 q 400 400 388 413 q 413 368 413 388 q 400 335 413 349 q 368 322 388 322 q 335 335 349 322 q 322 368 322 349 m 322 532 q 335 564 322 551 q 368 576 349 576 q 400 564 388 576 q 413 532 413 551 q 400 499 413 513 q 368 486 388 486 q 335 499 349 486 q 322 532 322 513 m 568 696 q 581 728 568 715 q 614 740 594 740 q 646 728 633 740 q 658 696 658 715 q 646 663 658 676 q 614 650 633 650 q 581 663 594 650 q 568 696 568 676 m 404 696 q 417 728 404 715 q 450 740 431 740 q 482 728 469 740 q 494 696 494 715 q 482 663 494 676 q 450 650 469 650 q 417 663 431 650 q 404 696 404 676 m 240 696 q 253 728 240 715 q 286 740 267 740 q 318 728 306 740 q 331 696 331 715 q 318 663 331 676 q 286 650 306 650 q 253 663 267 650 q 240 696 240 676 z "},"U":{"ha":901,"x_min":76,"x_max":822,"o":"m 76 696 q 90 728 76 715 q 122 740 103 740 q 154 728 142 740 q 167 696 167 715 q 154 663 167 676 q 122 650 142 650 q 90 663 103 650 q 76 696 76 676 m 568 40 q 581 72 568 60 q 614 85 594 85 q 646 72 633 85 q 658 40 658 60 q 646 8 658 21 q 614 -6 633 -6 q 581 8 594 -6 q 568 40 568 21 m 404 40 q 417 72 404 60 q 450 85 431 85 q 482 72 469 85 q 494 40 494 60 q 482 8 494 21 q 450 -6 469 -6 q 417 8 431 -6 q 404 40 404 21 m 240 40 q 253 72 240 60 q 286 85 267 85 q 318 72 306 85 q 331 40 331 60 q 318 8 331 21 q 286 -6 306 -6 q 253 8 267 -6 q 240 40 240 21 m 732 204 q 745 236 732 224 q 778 249 758 249 q 810 236 797 249 q 822 204 822 224 q 810 172 822 185 q 778 158 797 158 q 745 172 758 158 q 732 204 732 185 m 76 204 q 90 236 76 224 q 122 249 103 249 q 154 236 142 249 q 167 204 167 224 q 154 172 167 185 q 122 158 142 158 q 90 172 103 158 q 76 204 76 185 m 732 368 q 745 400 732 388 q 778 413 758 413 q 810 400 797 413 q 822 368 822 388 q 810 335 822 349 q 778 322 797 322 q 745 335 758 322 q 732 368 732 349 m 76 368 q 90 400 76 388 q 122 413 103 413 q 154 400 142 413 q 167 368 167 388 q 154 335 167 349 q 122 322 142 322 q 90 335 103 322 q 76 368 76 349 m 732 532 q 745 564 732 551 q 778 576 758 576 q 810 564 797 576 q 822 532 822 551 q 810 499 822 513 q 778 486 797 486 q 745 499 758 486 q 732 532 732 513 m 76 532 q 90 564 76 551 q 122 576 103 576 q 154 564 142 576 q 167 532 167 551 q 154 499 167 513 q 122 486 142 486 q 90 499 103 486 q 76 532 76 513 m 732 696 q 745 728 732 715 q 778 740 758 740 q 810 728 797 740 q 822 696 822 715 q 810 663 822 676 q 778 650 797 650 q 745 663 758 650 q 732 696 732 676 z "},"V":{"ha":901,"x_min":76,"x_max":822,"o":"m 76 696 q 90 728 76 715 q 122 740 103 740 q 154 728 142 740 q 167 696 167 715 q 154 663 167 676 q 122 650 142 650 q 90 663 103 650 q 76 696 76 676 m 404 40 q 417 72 404 60 q 450 85 431 85 q 482 72 469 85 q 494 40 494 60 q 482 8 494 21 q 450 -6 469 -6 q 417 8 431 -6 q 404 40 404 21 m 650 204 q 663 236 650 224 q 696 249 676 249 q 728 236 715 249 q 740 204 740 224 q 728 172 740 185 q 696 158 715 158 q 663 172 676 158 q 650 204 650 185 m 158 204 q 172 236 158 224 q 204 249 185 249 q 236 236 224 249 q 249 204 249 224 q 236 172 249 185 q 204 158 224 158 q 172 172 185 158 q 158 204 158 185 m 732 368 q 745 400 732 388 q 778 413 758 413 q 810 400 797 413 q 822 368 822 388 q 810 335 822 349 q 778 322 797 322 q 745 335 758 322 q 732 368 732 349 m 76 368 q 90 400 76 388 q 122 413 103 413 q 154 400 142 413 q 167 368 167 388 q 154 335 167 349 q 122 322 142 322 q 90 335 103 322 q 76 368 76 349 m 732 532 q 745 564 732 551 q 778 576 758 576 q 810 564 797 576 q 822 532 822 551 q 810 499 822 513 q 778 486 797 486 q 745 499 758 486 q 732 532 732 513 m 76 532 q 90 564 76 551 q 122 576 103 576 q 154 564 142 576 q 167 532 167 551 q 154 499 167 513 q 122 486 142 486 q 90 499 103 486 q 76 532 76 513 m 732 696 q 745 728 732 715 q 778 740 758 740 q 810 728 797 740 q 822 696 822 715 q 810 663 822 676 q 778 650 797 650 q 745 663 758 650 q 732 696 732 676 z "},"W":{"ha":1229,"x_min":76,"x_max":1150,"o":"m 76 696 q 90 728 76 715 q 122 740 103 740 q 154 728 142 740 q 167 696 167 715 q 154 663 167 676 q 122 650 142 650 q 90 663 103 650 q 76 696 76 676 m 896 40 q 909 72 896 60 q 942 85 922 85 q 974 72 961 85 q 986 40 986 60 q 974 8 986 21 q 942 -6 961 -6 q 909 8 922 -6 q 896 40 896 21 m 732 40 q 745 72 732 60 q 778 85 758 85 q 810 72 797 85 q 822 40 822 60 q 810 8 822 21 q 778 -6 797 -6 q 745 8 758 -6 q 732 40 732 21 m 404 40 q 417 72 404 60 q 450 85 431 85 q 482 72 469 85 q 494 40 494 60 q 482 8 494 21 q 450 -6 469 -6 q 417 8 431 -6 q 404 40 404 21 m 240 40 q 253 72 240 60 q 286 85 267 85 q 318 72 306 85 q 331 40 331 60 q 318 8 331 21 q 286 -6 306 -6 q 253 8 267 -6 q 240 40 240 21 m 1060 204 q 1073 236 1060 224 q 1106 249 1086 249 q 1138 236 1125 249 q 1150 204 1150 224 q 1138 172 1150 185 q 1106 158 1125 158 q 1073 172 1086 158 q 1060 204 1060 185 m 568 204 q 581 236 568 224 q 614 249 594 249 q 646 236 633 249 q 658 204 658 224 q 646 172 658 185 q 614 158 633 158 q 581 172 594 158 q 568 204 568 185 m 76 204 q 90 236 76 224 q 122 249 103 249 q 154 236 142 249 q 167 204 167 224 q 154 172 167 185 q 122 158 142 158 q 90 172 103 158 q 76 204 76 185 m 1060 368 q 1073 400 1060 388 q 1106 413 1086 413 q 1138 400 1125 413 q 1150 368 1150 388 q 1138 335 1150 349 q 1106 322 1125 322 q 1073 335 1086 322 q 1060 368 1060 349 m 568 368 q 581 400 568 388 q 614 413 594 413 q 646 400 633 413 q 658 368 658 388 q 646 335 658 349 q 614 322 633 322 q 581 335 594 322 q 568 368 568 349 m 76 368 q 90 400 76 388 q 122 413 103 413 q 154 400 142 413 q 167 368 167 388 q 154 335 167 349 q 122 322 142 322 q 90 335 103 322 q 76 368 76 349 m 1060 532 q 1073 564 1060 551 q 1106 576 1086 576 q 1138 564 1125 576 q 1150 532 1150 551 q 1138 499 1150 513 q 1106 486 1125 486 q 1073 499 1086 486 q 1060 532 1060 513 m 568 532 q 581 564 568 551 q 614 576 594 576 q 646 564 633 576 q 658 532 658 551 q 646 499 658 513 q 614 486 633 486 q 581 499 594 486 q 568 532 568 513 m 76 532 q 90 564 76 551 q 122 576 103 576 q 154 564 142 576 q 167 532 167 551 q 154 499 167 513 q 122 486 142 486 q 90 499 103 486 q 76 532 76 513 m 1060 696 q 1073 728 1060 715 q 1106 740 1086 740 q 1138 728 1125 740 q 1150 696 1150 715 q 1138 663 1150 676 q 1106 650 1125 650 q 1073 663 1086 650 q 1060 696 1060 676 m 568 696 q 581 728 568 715 q 614 740 594 740 q 646 728 633 740 q 658 696 658 715 q 646 663 658 676 q 614 650 633 650 q 581 663 594 650 q 568 696 568 676 z "},"X":{"ha":901,"x_min":76,"x_max":822,"o":"m 76 696 q 90 728 76 715 q 122 740 103 740 q 154 728 142 740 q 167 696 167 715 q 154 663 167 676 q 122 650 142 650 q 90 663 103 650 q 76 696 76 676 m 732 40 q 745 72 732 60 q 778 85 758 85 q 810 72 797 85 q 822 40 822 60 q 810 8 822 21 q 778 -6 797 -6 q 745 8 758 -6 q 732 40 732 21 m 76 40 q 90 72 76 60 q 122 85 103 85 q 154 72 142 85 q 167 40 167 60 q 154 8 167 21 q 122 -6 142 -6 q 90 8 103 -6 q 76 40 76 21 m 568 204 q 581 236 568 224 q 614 249 594 249 q 646 236 633 249 q 658 204 658 224 q 646 172 658 185 q 614 158 633 158 q 581 172 594 158 q 568 204 568 185 m 240 204 q 253 236 240 224 q 286 249 267 249 q 318 236 306 249 q 331 204 331 224 q 318 172 331 185 q 286 158 306 158 q 253 172 267 158 q 240 204 240 185 m 404 368 q 417 400 404 388 q 450 413 431 413 q 482 400 469 413 q 494 368 494 388 q 482 335 494 349 q 450 322 469 322 q 417 335 431 322 q 404 368 404 349 m 568 532 q 581 564 568 551 q 614 576 594 576 q 646 564 633 576 q 658 532 658 551 q 646 499 658 513 q 614 486 633 486 q 581 499 594 486 q 568 532 568 513 m 240 532 q 253 564 240 551 q 286 576 267 576 q 318 564 306 576 q 331 532 331 551 q 318 499 331 513 q 286 486 306 486 q 253 499 267 486 q 240 532 240 513 m 732 696 q 745 728 732 715 q 778 740 758 740 q 810 728 797 740 q 822 696 822 715 q 810 663 822 676 q 778 650 797 650 q 745 663 758 650 q 732 696 732 676 z "},"Y":{"ha":901,"x_min":76,"x_max":822,"o":"m 76 696 q 90 728 76 715 q 122 740 103 740 q 154 728 142 740 q 167 696 167 715 q 154 663 167 676 q 122 650 142 650 q 90 663 103 650 q 76 696 76 676 m 404 40 q 417 72 404 60 q 450 85 431 85 q 482 72 469 85 q 494 40 494 60 q 482 8 494 21 q 450 -6 469 -6 q 417 8 431 -6 q 404 40 404 21 m 404 204 q 417 236 404 224 q 450 249 431 249 q 482 236 469 249 q 494 204 494 224 q 482 172 494 185 q 450 158 469 158 q 417 172 431 158 q 404 204 404 185 m 404 368 q 417 400 404 388 q 450 413 431 413 q 482 400 469 413 q 494 368 494 388 q 482 335 494 349 q 450 322 469 322 q 417 335 431 322 q 404 368 404 349 m 568 532 q 581 564 568 551 q 614 576 594 576 q 646 564 633 576 q 658 532 658 551 q 646 499 658 513 q 614 486 633 486 q 581 499 594 486 q 568 532 568 513 m 240 532 q 253 564 240 551 q 286 576 267 576 q 318 564 306 576 q 331 532 331 551 q 318 499 331 513 q 286 486 306 486 q 253 499 267 486 q 240 532 240 513 m 732 696 q 745 728 732 715 q 778 740 758 740 q 810 728 797 740 q 822 696 822 715 q 810 663 822 676 q 778 650 797 650 q 745 663 758 650 q 732 696 732 676 z "},"Z":{"ha":738,"x_min":76,"x_max":658,"o":"m 76 696 q 90 728 76 715 q 122 740 103 740 q 154 728 142 740 q 167 696 167 715 q 154 663 167 676 q 122 650 142 650 q 90 663 103 650 q 76 696 76 676 m 568 40 q 581 72 568 60 q 614 85 594 85 q 646 72 633 85 q 658 40 658 60 q 646 8 658 21 q 614 -6 633 -6 q 581 8 594 -6 q 568 40 568 21 m 404 40 q 417 72 404 60 q 450 85 431 85 q 482 72 469 85 q 494 40 494 60 q 482 8 494 21 q 450 -6 469 -6 q 417 8 431 -6 q 404 40 404 21 m 240 40 q 253 72 240 60 q 286 85 267 85 q 318 72 306 85 q 331 40 331 60 q 318 8 331 21 q 286 -6 306 -6 q 253 8 267 -6 q 240 40 240 21 m 76 40 q 90 72 76 60 q 122 85 103 85 q 154 72 142 85 q 167 40 167 60 q 154 8 167 21 q 122 -6 142 -6 q 90 8 103 -6 q 76 40 76 21 m 240 286 q 253 318 240 306 q 286 331 267 331 q 318 318 306 331 q 331 286 331 306 q 318 253 331 267 q 286 240 306 240 q 253 253 267 240 q 240 286 240 267 m 404 450 q 417 482 404 469 q 450 494 431 494 q 482 482 469 494 q 494 450 494 469 q 482 417 494 431 q 450 404 469 404 q 417 417 431 404 q 404 450 404 431 m 568 696 q 581 728 568 715 q 614 740 594 740 q 646 728 633 740 q 658 696 658 715 q 646 663 658 676 q 614 650 633 650 q 581 663 594 650 q 568 696 568 676 m 404 696 q 417 728 404 715 q 450 740 431 740 q 482 728 469 740 q 494 696 494 715 q 482 663 494 676 q 450 650 469 650 q 417 663 431 650 q 404 696 404 676 m 240 696 q 253 728 240 715 q 286 740 267 740 q 318 728 306 740 q 331 696 331 715 q 318 663 331 676 q 286 650 306 650 q 253 663 267 650 q 240 696 240 676 z "},"[":{"ha":410,"x_min":76,"x_max":331,"o":"m 76 696 q 90 728 76 715 q 122 740 103 740 q 154 728 142 740 q 167 696 167 715 q 154 663 167 676 q 122 650 142 650 q 90 663 103 650 q 76 696 76 676 m 240 40 q 253 72 240 60 q 286 85 267 85 q 318 72 306 85 q 331 40 331 60 q 318 8 331 21 q 286 -6 306 -6 q 253 8 267 -6 q 240 40 240 21 m 76 40 q 90 72 76 60 q 122 85 103 85 q 154 72 142 85 q 167 40 167 60 q 154 8 167 21 q 122 -6 142 -6 q 90 8 103 -6 q 76 40 76 21 m 76 204 q 90 236 76 224 q 122 249 103 249 q 154 236 142 249 q 167 204 167 224 q 154 172 167 185 q 122 158 142 158 q 90 172 103 158 q 76 204 76 185 m 76 368 q 90 400 76 388 q 122 413 103 413 q 154 400 142 413 q 167 368 167 388 q 154 335 167 349 q 122 322 142 322 q 90 335 103 322 q 76 368 76 349 m 76 532 q 90 564 76 551 q 122 576 103 576 q 154 564 142 576 q 167 532 167 551 q 154 499 167 513 q 122 486 142 486 q 90 499 103 486 q 76 532 76 513 m 240 696 q 253 728 240 715 q 286 740 267 740 q 318 728 306 740 q 331 696 331 715 q 318 663 331 676 q 286 650 306 650 q 253 663 267 650 q 240 696 240 676 z "},"\\":{"ha":574,"x_min":76,"x_max":494,"o":"m 76 696 q 90 728 76 715 q 122 740 103 740 q 154 728 142 740 q 167 696 167 715 q 154 663 167 676 q 122 650 142 650 q 90 663 103 650 q 76 696 76 676 m 404 40 q 417 72 404 60 q 450 85 431 85 q 482 72 469 85 q 494 40 494 60 q 482 8 494 21 q 450 -6 469 -6 q 417 8 431 -6 q 404 40 404 21 m 322 204 q 335 236 322 224 q 368 249 349 249 q 400 236 388 249 q 413 204 413 224 q 400 172 413 185 q 368 158 388 158 q 335 172 349 158 q 322 204 322 185 m 240 368 q 253 400 240 388 q 286 413 267 413 q 318 400 306 413 q 331 368 331 388 q 318 335 331 349 q 286 322 306 322 q 253 335 267 322 q 240 368 240 349 m 158 532 q 172 564 158 551 q 204 576 185 576 q 236 564 224 576 q 249 532 249 551 q 236 499 249 513 q 204 486 224 486 q 172 499 185 486 q 158 532 158 513 z "},"]":{"ha":410,"x_min":76,"x_max":331,"o":"m 76 696 q 90 728 76 715 q 122 740 103 740 q 154 728 142 740 q 167 696 167 715 q 154 663 167 676 q 122 650 142 650 q 90 663 103 650 q 76 696 76 676 m 240 40 q 253 72 240 60 q 286 85 267 85 q 318 72 306 85 q 331 40 331 60 q 318 8 331 21 q 286 -6 306 -6 q 253 8 267 -6 q 240 40 240 21 m 76 40 q 90 72 76 60 q 122 85 103 85 q 154 72 142 85 q 167 40 167 60 q 154 8 167 21 q 122 -6 142 -6 q 90 8 103 -6 q 76 40 76 21 m 240 204 q 253 236 240 224 q 286 249 267 249 q 318 236 306 249 q 331 204 331 224 q 318 172 331 185 q 286 158 306 158 q 253 172 267 158 q 240 204 240 185 m 240 368 q 253 400 240 388 q 286 413 267 413 q 318 400 306 413 q 331 368 331 388 q 318 335 331 349 q 286 322 306 322 q 253 335 267 322 q 240 368 240 349 m 240 532 q 253 564 240 551 q 286 576 267 576 q 318 564 306 576 q 331 532 331 551 q 318 499 331 513 q 286 486 306 486 q 253 499 267 486 q 240 532 240 513 m 240 696 q 253 728 240 715 q 286 740 267 740 q 318 728 306 740 q 331 696 331 715 q 318 663 331 676 q 286 650 306 650 q 253 663 267 650 q 240 696 240 676 z "},"^":{"ha":901,"x_min":76,"x_max":822,"o":"m 404 696 q 417 728 404 715 q 450 740 431 740 q 482 728 469 740 q 494 696 494 715 q 482 663 494 676 q 450 650 469 650 q 417 663 431 650 q 404 696 404 676 m 732 368 q 745 400 732 388 q 778 413 758 413 q 810 400 797 413 q 822 368 822 388 q 810 335 822 349 q 778 322 797 322 q 745 335 758 322 q 732 368 732 349 m 76 368 q 90 400 76 388 q 122 413 103 413 q 154 400 142 413 q 167 368 167 388 q 154 335 167 349 q 122 322 142 322 q 90 335 103 322 q 76 368 76 349 m 568 532 q 581 564 568 551 q 614 576 594 576 q 646 564 633 576 q 658 532 658 551 q 646 499 658 513 q 614 486 633 486 q 581 499 594 486 q 568 532 568 513 m 240 532 q 253 564 240 551 q 286 576 267 576 q 318 564 306 576 q 331 532 331 551 q 318 499 331 513 q 286 486 306 486 q 253 499 267 486 q 240 532 240 513 z "},"_":{"ha":656,"x_min":-6,"x_max":576,"o":"m -6 -124 q 8 -92 -6 -104 q 40 -79 21 -79 q 72 -92 60 -79 q 85 -124 85 -104 q 72 -156 85 -143 q 40 -169 60 -169 q 8 -156 21 -169 q -6 -124 -6 -143 m 486 -124 q 499 -92 486 -104 q 532 -79 513 -79 q 564 -92 551 -79 q 576 -124 576 -104 q 564 -156 576 -143 q 532 -169 551 -169 q 499 -156 513 -169 q 486 -124 486 -143 m 322 -124 q 335 -92 322 -104 q 368 -79 349 -79 q 400 -92 388 -79 q 413 -124 413 -104 q 400 -156 413 -143 q 368 -169 388 -169 q 335 -156 349 -169 q 322 -124 322 -143 m 158 -124 q 172 -92 158 -104 q 204 -79 185 -79 q 236 -92 224 -79 q 249 -124 249 -104 q 236 -156 249 -143 q 204 -169 224 -169 q 172 -156 185 -169 q 158 -124 158 -143 z "},"`":{"ha":410,"x_min":76,"x_max":331,"o":"m 76 696 q 90 728 76 715 q 122 740 103 740 q 154 728 142 740 q 167 696 167 715 q 154 663 167 676 q 122 650 142 650 q 90 663 103 650 q 76 696 76 676 m 240 614 q 253 646 240 633 q 286 658 267 658 q 318 646 306 658 q 331 614 331 633 q 318 581 331 594 q 286 568 306 568 q 253 581 267 568 q 240 614 240 594 z "},"a":{"ha":983,"x_min":76,"x_max":904,"o":"m 322 696 q 335 728 322 715 q 368 740 349 740 q 400 728 388 740 q 413 696 413 715 q 400 663 413 676 q 368 650 388 650 q 335 663 349 650 q 322 696 322 676 m 814 40 q 827 72 814 60 q 860 85 840 85 q 892 72 879 85 q 904 40 904 60 q 892 8 904 21 q 860 -6 879 -6 q 827 8 840 -6 q 814 40 814 21 m 486 40 q 499 72 486 60 q 532 85 513 85 q 564 72 551 85 q 576 40 576 60 q 564 8 576 21 q 532 -6 551 -6 q 499 8 513 -6 q 486 40 486 21 m 322 40 q 335 72 322 60 q 368 85 349 85 q 400 72 388 85 q 413 40 413 60 q 400 8 413 21 q 368 -6 388 -6 q 335 8 349 -6 q 322 40 322 21 m 158 122 q 172 154 158 142 q 204 167 185 167 q 236 154 224 167 q 249 122 249 142 q 236 90 249 103 q 204 76 224 76 q 172 90 185 76 q 158 122 158 103 m 732 204 q 745 236 732 224 q 778 249 758 249 q 810 236 797 249 q 822 204 822 224 q 810 172 822 185 q 778 158 797 158 q 745 172 758 158 q 732 204 732 185 m 76 286 q 90 318 76 306 q 122 331 103 331 q 154 318 142 331 q 167 286 167 306 q 154 253 167 267 q 122 240 142 240 q 90 253 103 240 q 76 286 76 267 m 732 368 q 745 400 732 388 q 778 413 758 413 q 810 400 797 413 q 822 368 822 388 q 810 335 822 349 q 778 322 797 322 q 745 335 758 322 q 732 368 732 349 m 76 450 q 90 482 76 469 q 122 494 103 494 q 154 482 142 494 q 167 450 167 469 q 154 417 167 431 q 122 404 142 404 q 90 417 103 404 q 76 450 76 431 m 732 532 q 745 564 732 551 q 778 576 758 576 q 810 564 797 576 q 822 532 822 551 q 810 499 822 513 q 778 486 797 486 q 745 499 758 486 q 732 532 732 513 m 158 614 q 172 646 158 633 q 204 658 185 658 q 236 646 224 658 q 249 614 249 633 q 236 581 249 594 q 204 568 224 568 q 172 581 185 568 q 158 614 158 594 m 650 696 q 663 728 650 715 q 696 740 676 740 q 728 728 715 740 q 740 696 740 715 q 728 663 740 676 q 696 650 715 650 q 663 663 676 650 q 650 696 650 676 m 486 696 q 499 728 486 715 q 532 740 513 740 q 564 728 551 740 q 576 696 576 715 q 564 663 576 676 q 532 650 551 650 q 499 663 513 650 q 486 696 486 676 z "},"b":{"ha":936,"x_min":29,"x_max":857,"o":"m 111 942 q 124 974 111 961 q 157 986 138 986 q 189 974 176 986 q 201 942 201 961 q 189 909 201 922 q 157 896 176 896 q 124 909 138 896 q 111 942 111 922 m 521 40 q 534 72 521 60 q 567 85 547 85 q 599 72 586 85 q 611 40 611 60 q 599 8 611 21 q 567 -6 586 -6 q 534 8 547 -6 q 521 40 521 21 m 357 40 q 370 72 357 60 q 403 85 383 85 q 435 72 422 85 q 447 40 447 60 q 435 8 447 21 q 403 -6 422 -6 q 370 8 383 -6 q 357 40 357 21 m 29 40 q 42 72 29 60 q 75 85 56 85 q 107 72 94 85 q 119 40 119 60 q 107 8 119 21 q 75 -6 94 -6 q 42 8 56 -6 q 29 40 29 21 m 685 122 q 698 154 685 142 q 731 167 711 167 q 763 154 750 167 q 775 122 775 142 q 763 90 775 103 q 731 76 750 76 q 698 90 711 76 q 685 122 685 103 m 193 122 q 206 154 193 142 q 239 167 219 167 q 271 154 258 167 q 283 122 283 142 q 271 90 283 103 q 239 76 258 76 q 206 90 219 76 q 193 122 193 103 m 767 286 q 780 318 767 306 q 813 331 793 331 q 844 318 832 331 q 857 286 857 306 q 844 253 857 267 q 813 240 832 240 q 780 253 793 240 q 767 286 767 267 m 111 286 q 124 318 111 306 q 157 331 138 331 q 189 318 176 331 q 201 286 201 306 q 189 253 201 267 q 157 240 176 240 q 124 253 138 240 q 111 286 111 267 m 767 450 q 780 482 767 469 q 813 494 793 494 q 844 482 832 494 q 857 450 857 469 q 844 417 857 431 q 813 404 832 404 q 780 417 793 404 q 767 450 767 431 m 111 450 q 124 482 111 469 q 157 494 138 494 q 189 482 176 494 q 201 450 201 469 q 189 417 201 431 q 157 404 176 404 q 124 417 138 404 q 111 450 111 431 m 685 614 q 698 646 685 633 q 731 658 711 658 q 763 646 750 658 q 775 614 775 633 q 763 581 775 594 q 731 568 750 568 q 698 581 711 568 q 685 614 685 594 m 193 614 q 206 646 193 633 q 239 658 219 658 q 271 646 258 658 q 283 614 283 633 q 271 581 283 594 q 239 568 258 568 q 206 581 219 568 q 193 614 193 594 m 521 696 q 534 728 521 715 q 567 740 547 740 q 599 728 586 740 q 611 696 611 715 q 599 663 611 676 q 567 650 586 650 q 534 663 547 650 q 521 696 521 676 m 357 696 q 370 728 357 715 q 403 740 383 740 q 435 728 422 740 q 447 696 447 715 q 435 663 447 676 q 403 650 422 650 q 370 663 383 650 q 357 696 357 676 m 111 778 q 124 810 111 797 q 157 822 138 822 q 189 810 176 822 q 201 778 201 797 q 189 745 201 758 q 157 732 176 732 q 124 745 138 732 q 111 778 111 758 z "},"c":{"ha":819,"x_min":76,"x_max":740,"o":"m 322 696 q 335 728 322 715 q 368 740 349 740 q 400 728 388 740 q 413 696 413 715 q 400 663 413 676 q 368 650 388 650 q 335 663 349 650 q 322 696 322 676 m 486 40 q 499 72 486 60 q 532 85 513 85 q 564 72 551 85 q 576 40 576 60 q 564 8 576 21 q 532 -6 551 -6 q 499 8 513 -6 q 486 40 486 21 m 322 40 q 335 72 322 60 q 368 85 349 85 q 400 72 388 85 q 413 40 413 60 q 400 8 413 21 q 368 -6 388 -6 q 335 8 349 -6 q 322 40 322 21 m 650 122 q 663 154 650 142 q 696 167 676 167 q 728 154 715 167 q 740 122 740 142 q 728 90 740 103 q 696 76 715 76 q 663 90 676 76 q 650 122 650 103 m 158 122 q 172 154 158 142 q 204 167 185 167 q 236 154 224 167 q 249 122 249 142 q 236 90 249 103 q 204 76 224 76 q 172 90 185 76 q 158 122 158 103 m 76 286 q 90 318 76 306 q 122 331 103 331 q 154 318 142 331 q 167 286 167 306 q 154 253 167 267 q 122 240 142 240 q 90 253 103 240 q 76 286 76 267 m 76 450 q 90 482 76 469 q 122 494 103 494 q 154 482 142 494 q 167 450 167 469 q 154 417 167 431 q 122 404 142 404 q 90 417 103 404 q 76 450 76 431 m 650 614 q 663 646 650 633 q 696 658 676 658 q 728 646 715 658 q 740 614 740 633 q 728 581 740 594 q 696 568 715 568 q 663 581 676 568 q 650 614 650 594 m 158 614 q 172 646 158 633 q 204 658 185 658 q 236 646 224 658 q 249 614 249 633 q 236 581 249 594 q 204 568 224 568 q 172 581 185 568 q 158 614 158 594 m 486 696 q 499 728 486 715 q 532 740 513 740 q 564 728 551 740 q 576 696 576 715 q 564 663 576 676 q 532 650 551 650 q 499 663 513 650 q 486 696 486 676 z "},"d":{"ha":983,"x_min":76,"x_max":904,"o":"m 732 942 q 745 974 732 961 q 778 986 758 986 q 810 974 797 986 q 822 942 822 961 q 810 909 822 922 q 778 896 797 896 q 745 909 758 896 q 732 942 732 922 m 814 40 q 827 72 814 60 q 860 85 840 85 q 892 72 879 85 q 904 40 904 60 q 892 8 904 21 q 860 -6 879 -6 q 827 8 840 -6 q 814 40 814 21 m 486 40 q 499 72 486 60 q 532 85 513 85 q 564 72 551 85 q 576 40 576 60 q 564 8 576 21 q 532 -6 551 -6 q 499 8 513 -6 q 486 40 486 21 m 322 40 q 335 72 322 60 q 368 85 349 85 q 400 72 388 85 q 413 40 413 60 q 400 8 413 21 q 368 -6 388 -6 q 335 8 349 -6 q 322 40 322 21 m 650 122 q 663 154 650 142 q 696 167 676 167 q 728 154 715 167 q 740 122 740 142 q 728 90 740 103 q 696 76 715 76 q 663 90 676 76 q 650 122 650 103 m 158 122 q 172 154 158 142 q 204 167 185 167 q 236 154 224 167 q 249 122 249 142 q 236 90 249 103 q 204 76 224 76 q 172 90 185 76 q 158 122 158 103 m 732 286 q 745 318 732 306 q 778 331 758 331 q 810 318 797 331 q 822 286 822 306 q 810 253 822 267 q 778 240 797 240 q 745 253 758 240 q 732 286 732 267 m 76 286 q 90 318 76 306 q 122 331 103 331 q 154 318 142 331 q 167 286 167 306 q 154 253 167 267 q 122 240 142 240 q 90 253 103 240 q 76 286 76 267 m 732 450 q 745 482 732 469 q 778 494 758 494 q 810 482 797 494 q 822 450 822 469 q 810 417 822 431 q 778 404 797 404 q 745 417 758 404 q 732 450 732 431 m 76 450 q 90 482 76 469 q 122 494 103 494 q 154 482 142 494 q 167 450 167 469 q 154 417 167 431 q 122 404 142 404 q 90 417 103 404 q 76 450 76 431 m 650 614 q 663 646 650 633 q 696 658 676 658 q 728 646 715 658 q 740 614 740 633 q 728 581 740 594 q 696 568 715 568 q 663 581 676 568 q 650 614 650 594 m 158 614 q 172 646 158 633 q 204 658 185 658 q 236 646 224 658 q 249 614 249 633 q 236 581 249 594 q 204 568 224 568 q 172 581 185 568 q 158 614 158 594 m 486 696 q 499 728 486 715 q 532 740 513 740 q 564 728 551 740 q 576 696 576 715 q 564 663 576 676 q 532 650 551 650 q 499 663 513 650 q 486 696 486 676 m 322 696 q 335 728 322 715 q 368 740 349 740 q 400 728 388 740 q 413 696 413 715 q 400 663 413 676 q 368 650 388 650 q 335 663 349 650 q 322 696 322 676 m 732 778 q 745 810 732 797 q 778 822 758 822 q 810 810 797 822 q 822 778 822 797 q 810 745 822 758 q 778 732 797 732 q 745 745 758 732 q 732 778 732 758 z "},"e":{"ha":901,"x_min":76,"x_max":822,"o":"m 322 696 q 335 728 322 715 q 368 740 349 740 q 400 728 388 740 q 413 696 413 715 q 400 663 413 676 q 368 650 388 650 q 335 663 349 650 q 322 696 322 676 m 486 40 q 499 72 486 60 q 532 85 513 85 q 564 72 551 85 q 576 40 576 60 q 564 8 576 21 q 532 -6 551 -6 q 499 8 513 -6 q 486 40 486 21 m 322 40 q 335 72 322 60 q 368 85 349 85 q 400 72 388 85 q 413 40 413 60 q 400 8 413 21 q 368 -6 388 -6 q 335 8 349 -6 q 322 40 322 21 m 650 122 q 663 154 650 142 q 696 167 676 167 q 728 154 715 167 q 740 122 740 142 q 728 90 740 103 q 696 76 715 76 q 663 90 676 76 q 650 122 650 103 m 158 122 q 172 154 158 142 q 204 167 185 167 q 236 154 224 167 q 249 122 249 142 q 236 90 249 103 q 204 76 224 76 q 172 90 185 76 q 158 122 158 103 m 76 286 q 90 318 76 306 q 122 331 103 331 q 154 318 142 331 q 167 286 167 306 q 154 253 167 267 q 122 240 142 240 q 90 253 103 240 q 76 286 76 267 m 568 368 q 581 400 568 388 q 614 413 594 413 q 646 400 633 413 q 658 368 658 388 q 646 335 658 349 q 614 322 633 322 q 581 335 594 322 q 568 368 568 349 m 404 368 q 417 400 404 388 q 450 413 431 413 q 482 400 469 413 q 494 368 494 388 q 482 335 494 349 q 450 322 469 322 q 417 335 431 322 q 404 368 404 349 m 240 368 q 253 400 240 388 q 286 413 267 413 q 318 400 306 413 q 331 368 331 388 q 318 335 331 349 q 286 322 306 322 q 253 335 267 322 q 240 368 240 349 m 732 450 q 745 482 732 469 q 778 494 758 494 q 810 482 797 494 q 822 450 822 469 q 810 417 822 431 q 778 404 797 404 q 745 417 758 404 q 732 450 732 431 m 76 450 q 90 482 76 469 q 122 494 103 494 q 154 482 142 494 q 167 450 167 469 q 154 417 167 431 q 122 404 142 404 q 90 417 103 404 q 76 450 76 431 m 650 614 q 663 646 650 633 q 696 658 676 658 q 728 646 715 658 q 740 614 740 633 q 728 581 740 594 q 696 568 715 568 q 663 581 676 568 q 650 614 650 594 m 158 614 q 172 646 158 633 q 204 658 185 658 q 236 646 224 658 q 249 614 249 633 q 236 581 249 594 q 204 568 224 568 q 172 581 185 568 q 158 614 158 594 m 486 696 q 499 728 486 715 q 532 740 513 740 q 564 728 551 740 q 576 696 576 715 q 564 663 576 676 q 532 650 551 650 q 499 663 513 650 q 486 696 486 676 z "},"f":{"ha":492,"x_min":76,"x_max":413,"o":"m 322 942 q 335 974 322 961 q 368 986 349 986 q 400 974 388 986 q 413 942 413 961 q 400 909 413 922 q 368 896 388 896 q 335 909 349 896 q 322 942 322 922 m 76 -124 q 90 -92 76 -104 q 122 -79 103 -79 q 154 -92 142 -79 q 167 -124 167 -104 q 154 -156 167 -143 q 122 -169 142 -169 q 90 -156 103 -169 q 76 -124 76 -143 m 158 40 q 172 72 158 60 q 204 85 185 85 q 236 72 224 85 q 249 40 249 60 q 236 8 249 21 q 204 -6 224 -6 q 172 8 185 -6 q 158 40 158 21 m 158 204 q 172 236 158 224 q 204 249 185 249 q 236 236 224 249 q 249 204 249 224 q 236 172 249 185 q 204 158 224 158 q 172 172 185 158 q 158 204 158 185 m 158 368 q 172 400 158 388 q 204 413 185 413 q 236 400 224 413 q 249 368 249 388 q 236 335 249 349 q 204 322 224 322 q 172 335 185 322 q 158 368 158 349 m 158 532 q 172 564 158 551 q 204 576 185 576 q 236 564 224 576 q 249 532 249 551 q 236 499 249 513 q 204 486 224 486 q 172 499 185 486 q 158 532 158 513 m 322 696 q 335 728 322 715 q 368 740 349 740 q 400 728 388 740 q 413 696 413 715 q 400 663 413 676 q 368 650 388 650 q 335 663 349 650 q 322 696 322 676 m 158 696 q 172 728 158 715 q 204 740 185 740 q 236 728 224 740 q 249 696 249 715 q 236 663 249 676 q 204 650 224 650 q 172 663 185 650 q 158 696 158 676 m 158 860 q 172 892 158 879 q 204 904 185 904 q 236 892 224 904 q 249 860 249 879 q 236 827 249 840 q 204 814 224 814 q 172 827 185 814 q 158 860 158 840 z "},"g":{"ha":901,"x_min":76,"x_max":822,"o":"m 732 778 q 745 810 732 797 q 778 822 758 822 q 810 810 797 822 q 822 778 822 797 q 810 745 822 758 q 778 732 797 732 q 745 745 758 732 q 732 778 732 758 m 568 -206 q 581 -174 568 -186 q 614 -161 594 -161 q 646 -174 633 -161 q 658 -206 658 -186 q 646 -238 658 -225 q 614 -251 633 -251 q 581 -238 594 -251 q 568 -206 568 -225 m 404 -206 q 417 -174 404 -186 q 450 -161 431 -161 q 482 -174 469 -161 q 494 -206 494 -186 q 482 -238 494 -225 q 450 -251 469 -251 q 417 -238 431 -251 q 404 -206 404 -225 m 240 -206 q 253 -174 240 -186 q 286 -161 267 -161 q 318 -174 306 -161 q 331 -206 331 -186 q 318 -238 331 -225 q 286 -251 306 -251 q 253 -238 267 -251 q 240 -206 240 -225 m 732 -42 q 745 -10 732 -22 q 778 3 758 3 q 810 -10 797 3 q 822 -42 822 -22 q 810 -74 822 -61 q 778 -87 797 -87 q 745 -74 758 -87 q 732 -42 732 -61 m 486 40 q 499 72 486 60 q 532 85 513 85 q 564 72 551 85 q 576 40 576 60 q 564 8 576 21 q 532 -6 551 -6 q 499 8 513 -6 q 486 40 486 21 m 322 40 q 335 72 322 60 q 368 85 349 85 q 400 72 388 85 q 413 40 413 60 q 400 8 413 21 q 368 -6 388 -6 q 335 8 349 -6 q 322 40 322 21 m 732 122 q 745 154 732 142 q 778 167 758 167 q 810 154 797 167 q 822 122 822 142 q 810 90 822 103 q 778 76 797 76 q 745 90 758 76 q 732 122 732 103 m 158 122 q 172 154 158 142 q 204 167 185 167 q 236 154 224 167 q 249 122 249 142 q 236 90 249 103 q 204 76 224 76 q 172 90 185 76 q 158 122 158 103 m 732 286 q 745 318 732 306 q 778 331 758 331 q 810 318 797 331 q 822 286 822 306 q 810 253 822 267 q 778 240 797 240 q 745 253 758 240 q 732 286 732 267 m 76 286 q 90 318 76 306 q 122 331 103 331 q 154 318 142 331 q 167 286 167 306 q 154 253 167 267 q 122 240 142 240 q 90 253 103 240 q 76 286 76 267 m 732 450 q 745 482 732 469 q 778 494 758 494 q 810 482 797 494 q 822 450 822 469 q 810 417 822 431 q 778 404 797 404 q 745 417 758 404 q 732 450 732 431 m 76 450 q 90 482 76 469 q 122 494 103 494 q 154 482 142 494 q 167 450 167 469 q 154 417 167 431 q 122 404 142 404 q 90 417 103 404 q 76 450 76 431 m 650 614 q 663 646 650 633 q 696 658 676 658 q 728 646 715 658 q 740 614 740 633 q 728 581 740 594 q 696 568 715 568 q 663 581 676 568 q 650 614 650 594 m 158 614 q 172 646 158 633 q 204 658 185 658 q 236 646 224 658 q 249 614 249 633 q 236 581 249 594 q 204 568 224 568 q 172 581 185 568 q 158 614 158 594 m 486 696 q 499 728 486 715 q 532 740 513 740 q 564 728 551 740 q 576 696 576 715 q 564 663 576 676 q 532 650 551 650 q 499 663 513 650 q 486 696 486 676 m 322 696 q 335 728 322 715 q 368 740 349 740 q 400 728 388 740 q 413 696 413 715 q 400 663 413 676 q 368 650 388 650 q 335 663 349 650 q 322 696 322 676 z "},"h":{"ha":901,"x_min":76,"x_max":822,"o":"m 76 942 q 90 974 76 961 q 122 986 103 986 q 154 974 142 986 q 167 942 167 961 q 154 909 167 922 q 122 896 142 896 q 90 909 103 896 q 76 942 76 922 m 732 40 q 745 72 732 60 q 778 85 758 85 q 810 72 797 85 q 822 40 822 60 q 810 8 822 21 q 778 -6 797 -6 q 745 8 758 -6 q 732 40 732 21 m 76 40 q 90 72 76 60 q 122 85 103 85 q 154 72 142 85 q 167 40 167 60 q 154 8 167 21 q 122 -6 142 -6 q 90 8 103 -6 q 76 40 76 21 m 732 204 q 745 236 732 224 q 778 249 758 249 q 810 236 797 249 q 822 204 822 224 q 810 172 822 185 q 778 158 797 158 q 745 172 758 158 q 732 204 732 185 m 76 204 q 90 236 76 224 q 122 249 103 249 q 154 236 142 249 q 167 204 167 224 q 154 172 167 185 q 122 158 142 158 q 90 172 103 158 q 76 204 76 185 m 732 368 q 745 400 732 388 q 778 413 758 413 q 810 400 797 413 q 822 368 822 388 q 810 335 822 349 q 778 322 797 322 q 745 335 758 322 q 732 368 732 349 m 76 368 q 90 400 76 388 q 122 413 103 413 q 154 400 142 413 q 167 368 167 388 q 154 335 167 349 q 122 322 142 322 q 90 335 103 322 q 76 368 76 349 m 732 532 q 745 564 732 551 q 778 576 758 576 q 810 564 797 576 q 822 532 822 551 q 810 499 822 513 q 778 486 797 486 q 745 499 758 486 q 732 532 732 513 m 76 532 q 90 564 76 551 q 122 576 103 576 q 154 564 142 576 q 167 532 167 551 q 154 499 167 513 q 122 486 142 486 q 90 499 103 486 q 76 532 76 513 m 568 696 q 581 728 568 715 q 614 740 594 740 q 646 728 633 740 q 658 696 658 715 q 646 663 658 676 q 614 650 633 650 q 581 663 594 650 q 568 696 568 676 m 404 696 q 417 728 404 715 q 450 740 431 740 q 482 728 469 740 q 494 696 494 715 q 482 663 494 676 q 450 650 469 650 q 417 663 431 650 q 404 696 404 676 m 240 696 q 253 728 240 715 q 286 740 267 740 q 318 728 306 740 q 331 696 331 715 q 318 663 331 676 q 286 650 306 650 q 253 663 267 650 q 240 696 240 676 m 76 778 q 90 810 76 797 q 122 822 103 822 q 154 810 142 822 q 167 778 167 797 q 154 745 167 758 q 122 732 142 732 q 90 745 103 732 q 76 778 76 758 z "},"i":{"ha":246,"x_min":76,"x_max":167,"o":"m 76 942 q 90 974 76 961 q 122 986 103 986 q 154 974 142 986 q 167 942 167 961 q 154 909 167 922 q 122 896 142 896 q 90 909 103 896 q 76 942 76 922 m 76 40 q 90 72 76 60 q 122 85 103 85 q 154 72 142 85 q 167 40 167 60 q 154 8 167 21 q 122 -6 142 -6 q 90 8 103 -6 q 76 40 76 21 m 76 204 q 90 236 76 224 q 122 249 103 249 q 154 236 142 249 q 167 204 167 224 q 154 172 167 185 q 122 158 142 158 q 90 172 103 158 q 76 204 76 185 m 76 368 q 90 400 76 388 q 122 413 103 413 q 154 400 142 413 q 167 368 167 388 q 154 335 167 349 q 122 322 142 322 q 90 335 103 322 q 76 368 76 349 m 76 532 q 90 564 76 551 q 122 576 103 576 q 154 564 142 576 q 167 532 167 551 q 154 499 167 513 q 122 486 142 486 q 90 499 103 486 q 76 532 76 513 m 76 696 q 90 728 76 715 q 122 740 103 740 q 154 728 142 740 q 167 696 167 715 q 154 663 167 676 q 122 650 142 650 q 90 663 103 650 q 76 696 76 676 z "},"j":{"ha":246,"x_min":-6,"x_max":167,"o":"m 76 942 q 90 974 76 961 q 122 986 103 986 q 154 974 142 986 q 167 942 167 961 q 154 909 167 922 q 122 896 142 896 q 90 909 103 896 q 76 942 76 922 m -6 -124 q 8 -92 -6 -104 q 40 -79 21 -79 q 72 -92 60 -79 q 85 -124 85 -104 q 72 -156 85 -143 q 40 -169 60 -169 q 8 -156 21 -169 q -6 -124 -6 -143 m 76 40 q 90 72 76 60 q 122 85 103 85 q 154 72 142 85 q 167 40 167 60 q 154 8 167 21 q 122 -6 142 -6 q 90 8 103 -6 q 76 40 76 21 m 76 204 q 90 236 76 224 q 122 249 103 249 q 154 236 142 249 q 167 204 167 224 q 154 172 167 185 q 122 158 142 158 q 90 172 103 158 q 76 204 76 185 m 76 368 q 90 400 76 388 q 122 413 103 413 q 154 400 142 413 q 167 368 167 388 q 154 335 167 349 q 122 322 142 322 q 90 335 103 322 q 76 368 76 349 m 76 532 q 90 564 76 551 q 122 576 103 576 q 154 564 142 576 q 167 532 167 551 q 154 499 167 513 q 122 486 142 486 q 90 499 103 486 q 76 532 76 513 m 76 696 q 90 728 76 715 q 122 740 103 740 q 154 728 142 740 q 167 696 167 715 q 154 663 167 676 q 122 650 142 650 q 90 663 103 650 q 76 696 76 676 z "},"k":{"ha":901,"x_min":76,"x_max":822,"o":"m 76 696 q 90 728 76 715 q 122 740 103 740 q 154 728 142 740 q 167 696 167 715 q 154 663 167 676 q 122 650 142 650 q 90 663 103 650 q 76 696 76 676 m 732 40 q 745 72 732 60 q 778 85 758 85 q 810 72 797 85 q 822 40 822 60 q 810 8 822 21 q 778 -6 797 -6 q 745 8 758 -6 q 732 40 732 21 m 76 40 q 90 72 76 60 q 122 85 103 85 q 154 72 142 85 q 167 40 167 60 q 154 8 167 21 q 122 -6 142 -6 q 90 8 103 -6 q 76 40 76 21 m 568 204 q 581 236 568 224 q 614 249 594 249 q 646 236 633 249 q 658 204 658 224 q 646 172 658 185 q 614 158 633 158 q 581 172 594 158 q 568 204 568 185 m 76 204 q 90 236 76 224 q 122 249 103 249 q 154 236 142 249 q 167 204 167 224 q 154 172 167 185 q 122 158 142 158 q 90 172 103 158 q 76 204 76 185 m 404 368 q 417 400 404 388 q 450 413 431 413 q 482 400 469 413 q 494 368 494 388 q 482 335 494 349 q 450 322 469 322 q 417 335 431 322 q 404 368 404 349 m 240 368 q 253 400 240 388 q 286 413 267 413 q 318 400 306 413 q 331 368 331 388 q 318 335 331 349 q 286 322 306 322 q 253 335 267 322 q 240 368 240 349 m 76 368 q 90 400 76 388 q 122 413 103 413 q 154 400 142 413 q 167 368 167 388 q 154 335 167 349 q 122 322 142 322 q 90 335 103 322 q 76 368 76 349 m 568 532 q 581 564 568 551 q 614 576 594 576 q 646 564 633 576 q 658 532 658 551 q 646 499 658 513 q 614 486 633 486 q 581 499 594 486 q 568 532 568 513 m 76 532 q 90 564 76 551 q 122 576 103 576 q 154 564 142 576 q 167 532 167 551 q 154 499 167 513 q 122 486 142 486 q 90 499 103 486 q 76 532 76 513 m 732 696 q 745 728 732 715 q 778 740 758 740 q 810 728 797 740 q 822 696 822 715 q 810 663 822 676 q 778 650 797 650 q 745 663 758 650 q 732 696 732 676 z "},"l":{"ha":410,"x_min":76,"x_max":331,"o":"m 76 942 q 90 974 76 961 q 122 986 103 986 q 154 974 142 986 q 167 942 167 961 q 154 909 167 922 q 122 896 142 896 q 90 909 103 896 q 76 942 76 922 m 240 40 q 253 72 240 60 q 286 85 267 85 q 318 72 306 85 q 331 40 331 60 q 318 8 331 21 q 286 -6 306 -6 q 253 8 267 -6 q 240 40 240 21 m 76 122 q 90 154 76 142 q 122 167 103 167 q 154 154 142 167 q 167 122 167 142 q 154 90 167 103 q 122 76 142 76 q 90 90 103 76 q 76 122 76 103 m 76 286 q 90 318 76 306 q 122 331 103 331 q 154 318 142 331 q 167 286 167 306 q 154 253 167 267 q 122 240 142 240 q 90 253 103 240 q 76 286 76 267 m 76 450 q 90 482 76 469 q 122 494 103 494 q 154 482 142 494 q 167 450 167 469 q 154 417 167 431 q 122 404 142 404 q 90 417 103 404 q 76 450 76 431 m 76 614 q 90 646 76 633 q 122 658 103 658 q 154 646 142 658 q 167 614 167 633 q 154 581 167 594 q 122 568 142 568 q 90 581 103 568 q 76 614 76 594 m 76 778 q 90 810 76 797 q 122 822 103 822 q 154 810 142 822 q 167 778 167 797 q 154 745 167 758 q 122 732 142 732 q 90 745 103 732 q 76 778 76 758 z "},"m":{"ha":1229,"x_min":76,"x_max":1150,"o":"m 240 696 q 253 728 240 715 q 286 740 267 740 q 318 728 306 740 q 331 696 331 715 q 318 663 331 676 q 286 650 306 650 q 253 663 267 650 q 240 696 240 676 m 1060 40 q 1073 72 1060 60 q 1106 85 1086 85 q 1138 72 1125 85 q 1150 40 1150 60 q 1138 8 1150 21 q 1106 -6 1125 -6 q 1073 8 1086 -6 q 1060 40 1060 21 m 568 40 q 581 72 568 60 q 614 85 594 85 q 646 72 633 85 q 658 40 658 60 q 646 8 658 21 q 614 -6 633 -6 q 581 8 594 -6 q 568 40 568 21 m 76 40 q 90 72 76 60 q 122 85 103 85 q 154 72 142 85 q 167 40 167 60 q 154 8 167 21 q 122 -6 142 -6 q 90 8 103 -6 q 76 40 76 21 m 1060 204 q 1073 236 1060 224 q 1106 249 1086 249 q 1138 236 1125 249 q 1150 204 1150 224 q 1138 172 1150 185 q 1106 158 1125 158 q 1073 172 1086 158 q 1060 204 1060 185 m 568 204 q 581 236 568 224 q 614 249 594 249 q 646 236 633 249 q 658 204 658 224 q 646 172 658 185 q 614 158 633 158 q 581 172 594 158 q 568 204 568 185 m 76 204 q 90 236 76 224 q 122 249 103 249 q 154 236 142 249 q 167 204 167 224 q 154 172 167 185 q 122 158 142 158 q 90 172 103 158 q 76 204 76 185 m 1060 368 q 1073 400 1060 388 q 1106 413 1086 413 q 1138 400 1125 413 q 1150 368 1150 388 q 1138 335 1150 349 q 1106 322 1125 322 q 1073 335 1086 322 q 1060 368 1060 349 m 568 368 q 581 400 568 388 q 614 413 594 413 q 646 400 633 413 q 658 368 658 388 q 646 335 658 349 q 614 322 633 322 q 581 335 594 322 q 568 368 568 349 m 76 368 q 90 400 76 388 q 122 413 103 413 q 154 400 142 413 q 167 368 167 388 q 154 335 167 349 q 122 322 142 322 q 90 335 103 322 q 76 368 76 349 m 1060 532 q 1073 564 1060 551 q 1106 576 1086 576 q 1138 564 1125 576 q 1150 532 1150 551 q 1138 499 1150 513 q 1106 486 1125 486 q 1073 499 1086 486 q 1060 532 1060 513 m 568 532 q 581 564 568 551 q 614 576 594 576 q 646 564 633 576 q 658 532 658 551 q 646 499 658 513 q 614 486 633 486 q 581 499 594 486 q 568 532 568 513 m 76 532 q 90 564 76 551 q 122 576 103 576 q 154 564 142 576 q 167 532 167 551 q 154 499 167 513 q 122 486 142 486 q 90 499 103 486 q 76 532 76 513 m 896 696 q 909 728 896 715 q 942 740 922 740 q 974 728 961 740 q 986 696 986 715 q 974 663 986 676 q 942 650 961 650 q 909 663 922 650 q 896 696 896 676 m 732 696 q 745 728 732 715 q 778 740 758 740 q 810 728 797 740 q 822 696 822 715 q 810 663 822 676 q 778 650 797 650 q 745 663 758 650 q 732 696 732 676 m 404 696 q 417 728 404 715 q 450 740 431 740 q 482 728 469 740 q 494 696 494 715 q 482 663 494 676 q 450 650 469 650 q 417 663 431 650 q 404 696 404 676 z "},"n":{"ha":901,"x_min":76,"x_max":822,"o":"m 240 696 q 253 728 240 715 q 286 740 267 740 q 318 728 306 740 q 331 696 331 715 q 318 663 331 676 q 286 650 306 650 q 253 663 267 650 q 240 696 240 676 m 732 40 q 745 72 732 60 q 778 85 758 85 q 810 72 797 85 q 822 40 822 60 q 810 8 822 21 q 778 -6 797 -6 q 745 8 758 -6 q 732 40 732 21 m 76 40 q 90 72 76 60 q 122 85 103 85 q 154 72 142 85 q 167 40 167 60 q 154 8 167 21 q 122 -6 142 -6 q 90 8 103 -6 q 76 40 76 21 m 732 204 q 745 236 732 224 q 778 249 758 249 q 810 236 797 249 q 822 204 822 224 q 810 172 822 185 q 778 158 797 158 q 745 172 758 158 q 732 204 732 185 m 76 204 q 90 236 76 224 q 122 249 103 249 q 154 236 142 249 q 167 204 167 224 q 154 172 167 185 q 122 158 142 158 q 90 172 103 158 q 76 204 76 185 m 732 368 q 745 400 732 388 q 778 413 758 413 q 810 400 797 413 q 822 368 822 388 q 810 335 822 349 q 778 322 797 322 q 745 335 758 322 q 732 368 732 349 m 76 368 q 90 400 76 388 q 122 413 103 413 q 154 400 142 413 q 167 368 167 388 q 154 335 167 349 q 122 322 142 322 q 90 335 103 322 q 76 368 76 349 m 732 532 q 745 564 732 551 q 778 576 758 576 q 810 564 797 576 q 822 532 822 551 q 810 499 822 513 q 778 486 797 486 q 745 499 758 486 q 732 532 732 513 m 76 532 q 90 564 76 551 q 122 576 103 576 q 154 564 142 576 q 167 532 167 551 q 154 499 167 513 q 122 486 142 486 q 90 499 103 486 q 76 532 76 513 m 568 696 q 581 728 568 715 q 614 740 594 740 q 646 728 633 740 q 658 696 658 715 q 646 663 658 676 q 614 650 633 650 q 581 663 594 650 q 568 696 568 676 m 404 696 q 417 728 404 715 q 450 740 431 740 q 482 728 469 740 q 494 696 494 715 q 482 663 494 676 q 450 650 469 650 q 417 663 431 650 q 404 696 404 676 z "},"o":{"ha":901,"x_min":76,"x_max":822,"o":"m 322 696 q 335 728 322 715 q 368 740 349 740 q 400 728 388 740 q 413 696 413 715 q 400 663 413 676 q 368 650 388 650 q 335 663 349 650 q 322 696 322 676 m 486 40 q 499 72 486 60 q 532 85 513 85 q 564 72 551 85 q 576 40 576 60 q 564 8 576 21 q 532 -6 551 -6 q 499 8 513 -6 q 486 40 486 21 m 322 40 q 335 72 322 60 q 368 85 349 85 q 400 72 388 85 q 413 40 413 60 q 400 8 413 21 q 368 -6 388 -6 q 335 8 349 -6 q 322 40 322 21 m 650 122 q 663 154 650 142 q 696 167 676 167 q 728 154 715 167 q 740 122 740 142 q 728 90 740 103 q 696 76 715 76 q 663 90 676 76 q 650 122 650 103 m 158 122 q 172 154 158 142 q 204 167 185 167 q 236 154 224 167 q 249 122 249 142 q 236 90 249 103 q 204 76 224 76 q 172 90 185 76 q 158 122 158 103 m 732 286 q 745 318 732 306 q 778 331 758 331 q 810 318 797 331 q 822 286 822 306 q 810 253 822 267 q 778 240 797 240 q 745 253 758 240 q 732 286 732 267 m 76 286 q 90 318 76 306 q 122 331 103 331 q 154 318 142 331 q 167 286 167 306 q 154 253 167 267 q 122 240 142 240 q 90 253 103 240 q 76 286 76 267 m 732 450 q 745 482 732 469 q 778 494 758 494 q 810 482 797 494 q 822 450 822 469 q 810 417 822 431 q 778 404 797 404 q 745 417 758 404 q 732 450 732 431 m 76 450 q 90 482 76 469 q 122 494 103 494 q 154 482 142 494 q 167 450 167 469 q 154 417 167 431 q 122 404 142 404 q 90 417 103 404 q 76 450 76 431 m 650 614 q 663 646 650 633 q 696 658 676 658 q 728 646 715 658 q 740 614 740 633 q 728 581 740 594 q 696 568 715 568 q 663 581 676 568 q 650 614 650 594 m 158 614 q 172 646 158 633 q 204 658 185 658 q 236 646 224 658 q 249 614 249 633 q 236 581 249 594 q 204 568 224 568 q 172 581 185 568 q 158 614 158 594 m 486 696 q 499 728 486 715 q 532 740 513 740 q 564 728 551 740 q 576 696 576 715 q 564 663 576 676 q 532 650 551 650 q 499 663 513 650 q 486 696 486 676 z "},"p":{"ha":901,"x_min":76,"x_max":822,"o":"m 240 696 q 253 728 240 715 q 286 740 267 740 q 318 728 306 740 q 331 696 331 715 q 318 663 331 676 q 286 650 306 650 q 253 663 267 650 q 240 696 240 676 m 76 40 q 90 72 76 60 q 122 85 103 85 q 154 72 142 85 q 167 40 167 60 q 154 8 167 21 q 122 -6 142 -6 q 90 8 103 -6 q 76 40 76 21 m 568 204 q 581 236 568 224 q 614 249 594 249 q 646 236 633 249 q 658 204 658 224 q 646 172 658 185 q 614 158 633 158 q 581 172 594 158 q 568 204 568 185 m 404 204 q 417 236 404 224 q 450 249 431 249 q 482 236 469 249 q 494 204 494 224 q 482 172 494 185 q 450 158 469 158 q 417 172 431 158 q 404 204 404 185 m 240 204 q 253 236 240 224 q 286 249 267 249 q 318 236 306 249 q 331 204 331 224 q 318 172 331 185 q 286 158 306 158 q 253 172 267 158 q 240 204 240 185 m 76 204 q 90 236 76 224 q 122 249 103 249 q 154 236 142 249 q 167 204 167 224 q 154 172 167 185 q 122 158 142 158 q 90 172 103 158 q 76 204 76 185 m 732 368 q 745 400 732 388 q 778 413 758 413 q 810 400 797 413 q 822 368 822 388 q 810 335 822 349 q 778 322 797 322 q 745 335 758 322 q 732 368 732 349 m 76 368 q 90 400 76 388 q 122 413 103 413 q 154 400 142 413 q 167 368 167 388 q 154 335 167 349 q 122 322 142 322 q 90 335 103 322 q 76 368 76 349 m 732 532 q 745 564 732 551 q 778 576 758 576 q 810 564 797 576 q 822 532 822 551 q 810 499 822 513 q 778 486 797 486 q 745 499 758 486 q 732 532 732 513 m 76 532 q 90 564 76 551 q 122 576 103 576 q 154 564 142 576 q 167 532 167 551 q 154 499 167 513 q 122 486 142 486 q 90 499 103 486 q 76 532 76 513 m 568 696 q 581 728 568 715 q 614 740 594 740 q 646 728 633 740 q 658 696 658 715 q 646 663 658 676 q 614 650 633 650 q 581 663 594 650 q 568 696 568 676 m 404 696 q 417 728 404 715 q 450 740 431 740 q 482 728 469 740 q 494 696 494 715 q 482 663 494 676 q 450 650 469 650 q 417 663 431 650 q 404 696 404 676 z "},"q":{"ha":983,"x_min":76,"x_max":904,"o":"m 322 696 q 335 728 322 715 q 368 740 349 740 q 400 728 388 740 q 413 696 413 715 q 400 663 413 676 q 368 650 388 650 q 335 663 349 650 q 322 696 322 676 m 732 -206 q 745 -174 732 -186 q 778 -161 758 -161 q 810 -174 797 -161 q 822 -206 822 -186 q 810 -238 822 -225 q 778 -251 797 -251 q 745 -238 758 -251 q 732 -206 732 -225 m 732 -42 q 745 -10 732 -22 q 778 3 758 3 q 810 -10 797 3 q 822 -42 822 -22 q 810 -74 822 -61 q 778 -87 797 -87 q 745 -74 758 -87 q 732 -42 732 -61 m 486 40 q 499 72 486 60 q 532 85 513 85 q 564 72 551 85 q 576 40 576 60 q 564 8 576 21 q 532 -6 551 -6 q 499 8 513 -6 q 486 40 486 21 m 322 40 q 335 72 322 60 q 368 85 349 85 q 400 72 388 85 q 413 40 413 60 q 400 8 413 21 q 368 -6 388 -6 q 335 8 349 -6 q 322 40 322 21 m 650 122 q 663 154 650 142 q 696 167 676 167 q 728 154 715 167 q 740 122 740 142 q 728 90 740 103 q 696 76 715 76 q 663 90 676 76 q 650 122 650 103 m 158 122 q 172 154 158 142 q 204 167 185 167 q 236 154 224 167 q 249 122 249 142 q 236 90 249 103 q 204 76 224 76 q 172 90 185 76 q 158 122 158 103 m 732 286 q 745 318 732 306 q 778 331 758 331 q 810 318 797 331 q 822 286 822 306 q 810 253 822 267 q 778 240 797 240 q 745 253 758 240 q 732 286 732 267 m 76 286 q 90 318 76 306 q 122 331 103 331 q 154 318 142 331 q 167 286 167 306 q 154 253 167 267 q 122 240 142 240 q 90 253 103 240 q 76 286 76 267 m 732 450 q 745 482 732 469 q 778 494 758 494 q 810 482 797 494 q 822 450 822 469 q 810 417 822 431 q 778 404 797 404 q 745 417 758 404 q 732 450 732 431 m 76 450 q 90 482 76 469 q 122 494 103 494 q 154 482 142 494 q 167 450 167 469 q 154 417 167 431 q 122 404 142 404 q 90 417 103 404 q 76 450 76 431 m 650 614 q 663 646 650 633 q 696 658 676 658 q 728 646 715 658 q 740 614 740 633 q 728 581 740 594 q 696 568 715 568 q 663 581 676 568 q 650 614 650 594 m 158 614 q 172 646 158 633 q 204 658 185 658 q 236 646 224 658 q 249 614 249 633 q 236 581 249 594 q 204 568 224 568 q 172 581 185 568 q 158 614 158 594 m 814 696 q 827 728 814 715 q 860 740 840 740 q 892 728 879 740 q 904 696 904 715 q 892 663 904 676 q 860 650 879 650 q 827 663 840 650 q 814 696 814 676 m 486 696 q 499 728 486 715 q 532 740 513 740 q 564 728 551 740 q 576 696 576 715 q 564 663 576 676 q 532 650 551 650 q 499 663 513 650 q 486 696 486 676 z "},"r":{"ha":574,"x_min":76,"x_max":494,"o":"m 240 696 q 253 728 240 715 q 286 740 267 740 q 318 728 306 740 q 331 696 331 715 q 318 663 331 676 q 286 650 306 650 q 253 663 267 650 q 240 696 240 676 m 76 40 q 90 72 76 60 q 122 85 103 85 q 154 72 142 85 q 167 40 167 60 q 154 8 167 21 q 122 -6 142 -6 q 90 8 103 -6 q 76 40 76 21 m 76 204 q 90 236 76 224 q 122 249 103 249 q 154 236 142 249 q 167 204 167 224 q 154 172 167 185 q 122 158 142 158 q 90 172 103 158 q 76 204 76 185 m 76 368 q 90 400 76 388 q 122 413 103 413 q 154 400 142 413 q 167 368 167 388 q 154 335 167 349 q 122 322 142 322 q 90 335 103 322 q 76 368 76 349 m 76 532 q 90 564 76 551 q 122 576 103 576 q 154 564 142 576 q 167 532 167 551 q 154 499 167 513 q 122 486 142 486 q 90 499 103 486 q 76 532 76 513 m 404 696 q 417 728 404 715 q 450 740 431 740 q 482 728 469 740 q 494 696 494 715 q 482 663 494 676 q 450 650 469 650 q 417 663 431 650 q 404 696 404 676 z "},"s":{"ha":738,"x_min":76,"x_max":658,"o":"m 404 696 q 417 728 404 715 q 450 740 431 740 q 482 728 469 740 q 494 696 494 715 q 482 663 494 676 q 450 650 469 650 q 417 663 431 650 q 404 696 404 676 m 240 40 q 253 72 240 60 q 286 85 267 85 q 318 72 306 85 q 331 40 331 60 q 318 8 331 21 q 286 -6 306 -6 q 253 8 267 -6 q 240 40 240 21 m 76 40 q 90 72 76 60 q 122 85 103 85 q 154 72 142 85 q 167 40 167 60 q 154 8 167 21 q 122 -6 142 -6 q 90 8 103 -6 q 76 40 76 21 m 322 204 q 335 236 322 224 q 368 249 349 249 q 400 236 388 249 q 413 204 413 224 q 400 172 413 185 q 368 158 388 158 q 335 172 349 158 q 322 204 322 185 m 322 368 q 335 400 322 388 q 368 413 349 413 q 400 400 388 413 q 413 368 413 388 q 400 335 413 349 q 368 322 388 322 q 335 335 349 322 q 322 368 322 349 m 322 532 q 335 564 322 551 q 368 576 349 576 q 400 564 388 576 q 413 532 413 551 q 400 499 413 513 q 368 486 388 486 q 335 499 349 486 q 322 532 322 513 m 568 696 q 581 728 568 715 q 614 740 594 740 q 646 728 633 740 q 658 696 658 715 q 646 663 658 676 q 614 650 633 650 q 581 663 594 650 q 568 696 568 676 z "},"t":{"ha":410,"x_min":76,"x_max":331,"o":"m 76 942 q 90 974 76 961 q 122 986 103 986 q 154 974 142 986 q 167 942 167 961 q 154 909 167 922 q 122 896 142 896 q 90 909 103 896 q 76 942 76 922 m 240 40 q 253 72 240 60 q 286 85 267 85 q 318 72 306 85 q 331 40 331 60 q 318 8 331 21 q 286 -6 306 -6 q 253 8 267 -6 q 240 40 240 21 m 76 122 q 90 154 76 142 q 122 167 103 167 q 154 154 142 167 q 167 122 167 142 q 154 90 167 103 q 122 76 142 76 q 90 90 103 76 q 76 122 76 103 m 76 286 q 90 318 76 306 q 122 331 103 331 q 154 318 142 331 q 167 286 167 306 q 154 253 167 267 q 122 240 142 240 q 90 253 103 240 q 76 286 76 267 m 76 450 q 90 482 76 469 q 122 494 103 494 q 154 482 142 494 q 167 450 167 469 q 154 417 167 431 q 122 404 142 404 q 90 417 103 404 q 76 450 76 431 m 76 614 q 90 646 76 633 q 122 658 103 658 q 154 646 142 658 q 167 614 167 633 q 154 581 167 594 q 122 568 142 568 q 90 581 103 568 q 76 614 76 594 m 240 696 q 253 728 240 715 q 286 740 267 740 q 318 728 306 740 q 331 696 331 715 q 318 663 331 676 q 286 650 306 650 q 253 663 267 650 q 240 696 240 676 m 76 778 q 90 810 76 797 q 122 822 103 822 q 154 810 142 822 q 167 778 167 797 q 154 745 167 758 q 122 732 142 732 q 90 745 103 732 q 76 778 76 758 z "},"u":{"ha":901,"x_min":76,"x_max":822,"o":"m 76 696 q 90 728 76 715 q 122 740 103 740 q 154 728 142 740 q 167 696 167 715 q 154 663 167 676 q 122 650 142 650 q 90 663 103 650 q 76 696 76 676 m 568 40 q 581 72 568 60 q 614 85 594 85 q 646 72 633 85 q 658 40 658 60 q 646 8 658 21 q 614 -6 633 -6 q 581 8 594 -6 q 568 40 568 21 m 404 40 q 417 72 404 60 q 450 85 431 85 q 482 72 469 85 q 494 40 494 60 q 482 8 494 21 q 450 -6 469 -6 q 417 8 431 -6 q 404 40 404 21 m 240 40 q 253 72 240 60 q 286 85 267 85 q 318 72 306 85 q 331 40 331 60 q 318 8 331 21 q 286 -6 306 -6 q 253 8 267 -6 q 240 40 240 21 m 732 204 q 745 236 732 224 q 778 249 758 249 q 810 236 797 249 q 822 204 822 224 q 810 172 822 185 q 778 158 797 158 q 745 172 758 158 q 732 204 732 185 m 76 204 q 90 236 76 224 q 122 249 103 249 q 154 236 142 249 q 167 204 167 224 q 154 172 167 185 q 122 158 142 158 q 90 172 103 158 q 76 204 76 185 m 732 368 q 745 400 732 388 q 778 413 758 413 q 810 400 797 413 q 822 368 822 388 q 810 335 822 349 q 778 322 797 322 q 745 335 758 322 q 732 368 732 349 m 76 368 q 90 400 76 388 q 122 413 103 413 q 154 400 142 413 q 167 368 167 388 q 154 335 167 349 q 122 322 142 322 q 90 335 103 322 q 76 368 76 349 m 732 532 q 745 564 732 551 q 778 576 758 576 q 810 564 797 576 q 822 532 822 551 q 810 499 822 513 q 778 486 797 486 q 745 499 758 486 q 732 532 732 513 m 76 532 q 90 564 76 551 q 122 576 103 576 q 154 564 142 576 q 167 532 167 551 q 154 499 167 513 q 122 486 142 486 q 90 499 103 486 q 76 532 76 513 m 732 696 q 745 728 732 715 q 778 740 758 740 q 810 728 797 740 q 822 696 822 715 q 810 663 822 676 q 778 650 797 650 q 745 663 758 650 q 732 696 732 676 z "},"v":{"ha":901,"x_min":76,"x_max":822,"o":"m 76 696 q 90 728 76 715 q 122 740 103 740 q 154 728 142 740 q 167 696 167 715 q 154 663 167 676 q 122 650 142 650 q 90 663 103 650 q 76 696 76 676 m 404 40 q 417 72 404 60 q 450 85 431 85 q 482 72 469 85 q 494 40 494 60 q 482 8 494 21 q 450 -6 469 -6 q 417 8 431 -6 q 404 40 404 21 m 568 204 q 581 236 568 224 q 614 249 594 249 q 646 236 633 249 q 658 204 658 224 q 646 172 658 185 q 614 158 633 158 q 581 172 594 158 q 568 204 568 185 m 240 204 q 253 236 240 224 q 286 249 267 249 q 318 236 306 249 q 331 204 331 224 q 318 172 331 185 q 286 158 306 158 q 253 172 267 158 q 240 204 240 185 m 732 368 q 745 400 732 388 q 778 413 758 413 q 810 400 797 413 q 822 368 822 388 q 810 335 822 349 q 778 322 797 322 q 745 335 758 322 q 732 368 732 349 m 76 368 q 90 400 76 388 q 122 413 103 413 q 154 400 142 413 q 167 368 167 388 q 154 335 167 349 q 122 322 142 322 q 90 335 103 322 q 76 368 76 349 m 732 532 q 745 564 732 551 q 778 576 758 576 q 810 564 797 576 q 822 532 822 551 q 810 499 822 513 q 778 486 797 486 q 745 499 758 486 q 732 532 732 513 m 76 532 q 90 564 76 551 q 122 576 103 576 q 154 564 142 576 q 167 532 167 551 q 154 499 167 513 q 122 486 142 486 q 90 499 103 486 q 76 532 76 513 m 732 696 q 745 728 732 715 q 778 740 758 740 q 810 728 797 740 q 822 696 822 715 q 810 663 822 676 q 778 650 797 650 q 745 663 758 650 q 732 696 732 676 z "},"w":{"ha":1229,"x_min":76,"x_max":1150,"o":"m 76 696 q 90 728 76 715 q 122 740 103 740 q 154 728 142 740 q 167 696 167 715 q 154 663 167 676 q 122 650 142 650 q 90 663 103 650 q 76 696 76 676 m 896 40 q 909 72 896 60 q 942 85 922 85 q 974 72 961 85 q 986 40 986 60 q 974 8 986 21 q 942 -6 961 -6 q 909 8 922 -6 q 896 40 896 21 m 732 40 q 745 72 732 60 q 778 85 758 85 q 810 72 797 85 q 822 40 822 60 q 810 8 822 21 q 778 -6 797 -6 q 745 8 758 -6 q 732 40 732 21 m 404 40 q 417 72 404 60 q 450 85 431 85 q 482 72 469 85 q 494 40 494 60 q 482 8 494 21 q 450 -6 469 -6 q 417 8 431 -6 q 404 40 404 21 m 240 40 q 253 72 240 60 q 286 85 267 85 q 318 72 306 85 q 331 40 331 60 q 318 8 331 21 q 286 -6 306 -6 q 253 8 267 -6 q 240 40 240 21 m 1060 204 q 1073 236 1060 224 q 1106 249 1086 249 q 1138 236 1125 249 q 1150 204 1150 224 q 1138 172 1150 185 q 1106 158 1125 158 q 1073 172 1086 158 q 1060 204 1060 185 m 568 204 q 581 236 568 224 q 614 249 594 249 q 646 236 633 249 q 658 204 658 224 q 646 172 658 185 q 614 158 633 158 q 581 172 594 158 q 568 204 568 185 m 76 204 q 90 236 76 224 q 122 249 103 249 q 154 236 142 249 q 167 204 167 224 q 154 172 167 185 q 122 158 142 158 q 90 172 103 158 q 76 204 76 185 m 1060 368 q 1073 400 1060 388 q 1106 413 1086 413 q 1138 400 1125 413 q 1150 368 1150 388 q 1138 335 1150 349 q 1106 322 1125 322 q 1073 335 1086 322 q 1060 368 1060 349 m 568 368 q 581 400 568 388 q 614 413 594 413 q 646 400 633 413 q 658 368 658 388 q 646 335 658 349 q 614 322 633 322 q 581 335 594 322 q 568 368 568 349 m 76 368 q 90 400 76 388 q 122 413 103 413 q 154 400 142 413 q 167 368 167 388 q 154 335 167 349 q 122 322 142 322 q 90 335 103 322 q 76 368 76 349 m 1060 532 q 1073 564 1060 551 q 1106 576 1086 576 q 1138 564 1125 576 q 1150 532 1150 551 q 1138 499 1150 513 q 1106 486 1125 486 q 1073 499 1086 486 q 1060 532 1060 513 m 568 532 q 581 564 568 551 q 614 576 594 576 q 646 564 633 576 q 658 532 658 551 q 646 499 658 513 q 614 486 633 486 q 581 499 594 486 q 568 532 568 513 m 76 532 q 90 564 76 551 q 122 576 103 576 q 154 564 142 576 q 167 532 167 551 q 154 499 167 513 q 122 486 142 486 q 90 499 103 486 q 76 532 76 513 m 1060 696 q 1073 728 1060 715 q 1106 740 1086 740 q 1138 728 1125 740 q 1150 696 1150 715 q 1138 663 1150 676 q 1106 650 1125 650 q 1073 663 1086 650 q 1060 696 1060 676 m 568 696 q 581 728 568 715 q 614 740 594 740 q 646 728 633 740 q 658 696 658 715 q 646 663 658 676 q 614 650 633 650 q 581 663 594 650 q 568 696 568 676 z "},"x":{"ha":901,"x_min":76,"x_max":822,"o":"m 76 696 q 90 728 76 715 q 122 740 103 740 q 154 728 142 740 q 167 696 167 715 q 154 663 167 676 q 122 650 142 650 q 90 663 103 650 q 76 696 76 676 m 732 40 q 745 72 732 60 q 778 85 758 85 q 810 72 797 85 q 822 40 822 60 q 810 8 822 21 q 778 -6 797 -6 q 745 8 758 -6 q 732 40 732 21 m 76 40 q 90 72 76 60 q 122 85 103 85 q 154 72 142 85 q 167 40 167 60 q 154 8 167 21 q 122 -6 142 -6 q 90 8 103 -6 q 76 40 76 21 m 568 204 q 581 236 568 224 q 614 249 594 249 q 646 236 633 249 q 658 204 658 224 q 646 172 658 185 q 614 158 633 158 q 581 172 594 158 q 568 204 568 185 m 240 204 q 253 236 240 224 q 286 249 267 249 q 318 236 306 249 q 331 204 331 224 q 318 172 331 185 q 286 158 306 158 q 253 172 267 158 q 240 204 240 185 m 404 368 q 417 400 404 388 q 450 413 431 413 q 482 400 469 413 q 494 368 494 388 q 482 335 494 349 q 450 322 469 322 q 417 335 431 322 q 404 368 404 349 m 568 532 q 581 564 568 551 q 614 576 594 576 q 646 564 633 576 q 658 532 658 551 q 646 499 658 513 q 614 486 633 486 q 581 499 594 486 q 568 532 568 513 m 240 532 q 253 564 240 551 q 286 576 267 576 q 318 564 306 576 q 331 532 331 551 q 318 499 331 513 q 286 486 306 486 q 253 499 267 486 q 240 532 240 513 m 732 696 q 745 728 732 715 q 778 740 758 740 q 810 728 797 740 q 822 696 822 715 q 810 663 822 676 q 778 650 797 650 q 745 663 758 650 q 732 696 732 676 z "},"y":{"ha":901,"x_min":76,"x_max":822,"o":"m 76 696 q 90 728 76 715 q 122 740 103 740 q 154 728 142 740 q 167 696 167 715 q 154 663 167 676 q 122 650 142 650 q 90 663 103 650 q 76 696 76 676 m 404 -124 q 417 -92 404 -104 q 450 -79 431 -79 q 482 -92 469 -79 q 494 -124 494 -104 q 482 -156 494 -143 q 450 -169 469 -169 q 417 -156 431 -169 q 404 -124 404 -143 m 404 40 q 417 72 404 60 q 450 85 431 85 q 482 72 469 85 q 494 40 494 60 q 482 8 494 21 q 450 -6 469 -6 q 417 8 431 -6 q 404 40 404 21 m 568 204 q 581 236 568 224 q 614 249 594 249 q 646 236 633 249 q 658 204 658 224 q 646 172 658 185 q 614 158 633 158 q 581 172 594 158 q 568 204 568 185 m 240 204 q 253 236 240 224 q 286 249 267 249 q 318 236 306 249 q 331 204 331 224 q 318 172 331 185 q 286 158 306 158 q 253 172 267 158 q 240 204 240 185 m 732 368 q 745 400 732 388 q 778 413 758 413 q 810 400 797 413 q 822 368 822 388 q 810 335 822 349 q 778 322 797 322 q 745 335 758 322 q 732 368 732 349 m 76 368 q 90 400 76 388 q 122 413 103 413 q 154 400 142 413 q 167 368 167 388 q 154 335 167 349 q 122 322 142 322 q 90 335 103 322 q 76 368 76 349 m 732 532 q 745 564 732 551 q 778 576 758 576 q 810 564 797 576 q 822 532 822 551 q 810 499 822 513 q 778 486 797 486 q 745 499 758 486 q 732 532 732 513 m 76 532 q 90 564 76 551 q 122 576 103 576 q 154 564 142 576 q 167 532 167 551 q 154 499 167 513 q 122 486 142 486 q 90 499 103 486 q 76 532 76 513 m 732 696 q 745 728 732 715 q 778 740 758 740 q 810 728 797 740 q 822 696 822 715 q 810 663 822 676 q 778 650 797 650 q 745 663 758 650 q 732 696 732 676 z "},"z":{"ha":738,"x_min":76,"x_max":658,"o":"m 76 696 q 90 728 76 715 q 122 740 103 740 q 154 728 142 740 q 167 696 167 715 q 154 663 167 676 q 122 650 142 650 q 90 663 103 650 q 76 696 76 676 m 568 40 q 581 72 568 60 q 614 85 594 85 q 646 72 633 85 q 658 40 658 60 q 646 8 658 21 q 614 -6 633 -6 q 581 8 594 -6 q 568 40 568 21 m 404 40 q 417 72 404 60 q 450 85 431 85 q 482 72 469 85 q 494 40 494 60 q 482 8 494 21 q 450 -6 469 -6 q 417 8 431 -6 q 404 40 404 21 m 240 40 q 253 72 240 60 q 286 85 267 85 q 318 72 306 85 q 331 40 331 60 q 318 8 331 21 q 286 -6 306 -6 q 253 8 267 -6 q 240 40 240 21 m 76 40 q 90 72 76 60 q 122 85 103 85 q 154 72 142 85 q 167 40 167 60 q 154 8 167 21 q 122 -6 142 -6 q 90 8 103 -6 q 76 40 76 21 m 240 286 q 253 318 240 306 q 286 331 267 331 q 318 318 306 331 q 331 286 331 306 q 318 253 331 267 q 286 240 306 240 q 253 253 267 240 q 240 286 240 267 m 404 450 q 417 482 404 469 q 450 494 431 494 q 482 482 469 494 q 494 450 494 469 q 482 417 494 431 q 450 404 469 404 q 417 417 431 404 q 404 450 404 431 m 568 696 q 581 728 568 715 q 614 740 594 740 q 646 728 633 740 q 658 696 658 715 q 646 663 658 676 q 614 650 633 650 q 581 663 594 650 q 568 696 568 676 m 404 696 q 417 728 404 715 q 450 740 431 740 q 482 728 469 740 q 494 696 494 715 q 482 663 494 676 q 450 650 469 650 q 417 663 431 650 q 404 696 404 676 m 240 696 q 253 728 240 715 q 286 740 267 740 q 318 728 306 740 q 331 696 331 715 q 318 663 331 676 q 286 650 306 650 q 253 663 267 650 q 240 696 240 676 z "},"{":{"ha":492,"x_min":-6,"x_max":331,"o":"m 240 860 q 253 892 240 879 q 286 904 267 904 q 318 892 306 904 q 331 860 331 879 q 318 827 331 840 q 286 814 306 814 q 253 827 267 814 q 240 860 240 840 m 240 -124 q 253 -92 240 -104 q 286 -79 267 -79 q 318 -92 306 -79 q 331 -124 331 -104 q 318 -156 331 -143 q 286 -169 306 -169 q 253 -156 267 -169 q 240 -124 240 -143 m 240 40 q 253 72 240 60 q 286 85 267 85 q 318 72 306 85 q 331 40 331 60 q 318 8 331 21 q 286 -6 306 -6 q 253 8 267 -6 q 240 40 240 21 m 158 204 q 172 236 158 224 q 204 249 185 249 q 236 236 224 249 q 249 204 249 224 q 236 172 249 185 q 204 158 224 158 q 172 172 185 158 q 158 204 158 185 m 158 368 q 172 400 158 388 q 204 413 185 413 q 236 400 224 413 q 249 368 249 388 q 236 335 249 349 q 204 322 224 322 q 172 335 185 322 q 158 368 158 349 m -6 368 q 8 400 -6 388 q 40 413 21 413 q 72 400 60 413 q 85 368 85 388 q 72 335 85 349 q 40 322 60 322 q 8 335 21 322 q -6 368 -6 349 m 158 532 q 172 564 158 551 q 204 576 185 576 q 236 564 224 576 q 249 532 249 551 q 236 499 249 513 q 204 486 224 486 q 172 499 185 486 q 158 532 158 513 m 240 696 q 253 728 240 715 q 286 740 267 740 q 318 728 306 740 q 331 696 331 715 q 318 663 331 676 q 286 650 306 650 q 253 663 267 650 q 240 696 240 676 z "},"|":{"ha":246,"x_min":76,"x_max":167,"o":"m 76 942 q 90 974 76 961 q 122 986 103 986 q 154 974 142 986 q 167 942 167 961 q 154 909 167 922 q 122 896 142 896 q 90 909 103 896 q 76 942 76 922 m 76 -206 q 90 -174 76 -186 q 122 -161 103 -161 q 154 -174 142 -161 q 167 -206 167 -186 q 154 -238 167 -225 q 122 -251 142 -251 q 90 -238 103 -251 q 76 -206 76 -225 m 76 -42 q 90 -10 76 -22 q 122 3 103 3 q 154 -10 142 3 q 167 -42 167 -22 q 154 -74 167 -61 q 122 -87 142 -87 q 90 -74 103 -87 q 76 -42 76 -61 m 76 122 q 90 154 76 142 q 122 167 103 167 q 154 154 142 167 q 167 122 167 142 q 154 90 167 103 q 122 76 142 76 q 90 90 103 76 q 76 122 76 103 m 76 286 q 90 318 76 306 q 122 331 103 331 q 154 318 142 331 q 167 286 167 306 q 154 253 167 267 q 122 240 142 240 q 90 253 103 240 q 76 286 76 267 m 76 450 q 90 482 76 469 q 122 494 103 494 q 154 482 142 494 q 167 450 167 469 q 154 417 167 431 q 122 404 142 404 q 90 417 103 404 q 76 450 76 431 m 76 614 q 90 646 76 633 q 122 658 103 658 q 154 646 142 658 q 167 614 167 633 q 154 581 167 594 q 122 568 142 568 q 90 581 103 568 q 76 614 76 594 m 76 778 q 90 810 76 797 q 122 822 103 822 q 154 810 142 822 q 167 778 167 797 q 154 745 167 758 q 122 732 142 732 q 90 745 103 732 q 76 778 76 758 z "},"}":{"ha":492,"x_min":158,"x_max":494,"o":"m 158 860 q 172 892 158 879 q 204 904 185 904 q 236 892 224 904 q 249 860 249 879 q 236 827 249 840 q 204 814 224 814 q 172 827 185 814 q 158 860 158 840 m 158 -124 q 172 -92 158 -104 q 204 -79 185 -79 q 236 -92 224 -79 q 249 -124 249 -104 q 236 -156 249 -143 q 204 -169 224 -169 q 172 -156 185 -169 q 158 -124 158 -143 m 158 40 q 172 72 158 60 q 204 85 185 85 q 236 72 224 85 q 249 40 249 60 q 236 8 249 21 q 204 -6 224 -6 q 172 8 185 -6 q 158 40 158 21 m 240 204 q 253 236 240 224 q 286 249 267 249 q 318 236 306 249 q 331 204 331 224 q 318 172 331 185 q 286 158 306 158 q 253 172 267 158 q 240 204 240 185 m 404 368 q 417 400 404 388 q 450 413 431 413 q 482 400 469 413 q 494 368 494 388 q 482 335 494 349 q 450 322 469 322 q 417 335 431 322 q 404 368 404 349 m 240 368 q 253 400 240 388 q 286 413 267 413 q 318 400 306 413 q 331 368 331 388 q 318 335 331 349 q 286 322 306 322 q 253 335 267 322 q 240 368 240 349 m 240 532 q 253 564 240 551 q 286 576 267 576 q 318 564 306 576 q 331 532 331 551 q 318 499 331 513 q 286 486 306 486 q 253 499 267 486 q 240 532 240 513 m 158 696 q 172 728 158 715 q 204 740 185 740 q 236 728 224 740 q 249 696 249 715 q 236 663 249 676 q 204 650 224 650 q 172 663 185 650 q 158 696 158 676 z "},"~":{"ha":738,"x_min":76,"x_max":658,"o":"m 240 532 q 253 564 240 551 q 286 576 267 576 q 318 564 306 576 q 331 532 331 551 q 318 499 331 513 q 286 486 306 486 q 253 499 267 486 q 240 532 240 513 m 404 368 q 417 400 404 388 q 450 413 431 413 q 482 400 469 413 q 494 368 494 388 q 482 335 494 349 q 450 322 469 322 q 417 335 431 322 q 404 368 404 349 m 76 368 q 90 400 76 388 q 122 413 103 413 q 154 400 142 413 q 167 368 167 388 q 154 335 167 349 q 122 322 142 322 q 90 335 103 322 q 76 368 76 349 m 568 532 q 581 564 568 551 q 614 576 594 576 q 646 564 633 576 q 658 532 658 551 q 646 499 658 513 q 614 486 633 486 q 581 499 594 486 q 568 532 568 513 z "},"":{"ha":410,"x_min":0,"x_max":0,"o":""},"":{"ha":246,"x_min":76,"x_max":167,"o":"m 76 614 q 90 646 76 633 q 122 658 103 658 q 154 646 142 658 q 167 614 167 633 q 154 581 167 594 q 122 568 142 568 q 90 581 103 568 q 76 614 76 594 m 76 -124 q 90 -92 76 -104 q 122 -79 103 -79 q 154 -92 142 -79 q 167 -124 167 -104 q 154 -156 167 -143 q 122 -169 142 -169 q 90 -156 103 -169 q 76 -124 76 -143 m 76 40 q 90 72 76 60 q 122 85 103 85 q 154 72 142 85 q 167 40 167 60 q 154 8 167 21 q 122 -6 142 -6 q 90 8 103 -6 q 76 40 76 21 m 76 204 q 90 236 76 224 q 122 249 103 249 q 154 236 142 249 q 167 204 167 224 q 154 172 167 185 q 122 158 142 158 q 90 172 103 158 q 76 204 76 185 m 76 368 q 90 400 76 388 q 122 413 103 413 q 154 400 142 413 q 167 368 167 388 q 154 335 167 349 q 122 322 142 322 q 90 335 103 322 q 76 368 76 349 z "},"":{"ha":819,"x_min":76,"x_max":740,"o":"m 404 860 q 417 892 404 879 q 450 904 431 904 q 482 892 469 904 q 494 860 494 879 q 482 827 494 840 q 450 814 469 814 q 417 827 431 814 q 404 860 404 840 m 404 -124 q 417 -92 404 -104 q 450 -79 431 -79 q 482 -92 469 -79 q 494 -124 494 -104 q 482 -156 494 -143 q 450 -169 469 -169 q 417 -156 431 -169 q 404 -124 404 -143 m 486 40 q 499 72 486 60 q 532 85 513 85 q 564 72 551 85 q 576 40 576 60 q 564 8 576 21 q 532 -6 551 -6 q 499 8 513 -6 q 486 40 486 21 m 322 40 q 335 72 322 60 q 368 85 349 85 q 400 72 388 85 q 413 40 413 60 q 400 8 413 21 q 368 -6 388 -6 q 335 8 349 -6 q 322 40 322 21 m 650 122 q 663 154 650 142 q 696 167 676 167 q 728 154 715 167 q 740 122 740 142 q 728 90 740 103 q 696 76 715 76 q 663 90 676 76 q 650 122 650 103 m 158 122 q 172 154 158 142 q 204 167 185 167 q 236 154 224 167 q 249 122 249 142 q 236 90 249 103 q 204 76 224 76 q 172 90 185 76 q 158 122 158 103 m 404 204 q 417 236 404 224 q 450 249 431 249 q 482 236 469 249 q 494 204 494 224 q 482 172 494 185 q 450 158 469 158 q 417 172 431 158 q 404 204 404 185 m 76 286 q 90 318 76 306 q 122 331 103 331 q 154 318 142 331 q 167 286 167 306 q 154 253 167 267 q 122 240 142 240 q 90 253 103 240 q 76 286 76 267 m 404 368 q 417 400 404 388 q 450 413 431 413 q 482 400 469 413 q 494 368 494 388 q 482 335 494 349 q 450 322 469 322 q 417 335 431 322 q 404 368 404 349 m 76 450 q 90 482 76 469 q 122 494 103 494 q 154 482 142 494 q 167 450 167 469 q 154 417 167 431 q 122 404 142 404 q 90 417 103 404 q 76 450 76 431 m 404 532 q 417 564 404 551 q 450 576 431 576 q 482 564 469 576 q 494 532 494 551 q 482 499 494 513 q 450 486 469 486 q 417 499 431 486 q 404 532 404 513 m 650 614 q 663 646 650 633 q 696 658 676 658 q 728 646 715 658 q 740 614 740 633 q 728 581 740 594 q 696 568 715 568 q 663 581 676 568 q 650 614 650 594 m 158 614 q 172 646 158 633 q 204 658 185 658 q 236 646 224 658 q 249 614 249 633 q 236 581 249 594 q 204 568 224 568 q 172 581 185 568 q 158 614 158 594 m 486 696 q 499 728 486 715 q 532 740 513 740 q 564 728 551 740 q 576 696 576 715 q 564 663 576 676 q 532 650 551 650 q 499 663 513 650 q 486 696 486 676 m 322 696 q 335 728 322 715 q 368 740 349 740 q 400 728 388 740 q 413 696 413 715 q 400 663 413 676 q 368 650 388 650 q 335 663 349 650 q 322 696 322 676 z "},"":{"ha":901,"x_min":76,"x_max":822,"o":"m 322 696 q 335 728 322 715 q 368 740 349 740 q 400 728 388 740 q 413 696 413 715 q 400 663 413 676 q 368 650 388 650 q 335 663 349 650 q 322 696 322 676 m 568 40 q 581 72 568 60 q 614 85 594 85 q 646 72 633 85 q 658 40 658 60 q 646 8 658 21 q 614 -6 633 -6 q 581 8 594 -6 q 568 40 568 21 m 240 40 q 253 72 240 60 q 286 85 267 85 q 318 72 306 85 q 331 40 331 60 q 318 8 331 21 q 286 -6 306 -6 q 253 8 267 -6 q 240 40 240 21 m 732 122 q 745 154 732 142 q 778 167 758 167 q 810 154 797 167 q 822 122 822 142 q 810 90 822 103 q 778 76 797 76 q 745 90 758 76 q 732 122 732 103 m 404 122 q 417 154 404 142 q 450 167 431 167 q 482 154 469 167 q 494 122 494 142 q 482 90 494 103 q 450 76 469 76 q 417 90 431 76 q 404 122 404 103 m 240 204 q 253 236 240 224 q 286 249 267 249 q 318 236 306 249 q 331 204 331 224 q 318 172 331 185 q 286 158 306 158 q 253 172 267 158 q 240 204 240 185 m 404 368 q 417 400 404 388 q 450 413 431 413 q 482 400 469 413 q 494 368 494 388 q 482 335 494 349 q 450 322 469 322 q 417 335 431 322 q 404 368 404 349 m 240 368 q 253 400 240 388 q 286 413 267 413 q 318 400 306 413 q 331 368 331 388 q 318 335 331 349 q 286 322 306 322 q 253 335 267 322 q 240 368 240 349 m 76 368 q 90 400 76 388 q 122 413 103 413 q 154 400 142 413 q 167 368 167 388 q 154 335 167 349 q 122 322 142 322 q 90 335 103 322 q 76 368 76 349 m 650 532 q 663 564 650 551 q 696 576 676 576 q 728 564 715 576 q 740 532 740 551 q 728 499 740 513 q 696 486 715 486 q 663 499 676 486 q 650 532 650 513 m 240 532 q 253 564 240 551 q 286 576 267 576 q 318 564 306 576 q 331 532 331 551 q 318 499 331 513 q 286 486 306 486 q 253 499 267 486 q 240 532 240 513 m 486 696 q 499 728 486 715 q 532 740 513 740 q 564 728 551 740 q 576 696 576 715 q 564 663 576 676 q 532 650 551 650 q 499 663 513 650 q 486 696 486 676 z "},"":{"ha":738,"x_min":76,"x_max":658,"o":"m 76 696 q 90 728 76 715 q 122 740 103 740 q 154 728 142 740 q 167 696 167 715 q 154 663 167 676 q 122 650 142 650 q 90 663 103 650 q 76 696 76 676 m 568 40 q 581 72 568 60 q 614 85 594 85 q 646 72 633 85 q 658 40 658 60 q 646 8 658 21 q 614 -6 633 -6 q 581 8 594 -6 q 568 40 568 21 m 76 40 q 90 72 76 60 q 122 85 103 85 q 154 72 142 85 q 167 40 167 60 q 154 8 167 21 q 122 -6 142 -6 q 90 8 103 -6 q 76 40 76 21 m 322 122 q 335 154 322 142 q 368 167 349 167 q 400 154 388 167 q 413 122 413 142 q 400 90 413 103 q 368 76 388 76 q 335 90 349 76 q 322 122 322 103 m 486 204 q 499 236 486 224 q 532 249 513 249 q 564 236 551 249 q 576 204 576 224 q 564 172 576 185 q 532 158 551 158 q 499 172 513 158 q 486 204 486 185 m 158 204 q 172 236 158 224 q 204 249 185 249 q 236 236 224 249 q 249 204 249 224 q 236 172 249 185 q 204 158 224 158 q 172 172 185 158 q 158 204 158 185 m 568 368 q 581 400 568 388 q 614 413 594 413 q 646 400 633 413 q 658 368 658 388 q 646 335 658 349 q 614 322 633 322 q 581 335 594 322 q 568 368 568 349 m 76 368 q 90 400 76 388 q 122 413 103 413 q 154 400 142 413 q 167 368 167 388 q 154 335 167 349 q 122 322 142 322 q 90 335 103 322 q 76 368 76 349 m 486 532 q 499 564 486 551 q 532 576 513 576 q 564 564 551 576 q 576 532 576 551 q 564 499 576 513 q 532 486 551 486 q 499 499 513 486 q 486 532 486 513 m 158 532 q 172 564 158 551 q 204 576 185 576 q 236 564 224 576 q 249 532 249 551 q 236 499 249 513 q 204 486 224 486 q 172 499 185 486 q 158 532 158 513 m 322 614 q 335 646 322 633 q 368 658 349 658 q 400 646 388 658 q 413 614 413 633 q 400 581 413 594 q 368 568 388 568 q 335 581 349 568 q 322 614 322 594 m 568 696 q 581 728 568 715 q 614 740 594 740 q 646 728 633 740 q 658 696 658 715 q 646 663 658 676 q 614 650 633 650 q 581 663 594 650 q 568 696 568 676 z "},"":{"ha":901,"x_min":76,"x_max":822,"o":"m 76 696 q 90 728 76 715 q 122 740 103 740 q 154 728 142 740 q 167 696 167 715 q 154 663 167 676 q 122 650 142 650 q 90 663 103 650 q 76 696 76 676 m 404 40 q 417 72 404 60 q 450 85 431 85 q 482 72 469 85 q 494 40 494 60 q 482 8 494 21 q 450 -6 469 -6 q 417 8 431 -6 q 404 40 404 21 m 568 204 q 581 236 568 224 q 614 249 594 249 q 646 236 633 249 q 658 204 658 224 q 646 172 658 185 q 614 158 633 158 q 581 172 594 158 q 568 204 568 185 m 404 204 q 417 236 404 224 q 450 249 431 249 q 482 236 469 249 q 494 204 494 224 q 482 172 494 185 q 450 158 469 158 q 417 172 431 158 q 404 204 404 185 m 240 204 q 253 236 240 224 q 286 249 267 249 q 318 236 306 249 q 331 204 331 224 q 318 172 331 185 q 286 158 306 158 q 253 172 267 158 q 240 204 240 185 m 568 368 q 581 400 568 388 q 614 413 594 413 q 646 400 633 413 q 658 368 658 388 q 646 335 658 349 q 614 322 633 322 q 581 335 594 322 q 568 368 568 349 m 404 368 q 417 400 404 388 q 450 413 431 413 q 482 400 469 413 q 494 368 494 388 q 482 335 494 349 q 450 322 469 322 q 417 335 431 322 q 404 368 404 349 m 240 368 q 253 400 240 388 q 286 413 267 413 q 318 400 306 413 q 331 368 331 388 q 318 335 331 349 q 286 322 306 322 q 253 335 267 322 q 240 368 240 349 m 568 532 q 581 564 568 551 q 614 576 594 576 q 646 564 633 576 q 658 532 658 551 q 646 499 658 513 q 614 486 633 486 q 581 499 594 486 q 568 532 568 513 m 240 532 q 253 564 240 551 q 286 576 267 576 q 318 564 306 576 q 331 532 331 551 q 318 499 331 513 q 286 486 306 486 q 253 499 267 486 q 240 532 240 513 m 732 696 q 745 728 732 715 q 778 740 758 740 q 810 728 797 740 q 822 696 822 715 q 810 663 822 676 q 778 650 797 650 q 745 663 758 650 q 732 696 732 676 z "},"":{"ha":246,"x_min":76,"x_max":167,"o":"m 76 942 q 90 974 76 961 q 122 986 103 986 q 154 974 142 986 q 167 942 167 961 q 154 909 167 922 q 122 896 142 896 q 90 909 103 896 q 76 942 76 922 m 76 -206 q 90 -174 76 -186 q 122 -161 103 -161 q 154 -174 142 -161 q 167 -206 167 -186 q 154 -238 167 -225 q 122 -251 142 -251 q 90 -238 103 -251 q 76 -206 76 -225 m 76 -42 q 90 -10 76 -22 q 122 3 103 3 q 154 -10 142 3 q 167 -42 167 -22 q 154 -74 167 -61 q 122 -87 142 -87 q 90 -74 103 -87 q 76 -42 76 -61 m 76 122 q 90 154 76 142 q 122 167 103 167 q 154 154 142 167 q 167 122 167 142 q 154 90 167 103 q 122 76 142 76 q 90 90 103 76 q 76 122 76 103 m 76 614 q 90 646 76 633 q 122 658 103 658 q 154 646 142 658 q 167 614 167 633 q 154 581 167 594 q 122 568 142 568 q 90 581 103 568 q 76 614 76 594 m 76 778 q 90 810 76 797 q 122 822 103 822 q 154 810 142 822 q 167 778 167 797 q 154 745 167 758 q 122 732 142 732 q 90 745 103 732 q 76 778 76 758 z "},"":{"ha":738,"x_min":76,"x_max":658,"o":"m 240 696 q 253 728 240 715 q 286 740 267 740 q 318 728 306 740 q 331 696 331 715 q 318 663 331 676 q 286 650 306 650 q 253 663 267 650 q 240 696 240 676 m 404 -206 q 417 -174 404 -186 q 450 -161 431 -161 q 482 -174 469 -161 q 494 -206 494 -186 q 482 -238 494 -225 q 450 -251 469 -251 q 417 -238 431 -251 q 404 -206 404 -225 m 158 -206 q 172 -174 158 -186 q 204 -161 185 -161 q 236 -174 224 -161 q 249 -206 249 -186 q 236 -238 249 -225 q 204 -251 224 -251 q 172 -238 185 -251 q 158 -206 158 -225 m 568 -124 q 581 -92 568 -104 q 614 -79 594 -79 q 646 -92 633 -79 q 658 -124 658 -104 q 646 -156 658 -143 q 614 -169 633 -169 q 581 -156 594 -169 q 568 -124 568 -143 m 404 40 q 417 72 404 60 q 450 85 431 85 q 482 72 469 85 q 494 40 494 60 q 482 8 494 21 q 450 -6 469 -6 q 417 8 431 -6 q 404 40 404 21 m 568 122 q 581 154 568 142 q 614 167 594 167 q 646 154 633 167 q 658 122 658 142 q 646 90 658 103 q 614 76 633 76 q 581 90 594 76 q 568 122 568 103 m 240 122 q 253 154 240 142 q 286 167 267 167 q 318 154 306 167 q 331 122 331 142 q 318 90 331 103 q 286 76 306 76 q 253 90 267 76 q 240 122 240 103 m 404 286 q 417 318 404 306 q 450 331 431 331 q 482 318 469 331 q 494 286 494 306 q 482 253 494 267 q 450 240 469 240 q 417 253 431 240 q 404 286 404 267 m 158 286 q 172 318 158 306 q 204 331 185 331 q 236 318 224 331 q 249 286 249 306 q 236 253 249 267 q 204 240 224 240 q 172 253 185 240 q 158 286 158 267 m 240 450 q 253 482 240 469 q 286 494 267 494 q 318 482 306 494 q 331 450 331 469 q 318 417 331 431 q 286 404 306 404 q 253 417 267 404 q 240 450 240 431 m 76 614 q 90 646 76 633 q 122 658 103 658 q 154 646 142 658 q 167 614 167 633 q 154 581 167 594 q 122 568 142 568 q 90 581 103 568 q 76 614 76 594 m 568 696 q 581 728 568 715 q 614 740 594 740 q 646 728 633 740 q 658 696 658 715 q 646 663 658 676 q 614 650 633 650 q 581 663 594 650 q 568 696 568 676 m 404 696 q 417 728 404 715 q 450 740 431 740 q 482 728 469 740 q 494 696 494 715 q 482 663 494 676 q 450 650 469 650 q 417 663 431 650 q 404 696 404 676 z "},"":{"ha":410,"x_min":76,"x_max":331,"o":"m 76 696 q 90 728 76 715 q 122 740 103 740 q 154 728 142 740 q 167 696 167 715 q 154 663 167 676 q 122 650 142 650 q 90 663 103 650 q 76 696 76 676 m 240 696 q 253 728 240 715 q 286 740 267 740 q 318 728 306 740 q 331 696 331 715 q 318 663 331 676 q 286 650 306 650 q 253 663 267 650 q 240 696 240 676 z "},"":{"ha":901,"x_min":76,"x_max":822,"o":"m 322 696 q 335 728 322 715 q 368 740 349 740 q 400 728 388 740 q 413 696 413 715 q 400 663 413 676 q 368 650 388 650 q 335 663 349 650 q 322 696 322 676 m 486 40 q 499 72 486 60 q 532 85 513 85 q 564 72 551 85 q 576 40 576 60 q 564 8 576 21 q 532 -6 551 -6 q 499 8 513 -6 q 486 40 486 21 m 322 40 q 335 72 322 60 q 368 85 349 85 q 400 72 388 85 q 413 40 413 60 q 400 8 413 21 q 368 -6 388 -6 q 335 8 349 -6 q 322 40 322 21 m 650 122 q 663 154 650 142 q 696 167 676 167 q 728 154 715 167 q 740 122 740 142 q 728 90 740 103 q 696 76 715 76 q 663 90 676 76 q 650 122 650 103 m 158 122 q 172 154 158 142 q 204 167 185 167 q 236 154 224 167 q 249 122 249 142 q 236 90 249 103 q 204 76 224 76 q 172 90 185 76 q 158 122 158 103 m 404 204 q 417 236 404 224 q 450 249 431 249 q 482 236 469 249 q 494 204 494 224 q 482 172 494 185 q 450 158 469 158 q 417 172 431 158 q 404 204 404 185 m 732 286 q 745 318 732 306 q 778 331 758 331 q 810 318 797 331 q 822 286 822 306 q 810 253 822 267 q 778 240 797 240 q 745 253 758 240 q 732 286 732 267 m 568 286 q 581 318 568 306 q 614 331 594 331 q 646 318 633 331 q 658 286 658 306 q 646 253 658 267 q 614 240 633 240 q 581 253 594 240 q 568 286 568 267 m 240 286 q 253 318 240 306 q 286 331 267 331 q 318 318 306 331 q 331 286 331 306 q 318 253 331 267 q 286 240 306 240 q 253 253 267 240 q 240 286 240 267 m 76 286 q 90 318 76 306 q 122 331 103 331 q 154 318 142 331 q 167 286 167 306 q 154 253 167 267 q 122 240 142 240 q 90 253 103 240 q 76 286 76 267 m 732 450 q 745 482 732 469 q 778 494 758 494 q 810 482 797 494 q 822 450 822 469 q 810 417 822 431 q 778 404 797 404 q 745 417 758 404 q 732 450 732 431 m 568 450 q 581 482 568 469 q 614 494 594 494 q 646 482 633 494 q 658 450 658 469 q 646 417 658 431 q 614 404 633 404 q 581 417 594 404 q 568 450 568 431 m 240 450 q 253 482 240 469 q 286 494 267 494 q 318 482 306 494 q 331 450 331 469 q 318 417 331 431 q 286 404 306 404 q 253 417 267 404 q 240 450 240 431 m 76 450 q 90 482 76 469 q 122 494 103 494 q 154 482 142 494 q 167 450 167 469 q 154 417 167 431 q 122 404 142 404 q 90 417 103 404 q 76 450 76 431 m 404 532 q 417 564 404 551 q 450 576 431 576 q 482 564 469 576 q 494 532 494 551 q 482 499 494 513 q 450 486 469 486 q 417 499 431 486 q 404 532 404 513 m 650 614 q 663 646 650 633 q 696 658 676 658 q 728 646 715 658 q 740 614 740 633 q 728 581 740 594 q 696 568 715 568 q 663 581 676 568 q 650 614 650 594 m 158 614 q 172 646 158 633 q 204 658 185 658 q 236 646 224 658 q 249 614 249 633 q 236 581 249 594 q 204 568 224 568 q 172 581 185 568 q 158 614 158 594 m 486 696 q 499 728 486 715 q 532 740 513 740 q 564 728 551 740 q 576 696 576 715 q 564 663 576 676 q 532 650 551 650 q 499 663 513 650 q 486 696 486 676 z "},"":{"ha":656,"x_min":76,"x_max":576,"o":"m 158 696 q 172 728 158 715 q 204 740 185 740 q 236 728 224 740 q 249 696 249 715 q 236 663 249 676 q 204 650 224 650 q 172 663 185 650 q 158 696 158 676 m 486 368 q 499 400 486 388 q 532 413 513 413 q 564 400 551 413 q 576 368 576 388 q 564 335 576 349 q 532 322 551 322 q 499 335 513 322 q 486 368 486 349 m 322 368 q 335 400 322 388 q 368 413 349 413 q 400 400 388 413 q 413 368 413 388 q 400 335 413 349 q 368 322 388 322 q 335 335 349 322 q 322 368 322 349 m 158 368 q 172 400 158 388 q 204 413 185 413 q 236 400 224 413 q 249 368 249 388 q 236 335 249 349 q 204 322 224 322 q 172 335 185 322 q 158 368 158 349 m 404 532 q 417 564 404 551 q 450 576 431 576 q 482 564 469 576 q 494 532 494 551 q 482 499 494 513 q 450 486 469 486 q 417 499 431 486 q 404 532 404 513 m 76 532 q 90 564 76 551 q 122 576 103 576 q 154 564 142 576 q 167 532 167 551 q 154 499 167 513 q 122 486 142 486 q 90 499 103 486 q 76 532 76 513 m 322 696 q 335 728 322 715 q 368 740 349 740 q 400 728 388 740 q 413 696 413 715 q 400 663 413 676 q 368 650 388 650 q 335 663 349 650 q 322 696 322 676 z "},"":{"ha":983,"x_min":76,"x_max":904,"o":"m 404 696 q 417 728 404 715 q 450 740 431 740 q 482 728 469 740 q 494 696 494 715 q 482 663 494 676 q 450 650 469 650 q 417 663 431 650 q 404 696 404 676 m 814 40 q 827 72 814 60 q 860 85 840 85 q 892 72 879 85 q 904 40 904 60 q 892 8 904 21 q 860 -6 879 -6 q 827 8 840 -6 q 814 40 814 21 m 404 40 q 417 72 404 60 q 450 85 431 85 q 482 72 469 85 q 494 40 494 60 q 482 8 494 21 q 450 -6 469 -6 q 417 8 431 -6 q 404 40 404 21 m 650 204 q 663 236 650 224 q 696 249 676 249 q 728 236 715 249 q 740 204 740 224 q 728 172 740 185 q 696 158 715 158 q 663 172 676 158 q 650 204 650 185 m 240 204 q 253 236 240 224 q 286 249 267 249 q 318 236 306 249 q 331 204 331 224 q 318 172 331 185 q 286 158 306 158 q 253 172 267 158 q 240 204 240 185 m 486 368 q 499 400 486 388 q 532 413 513 413 q 564 400 551 413 q 576 368 576 388 q 564 335 576 349 q 532 322 551 322 q 499 335 513 322 q 486 368 486 349 m 76 368 q 90 400 76 388 q 122 413 103 413 q 154 400 142 413 q 167 368 167 388 q 154 335 167 349 q 122 322 142 322 q 90 335 103 322 q 76 368 76 349 m 650 532 q 663 564 650 551 q 696 576 676 576 q 728 564 715 576 q 740 532 740 551 q 728 499 740 513 q 696 486 715 486 q 663 499 676 486 q 650 532 650 513 m 240 532 q 253 564 240 551 q 286 576 267 576 q 318 564 306 576 q 331 532 331 551 q 318 499 331 513 q 286 486 306 486 q 253 499 267 486 q 240 532 240 513 m 814 696 q 827 728 814 715 q 860 740 840 740 q 892 728 879 740 q 904 696 904 715 q 892 663 904 676 q 860 650 879 650 q 827 663 840 650 q 814 696 814 676 z "},"":{"ha":656,"x_min":76,"x_max":576,"o":"m 76 450 q 90 482 76 469 q 122 494 103 494 q 154 482 142 494 q 167 450 167 469 q 154 417 167 431 q 122 404 142 404 q 90 417 103 404 q 76 450 76 431 m 486 286 q 499 318 486 306 q 532 331 513 331 q 564 318 551 331 q 576 286 576 306 q 564 253 576 267 q 532 240 551 240 q 499 253 513 240 q 486 286 486 267 m 404 450 q 417 482 404 469 q 450 494 431 494 q 482 482 469 494 q 494 450 494 469 q 482 417 494 431 q 450 404 469 404 q 417 417 431 404 q 404 450 404 431 m 240 450 q 253 482 240 469 q 286 494 267 494 q 318 482 306 494 q 331 450 331 469 q 318 417 331 431 q 286 404 306 404 q 253 417 267 404 q 240 450 240 431 z "},"":{"ha":738,"x_min":76,"x_max":658,"o":"m 76 368 q 90 400 76 388 q 122 413 103 413 q 154 400 142 413 q 167 368 167 388 q 154 335 167 349 q 122 322 142 322 q 90 335 103 322 q 76 368 76 349 m 568 368 q 581 400 568 388 q 614 413 594 413 q 646 400 633 413 q 658 368 658 388 q 646 335 658 349 q 614 322 633 322 q 581 335 594 322 q 568 368 568 349 m 404 368 q 417 400 404 388 q 450 413 431 413 q 482 400 469 413 q 494 368 494 388 q 482 335 494 349 q 450 322 469 322 q 417 335 431 322 q 404 368 404 349 m 240 368 q 253 400 240 388 q 286 413 267 413 q 318 400 306 413 q 331 368 331 388 q 318 335 331 349 q 286 322 306 322 q 253 335 267 322 q 240 368 240 349 z "},"":{"ha":901,"x_min":76,"x_max":822,"o":"m 322 696 q 335 728 322 715 q 368 740 349 740 q 400 728 388 740 q 413 696 413 715 q 400 663 413 676 q 368 650 388 650 q 335 663 349 650 q 322 696 322 676 m 486 40 q 499 72 486 60 q 532 85 513 85 q 564 72 551 85 q 576 40 576 60 q 564 8 576 21 q 532 -6 551 -6 q 499 8 513 -6 q 486 40 486 21 m 322 40 q 335 72 322 60 q 368 85 349 85 q 400 72 388 85 q 413 40 413 60 q 400 8 413 21 q 368 -6 388 -6 q 335 8 349 -6 q 322 40 322 21 m 650 122 q 663 154 650 142 q 696 167 676 167 q 728 154 715 167 q 740 122 740 142 q 728 90 740 103 q 696 76 715 76 q 663 90 676 76 q 650 122 650 103 m 158 122 q 172 154 158 142 q 204 167 185 167 q 236 154 224 167 q 249 122 249 142 q 236 90 249 103 q 204 76 224 76 q 172 90 185 76 q 158 122 158 103 m 322 204 q 335 236 322 224 q 368 249 349 249 q 400 236 388 249 q 413 204 413 224 q 400 172 413 185 q 368 158 388 158 q 335 172 349 158 q 322 204 322 185 m 732 286 q 745 318 732 306 q 778 331 758 331 q 810 318 797 331 q 822 286 822 306 q 810 253 822 267 q 778 240 797 240 q 745 253 758 240 q 732 286 732 267 m 568 286 q 581 318 568 306 q 614 331 594 331 q 646 318 633 331 q 658 286 658 306 q 646 253 658 267 q 614 240 633 240 q 581 253 594 240 q 568 286 568 267 m 76 286 q 90 318 76 306 q 122 331 103 331 q 154 318 142 331 q 167 286 167 306 q 154 253 167 267 q 122 240 142 240 q 90 253 103 240 q 76 286 76 267 m 486 368 q 499 400 486 388 q 532 413 513 413 q 564 400 551 413 q 576 368 576 388 q 564 335 576 349 q 532 322 551 322 q 499 335 513 322 q 486 368 486 349 m 322 368 q 335 400 322 388 q 368 413 349 413 q 400 400 388 413 q 413 368 413 388 q 400 335 413 349 q 368 322 388 322 q 335 335 349 322 q 322 368 322 349 m 732 450 q 745 482 732 469 q 778 494 758 494 q 810 482 797 494 q 822 450 822 469 q 810 417 822 431 q 778 404 797 404 q 745 417 758 404 q 732 450 732 431 m 76 450 q 90 482 76 469 q 122 494 103 494 q 154 482 142 494 q 167 450 167 469 q 154 417 167 431 q 122 404 142 404 q 90 417 103 404 q 76 450 76 431 m 486 532 q 499 564 486 551 q 532 576 513 576 q 564 564 551 576 q 576 532 576 551 q 564 499 576 513 q 532 486 551 486 q 499 499 513 486 q 486 532 486 513 m 322 532 q 335 564 322 551 q 368 576 349 576 q 400 564 388 576 q 413 532 413 551 q 400 499 413 513 q 368 486 388 486 q 335 499 349 486 q 322 532 322 513 m 650 614 q 663 646 650 633 q 696 658 676 658 q 728 646 715 658 q 740 614 740 633 q 728 581 740 594 q 696 568 715 568 q 663 581 676 568 q 650 614 650 594 m 158 614 q 172 646 158 633 q 204 658 185 658 q 236 646 224 658 q 249 614 249 633 q 236 581 249 594 q 204 568 224 568 q 172 581 185 568 q 158 614 158 594 m 486 696 q 499 728 486 715 q 532 740 513 740 q 564 728 551 740 q 576 696 576 715 q 564 663 576 676 q 532 650 551 650 q 499 663 513 650 q 486 696 486 676 z "},"":{"ha":574,"x_min":76,"x_max":494,"o":"m 76 696 q 90 728 76 715 q 122 740 103 740 q 154 728 142 740 q 167 696 167 715 q 154 663 167 676 q 122 650 142 650 q 90 663 103 650 q 76 696 76 676 m 404 696 q 417 728 404 715 q 450 740 431 740 q 482 728 469 740 q 494 696 494 715 q 482 663 494 676 q 450 650 469 650 q 417 663 431 650 q 404 696 404 676 m 240 696 q 253 728 240 715 q 286 740 267 740 q 318 728 306 740 q 331 696 331 715 q 318 663 331 676 q 286 650 306 650 q 253 663 267 650 q 240 696 240 676 z "},"":{"ha":656,"x_min":76,"x_max":494,"o":"m 158 696 q 172 728 158 715 q 204 740 185 740 q 236 728 224 740 q 249 696 249 715 q 236 663 249 676 q 204 650 224 650 q 172 663 185 650 q 158 696 158 676 m 322 368 q 335 400 322 388 q 368 413 349 413 q 400 400 388 413 q 413 368 413 388 q 400 335 413 349 q 368 322 388 322 q 335 335 349 322 q 322 368 322 349 m 158 368 q 172 400 158 388 q 204 413 185 413 q 236 400 224 413 q 249 368 249 388 q 236 335 249 349 q 204 322 224 322 q 172 335 185 322 q 158 368 158 349 m 404 532 q 417 564 404 551 q 450 576 431 576 q 482 564 469 576 q 494 532 494 551 q 482 499 494 513 q 450 486 469 486 q 417 499 431 486 q 404 532 404 513 m 76 532 q 90 564 76 551 q 122 576 103 576 q 154 564 142 576 q 167 532 167 551 q 154 499 167 513 q 122 486 142 486 q 90 499 103 486 q 76 532 76 513 m 322 696 q 335 728 322 715 q 368 740 349 740 q 400 728 388 740 q 413 696 413 715 q 400 663 413 676 q 368 650 388 650 q 335 663 349 650 q 322 696 322 676 z "},"":{"ha":574,"x_min":76,"x_max":494,"o":"m 240 614 q 253 646 240 633 q 286 658 267 658 q 318 646 306 658 q 331 614 331 633 q 318 581 331 594 q 286 568 306 568 q 253 581 267 568 q 240 614 240 594 m 404 122 q 417 154 404 142 q 450 167 431 167 q 482 154 469 167 q 494 122 494 142 q 482 90 494 103 q 450 76 469 76 q 417 90 431 76 q 404 122 404 103 m 240 122 q 253 154 240 142 q 286 167 267 167 q 318 154 306 167 q 331 122 331 142 q 318 90 331 103 q 286 76 306 76 q 253 90 267 76 q 240 122 240 103 m 76 122 q 90 154 76 142 q 122 167 103 167 q 154 154 142 167 q 167 122 167 142 q 154 90 167 103 q 122 76 142 76 q 90 90 103 76 q 76 122 76 103 m 240 286 q 253 318 240 306 q 286 331 267 331 q 318 318 306 331 q 331 286 331 306 q 318 253 331 267 q 286 240 306 240 q 253 253 267 240 q 240 286 240 267 m 404 450 q 417 482 404 469 q 450 494 431 494 q 482 482 469 494 q 494 450 494 469 q 482 417 494 431 q 450 404 469 404 q 417 417 431 404 q 404 450 404 431 m 240 450 q 253 482 240 469 q 286 494 267 494 q 318 482 306 494 q 331 450 331 469 q 318 417 331 431 q 286 404 306 404 q 253 417 267 404 q 240 450 240 431 m 76 450 q 90 482 76 469 q 122 494 103 494 q 154 482 142 494 q 167 450 167 469 q 154 417 167 431 q 122 404 142 404 q 90 417 103 404 q 76 450 76 431 z "},"":{"ha":656,"x_min":76,"x_max":494,"o":"m 240 696 q 253 728 240 715 q 286 740 267 740 q 318 728 306 740 q 331 696 331 715 q 318 663 331 676 q 286 650 306 650 q 253 663 267 650 q 240 696 240 676 m 404 368 q 417 400 404 388 q 450 413 431 413 q 482 400 469 413 q 494 368 494 388 q 482 335 494 349 q 450 322 469 322 q 417 335 431 322 q 404 368 404 349 m 240 368 q 253 400 240 388 q 286 413 267 413 q 318 400 306 413 q 331 368 331 388 q 318 335 331 349 q 286 322 306 322 q 253 335 267 322 q 240 368 240 349 m 76 368 q 90 400 76 388 q 122 413 103 413 q 154 400 142 413 q 167 368 167 388 q 154 335 167 349 q 122 322 142 322 q 90 335 103 322 q 76 368 76 349 m 240 532 q 253 564 240 551 q 286 576 267 576 q 318 564 306 576 q 331 532 331 551 q 318 499 331 513 q 286 486 306 486 q 253 499 267 486 q 240 532 240 513 m 404 614 q 417 646 404 633 q 450 658 431 658 q 482 646 469 658 q 494 614 494 633 q 482 581 494 594 q 450 568 469 568 q 417 581 431 568 q 404 614 404 594 m 76 614 q 90 646 76 633 q 122 658 103 658 q 154 646 142 658 q 167 614 167 633 q 154 581 167 594 q 122 568 142 568 q 90 581 103 568 q 76 614 76 594 z "},"":{"ha":574,"x_min":76,"x_max":494,"o":"m 76 696 q 90 728 76 715 q 122 740 103 740 q 154 728 142 740 q 167 696 167 715 q 154 663 167 676 q 122 650 142 650 q 90 663 103 650 q 76 696 76 676 m 240 368 q 253 400 240 388 q 286 413 267 413 q 318 400 306 413 q 331 368 331 388 q 318 335 331 349 q 286 322 306 322 q 253 335 267 322 q 240 368 240 349 m 76 368 q 90 400 76 388 q 122 413 103 413 q 154 400 142 413 q 167 368 167 388 q 154 335 167 349 q 122 322 142 322 q 90 335 103 322 q 76 368 76 349 m 404 450 q 417 482 404 469 q 450 494 431 494 q 482 482 469 494 q 494 450 494 469 q 482 417 494 431 q 450 404 469 404 q 417 417 431 404 q 404 450 404 431 m 240 532 q 253 564 240 551 q 286 576 267 576 q 318 564 306 576 q 331 532 331 551 q 318 499 331 513 q 286 486 306 486 q 253 499 267 486 q 240 532 240 513 m 404 614 q 417 646 404 633 q 450 658 431 658 q 482 646 469 658 q 494 614 494 633 q 482 581 494 594 q 450 568 469 568 q 417 581 431 568 q 404 614 404 594 m 240 696 q 253 728 240 715 q 286 740 267 740 q 318 728 306 740 q 331 696 331 715 q 318 663 331 676 q 286 650 306 650 q 253 663 267 650 q 240 696 240 676 z "},"":{"ha":410,"x_min":76,"x_max":331,"o":"m 240 696 q 253 728 240 715 q 286 740 267 740 q 318 728 306 740 q 331 696 331 715 q 318 663 331 676 q 286 650 306 650 q 253 663 267 650 q 240 696 240 676 m 76 614 q 90 646 76 633 q 122 658 103 658 q 154 646 142 658 q 167 614 167 633 q 154 581 167 594 q 122 568 142 568 q 90 581 103 568 q 76 614 76 594 z "},"":{"ha":901,"x_min":76,"x_max":822,"o":"m 76 696 q 90 728 76 715 q 122 740 103 740 q 154 728 142 740 q 167 696 167 715 q 154 663 167 676 q 122 650 142 650 q 90 663 103 650 q 76 696 76 676 m 76 -124 q 90 -92 76 -104 q 122 -79 103 -79 q 154 -92 142 -79 q 167 -124 167 -104 q 154 -156 167 -143 q 122 -169 142 -169 q 90 -156 103 -169 q 76 -124 76 -143 m 732 40 q 745 72 732 60 q 778 85 758 85 q 810 72 797 85 q 822 40 822 60 q 810 8 822 21 q 778 -6 797 -6 q 745 8 758 -6 q 732 40 732 21 m 404 40 q 417 72 404 60 q 450 85 431 85 q 482 72 469 85 q 494 40 494 60 q 482 8 494 21 q 450 -6 469 -6 q 417 8 431 -6 q 404 40 404 21 m 76 40 q 90 72 76 60 q 122 85 103 85 q 154 72 142 85 q 167 40 167 60 q 154 8 167 21 q 122 -6 142 -6 q 90 8 103 -6 q 76 40 76 21 m 568 122 q 581 154 568 142 q 614 167 594 167 q 646 154 633 167 q 658 122 658 142 q 646 90 658 103 q 614 76 633 76 q 581 90 594 76 q 568 122 568 103 m 240 122 q 253 154 240 142 q 286 167 267 167 q 318 154 306 167 q 331 122 331 142 q 318 90 331 103 q 286 76 306 76 q 253 90 267 76 q 240 122 240 103 m 732 204 q 745 236 732 224 q 778 249 758 249 q 810 236 797 249 q 822 204 822 224 q 810 172 822 185 q 778 158 797 158 q 745 172 758 158 q 732 204 732 185 m 76 204 q 90 236 76 224 q 122 249 103 249 q 154 236 142 249 q 167 204 167 224 q 154 172 167 185 q 122 158 142 158 q 90 172 103 158 q 76 204 76 185 m 732 368 q 745 400 732 388 q 778 413 758 413 q 810 400 797 413 q 822 368 822 388 q 810 335 822 349 q 778 322 797 322 q 745 335 758 322 q 732 368 732 349 m 76 368 q 90 400 76 388 q 122 413 103 413 q 154 400 142 413 q 167 368 167 388 q 154 335 167 349 q 122 322 142 322 q 90 335 103 322 q 76 368 76 349 m 732 532 q 745 564 732 551 q 778 576 758 576 q 810 564 797 576 q 822 532 822 551 q 810 499 822 513 q 778 486 797 486 q 745 499 758 486 q 732 532 732 513 m 76 532 q 90 564 76 551 q 122 576 103 576 q 154 564 142 576 q 167 532 167 551 q 154 499 167 513 q 122 486 142 486 q 90 499 103 486 q 76 532 76 513 m 732 696 q 745 728 732 715 q 778 740 758 740 q 810 728 797 740 q 822 696 822 715 q 810 663 822 676 q 778 650 797 650 q 745 663 758 650 q 732 696 732 676 z "},"":{"ha":901,"x_min":76,"x_max":822,"o":"m 240 696 q 253 728 240 715 q 286 740 267 740 q 318 728 306 740 q 331 696 331 715 q 318 663 331 676 q 286 650 306 650 q 253 663 267 650 q 240 696 240 676 m 568 -124 q 581 -92 568 -104 q 614 -79 594 -79 q 646 -92 633 -79 q 658 -124 658 -104 q 646 -156 658 -143 q 614 -169 633 -169 q 581 -156 594 -169 q 568 -124 568 -143 m 404 -124 q 417 -92 404 -104 q 450 -79 431 -79 q 482 -92 469 -79 q 494 -124 494 -104 q 482 -156 494 -143 q 450 -169 469 -169 q 417 -156 431 -169 q 404 -124 404 -143 m 568 40 q 581 72 568 60 q 614 85 594 85 q 646 72 633 85 q 658 40 658 60 q 646 8 658 21 q 614 -6 633 -6 q 581 8 594 -6 q 568 40 568 21 m 404 40 q 417 72 404 60 q 450 85 431 85 q 482 72 469 85 q 494 40 494 60 q 482 8 494 21 q 450 -6 469 -6 q 417 8 431 -6 q 404 40 404 21 m 568 204 q 581 236 568 224 q 614 249 594 249 q 646 236 633 249 q 658 204 658 224 q 646 172 658 185 q 614 158 633 158 q 581 172 594 158 q 568 204 568 185 m 404 204 q 417 236 404 224 q 450 249 431 249 q 482 236 469 249 q 494 204 494 224 q 482 172 494 185 q 450 158 469 158 q 417 172 431 158 q 404 204 404 185 m 568 368 q 581 400 568 388 q 614 413 594 413 q 646 400 633 413 q 658 368 658 388 q 646 335 658 349 q 614 322 633 322 q 581 335 594 322 q 568 368 568 349 m 404 368 q 417 400 404 388 q 450 413 431 413 q 482 400 469 413 q 494 368 494 388 q 482 335 494 349 q 450 322 469 322 q 417 335 431 322 q 404 368 404 349 m 240 368 q 253 400 240 388 q 286 413 267 413 q 318 400 306 413 q 331 368 331 388 q 318 335 331 349 q 286 322 306 322 q 253 335 267 322 q 240 368 240 349 m 76 450 q 90 482 76 469 q 122 494 103 494 q 154 482 142 494 q 167 450 167 469 q 154 417 167 431 q 122 404 142 404 q 90 417 103 404 q 76 450 76 431 m 568 532 q 581 564 568 551 q 614 576 594 576 q 646 564 633 576 q 658 532 658 551 q 646 499 658 513 q 614 486 633 486 q 581 499 594 486 q 568 532 568 513 m 404 532 q 417 564 404 551 q 450 576 431 576 q 482 564 469 576 q 494 532 494 551 q 482 499 494 513 q 450 486 469 486 q 417 499 431 486 q 404 532 404 513 m 76 614 q 90 646 76 633 q 122 658 103 658 q 154 646 142 658 q 167 614 167 633 q 154 581 167 594 q 122 568 142 568 q 90 581 103 568 q 76 614 76 594 m 732 696 q 745 728 732 715 q 778 740 758 740 q 810 728 797 740 q 822 696 822 715 q 810 663 822 676 q 778 650 797 650 q 745 663 758 650 q 732 696 732 676 m 568 696 q 581 728 568 715 q 614 740 594 740 q 646 728 633 740 q 658 696 658 715 q 646 663 658 676 q 614 650 633 650 q 581 663 594 650 q 568 696 568 676 m 404 696 q 417 728 404 715 q 450 740 431 740 q 482 728 469 740 q 494 696 494 715 q 482 663 494 676 q 450 650 469 650 q 417 663 431 650 q 404 696 404 676 z "},"":{"ha":246,"x_min":76,"x_max":167,"o":"m 76 368 q 90 400 76 388 q 122 413 103 413 q 154 400 142 413 q 167 368 167 388 q 154 335 167 349 q 122 322 142 322 q 90 335 103 322 q 76 368 76 349 z "},"":{"ha":410,"x_min":76,"x_max":331,"o":"m 240 -124 q 253 -92 240 -104 q 286 -79 267 -79 q 318 -92 306 -79 q 331 -124 331 -104 q 318 -156 331 -143 q 286 -169 306 -169 q 253 -156 267 -169 q 240 -124 240 -143 m 76 -206 q 90 -174 76 -186 q 122 -161 103 -161 q 154 -174 142 -161 q 167 -206 167 -186 q 154 -238 167 -225 q 122 -251 142 -251 q 90 -238 103 -251 q 76 -206 76 -225 z "},"":{"ha":574,"x_min":76,"x_max":494,"o":"m 240 696 q 253 728 240 715 q 286 740 267 740 q 318 728 306 740 q 331 696 331 715 q 318 663 331 676 q 286 650 306 650 q 253 663 267 650 q 240 696 240 676 m 404 368 q 417 400 404 388 q 450 413 431 413 q 482 400 469 413 q 494 368 494 388 q 482 335 494 349 q 450 322 469 322 q 417 335 431 322 q 404 368 404 349 m 240 368 q 253 400 240 388 q 286 413 267 413 q 318 400 306 413 q 331 368 331 388 q 318 335 331 349 q 286 322 306 322 q 253 335 267 322 q 240 368 240 349 m 76 368 q 90 400 76 388 q 122 413 103 413 q 154 400 142 413 q 167 368 167 388 q 154 335 167 349 q 122 322 142 322 q 90 335 103 322 q 76 368 76 349 m 240 532 q 253 564 240 551 q 286 576 267 576 q 318 564 306 576 q 331 532 331 551 q 318 499 331 513 q 286 486 306 486 q 253 499 267 486 q 240 532 240 513 m 76 614 q 90 646 76 633 q 122 658 103 658 q 154 646 142 658 q 167 614 167 633 q 154 581 167 594 q 122 568 142 568 q 90 581 103 568 q 76 614 76 594 z "},"":{"ha":574,"x_min":76,"x_max":494,"o":"m 158 696 q 172 728 158 715 q 204 740 185 740 q 236 728 224 740 q 249 696 249 715 q 236 663 249 676 q 204 650 224 650 q 172 663 185 650 q 158 696 158 676 m 322 368 q 335 400 322 388 q 368 413 349 413 q 400 400 388 413 q 413 368 413 388 q 400 335 413 349 q 368 322 388 322 q 335 335 349 322 q 322 368 322 349 m 158 368 q 172 400 158 388 q 204 413 185 413 q 236 400 224 413 q 249 368 249 388 q 236 335 249 349 q 204 322 224 322 q 172 335 185 322 q 158 368 158 349 m 404 532 q 417 564 404 551 q 450 576 431 576 q 482 564 469 576 q 494 532 494 551 q 482 499 494 513 q 450 486 469 486 q 417 499 431 486 q 404 532 404 513 m 76 532 q 90 564 76 551 q 122 576 103 576 q 154 564 142 576 q 167 532 167 551 q 154 499 167 513 q 122 486 142 486 q 90 499 103 486 q 76 532 76 513 m 322 696 q 335 728 322 715 q 368 740 349 740 q 400 728 388 740 q 413 696 413 715 q 400 663 413 676 q 368 650 388 650 q 335 663 349 650 q 322 696 322 676 z "},"":{"ha":983,"x_min":76,"x_max":904,"o":"m 76 696 q 90 728 76 715 q 122 740 103 740 q 154 728 142 740 q 167 696 167 715 q 154 663 167 676 q 122 650 142 650 q 90 663 103 650 q 76 696 76 676 m 486 40 q 499 72 486 60 q 532 85 513 85 q 564 72 551 85 q 576 40 576 60 q 564 8 576 21 q 532 -6 551 -6 q 499 8 513 -6 q 486 40 486 21 m 76 40 q 90 72 76 60 q 122 85 103 85 q 154 72 142 85 q 167 40 167 60 q 154 8 167 21 q 122 -6 142 -6 q 90 8 103 -6 q 76 40 76 21 m 650 204 q 663 236 650 224 q 696 249 676 249 q 728 236 715 249 q 740 204 740 224 q 728 172 740 185 q 696 158 715 158 q 663 172 676 158 q 650 204 650 185 m 240 204 q 253 236 240 224 q 286 249 267 249 q 318 236 306 249 q 331 204 331 224 q 318 172 331 185 q 286 158 306 158 q 253 172 267 158 q 240 204 240 185 m 814 368 q 827 400 814 388 q 860 413 840 413 q 892 400 879 413 q 904 368 904 388 q 892 335 904 349 q 860 322 879 322 q 827 335 840 322 q 814 368 814 349 m 404 368 q 417 400 404 388 q 450 413 431 413 q 482 400 469 413 q 494 368 494 388 q 482 335 494 349 q 450 322 469 322 q 417 335 431 322 q 404 368 404 349 m 650 532 q 663 564 650 551 q 696 576 676 576 q 728 564 715 576 q 740 532 740 551 q 728 499 740 513 q 696 486 715 486 q 663 499 676 486 q 650 532 650 513 m 240 532 q 253 564 240 551 q 286 576 267 576 q 318 564 306 576 q 331 532 331 551 q 318 499 331 513 q 286 486 306 486 q 253 499 267 486 q 240 532 240 513 m 486 696 q 499 728 486 715 q 532 740 513 740 q 564 728 551 740 q 576 696 576 715 q 564 663 576 676 q 532 650 551 650 q 499 663 513 650 q 486 696 486 676 z "},"":{"ha":1311,"x_min":76,"x_max":1232,"o":"m 240 696 q 253 728 240 715 q 286 740 267 740 q 318 728 306 740 q 331 696 331 715 q 318 663 331 676 q 286 650 306 650 q 253 663 267 650 q 240 696 240 676 m 978 -124 q 991 -92 978 -104 q 1024 -79 1004 -79 q 1056 -92 1043 -79 q 1068 -124 1068 -104 q 1056 -156 1068 -143 q 1024 -169 1043 -169 q 991 -156 1004 -169 q 978 -124 978 -143 m 1142 40 q 1155 72 1142 60 q 1188 85 1168 85 q 1219 72 1207 85 q 1232 40 1232 60 q 1219 8 1232 21 q 1188 -6 1207 -6 q 1155 8 1168 -6 q 1142 40 1142 21 m 978 40 q 991 72 978 60 q 1024 85 1004 85 q 1056 72 1043 85 q 1068 40 1068 60 q 1056 8 1068 21 q 1024 -6 1043 -6 q 991 8 1004 -6 q 978 40 978 21 m 732 40 q 745 72 732 60 q 778 85 758 85 q 810 72 797 85 q 822 40 822 60 q 810 8 822 21 q 778 -6 797 -6 q 745 8 758 -6 q 732 40 732 21 m 240 40 q 253 72 240 60 q 286 85 267 85 q 318 72 306 85 q 331 40 331 60 q 318 8 331 21 q 286 -6 306 -6 q 253 8 267 -6 q 240 40 240 21 m 978 204 q 991 236 978 224 q 1024 249 1004 249 q 1056 236 1043 249 q 1068 204 1068 224 q 1056 172 1068 185 q 1024 158 1043 158 q 991 172 1004 158 q 978 204 978 185 m 814 204 q 827 236 814 224 q 860 249 840 249 q 892 236 879 249 q 904 204 904 224 q 892 172 904 185 q 860 158 879 158 q 827 172 840 158 q 814 204 814 185 m 404 204 q 417 236 404 224 q 450 249 431 249 q 482 236 469 249 q 494 204 494 224 q 482 172 494 185 q 450 158 469 158 q 417 172 431 158 q 404 204 404 185 m 978 368 q 991 400 978 388 q 1024 413 1004 413 q 1056 400 1043 413 q 1068 368 1068 388 q 1056 335 1068 349 q 1024 322 1043 322 q 991 335 1004 322 q 978 368 978 349 m 568 368 q 581 400 568 388 q 614 413 594 413 q 646 400 633 413 q 658 368 658 388 q 646 335 658 349 q 614 322 633 322 q 581 335 594 322 q 568 368 568 349 m 404 368 q 417 400 404 388 q 450 413 431 413 q 482 400 469 413 q 494 368 494 388 q 482 335 494 349 q 450 322 469 322 q 417 335 431 322 q 404 368 404 349 m 240 368 q 253 400 240 388 q 286 413 267 413 q 318 400 306 413 q 331 368 331 388 q 318 335 331 349 q 286 322 306 322 q 253 335 267 322 q 240 368 240 349 m 76 368 q 90 400 76 388 q 122 413 103 413 q 154 400 142 413 q 167 368 167 388 q 154 335 167 349 q 122 322 142 322 q 90 335 103 322 q 76 368 76 349 m 732 532 q 745 564 732 551 q 778 576 758 576 q 810 564 797 576 q 822 532 822 551 q 810 499 822 513 q 778 486 797 486 q 745 499 758 486 q 732 532 732 513 m 240 532 q 253 564 240 551 q 286 576 267 576 q 318 564 306 576 q 331 532 331 551 q 318 499 331 513 q 286 486 306 486 q 253 499 267 486 q 240 532 240 513 m 76 614 q 90 646 76 633 q 122 658 103 658 q 154 646 142 658 q 167 614 167 633 q 154 581 167 594 q 122 568 142 568 q 90 581 103 568 q 76 614 76 594 m 896 696 q 909 728 896 715 q 942 740 922 740 q 974 728 961 740 q 986 696 986 715 q 974 663 986 676 q 942 650 961 650 q 909 663 922 650 q 896 696 896 676 z "},"":{"ha":1229,"x_min":76,"x_max":1150,"o":"m 240 696 q 253 728 240 715 q 286 740 267 740 q 318 728 306 740 q 331 696 331 715 q 318 663 331 676 q 286 650 306 650 q 253 663 267 650 q 240 696 240 676 m 1060 40 q 1073 72 1060 60 q 1106 85 1086 85 q 1138 72 1125 85 q 1150 40 1150 60 q 1138 8 1150 21 q 1106 -6 1125 -6 q 1073 8 1086 -6 q 1060 40 1060 21 m 896 40 q 909 72 896 60 q 942 85 922 85 q 974 72 961 85 q 986 40 986 60 q 974 8 986 21 q 942 -6 961 -6 q 909 8 922 -6 q 896 40 896 21 m 732 40 q 745 72 732 60 q 778 85 758 85 q 810 72 797 85 q 822 40 822 60 q 810 8 822 21 q 778 -6 797 -6 q 745 8 758 -6 q 732 40 732 21 m 240 40 q 253 72 240 60 q 286 85 267 85 q 318 72 306 85 q 331 40 331 60 q 318 8 331 21 q 286 -6 306 -6 q 253 8 267 -6 q 240 40 240 21 m 896 204 q 909 236 896 224 q 942 249 922 249 q 974 236 961 249 q 986 204 986 224 q 974 172 986 185 q 942 158 961 158 q 909 172 922 158 q 896 204 896 185 m 404 204 q 417 236 404 224 q 450 249 431 249 q 482 236 469 249 q 494 204 494 224 q 482 172 494 185 q 450 158 469 158 q 417 172 431 158 q 404 204 404 185 m 1060 286 q 1073 318 1060 306 q 1106 331 1086 331 q 1138 318 1125 331 q 1150 286 1150 306 q 1138 253 1150 267 q 1106 240 1125 240 q 1073 253 1086 240 q 1060 286 1060 267 m 732 286 q 745 318 732 306 q 778 331 758 331 q 810 318 797 331 q 822 286 822 306 q 810 253 822 267 q 778 240 797 240 q 745 253 758 240 q 732 286 732 267 m 896 368 q 909 400 896 388 q 942 413 922 413 q 974 400 961 413 q 986 368 986 388 q 974 335 986 349 q 942 322 961 322 q 909 335 922 322 q 896 368 896 349 m 568 368 q 581 400 568 388 q 614 413 594 413 q 646 400 633 413 q 658 368 658 388 q 646 335 658 349 q 614 322 633 322 q 581 335 594 322 q 568 368 568 349 m 404 368 q 417 400 404 388 q 450 413 431 413 q 482 400 469 413 q 494 368 494 388 q 482 335 494 349 q 450 322 469 322 q 417 335 431 322 q 404 368 404 349 m 240 368 q 253 400 240 388 q 286 413 267 413 q 318 400 306 413 q 331 368 331 388 q 318 335 331 349 q 286 322 306 322 q 253 335 267 322 q 240 368 240 349 m 76 368 q 90 400 76 388 q 122 413 103 413 q 154 400 142 413 q 167 368 167 388 q 154 335 167 349 q 122 322 142 322 q 90 335 103 322 q 76 368 76 349 m 732 532 q 745 564 732 551 q 778 576 758 576 q 810 564 797 576 q 822 532 822 551 q 810 499 822 513 q 778 486 797 486 q 745 499 758 486 q 732 532 732 513 m 240 532 q 253 564 240 551 q 286 576 267 576 q 318 564 306 576 q 331 532 331 551 q 318 499 331 513 q 286 486 306 486 q 253 499 267 486 q 240 532 240 513 m 76 614 q 90 646 76 633 q 122 658 103 658 q 154 646 142 658 q 167 614 167 633 q 154 581 167 594 q 122 568 142 568 q 90 581 103 568 q 76 614 76 594 m 896 696 q 909 728 896 715 q 942 740 922 740 q 974 728 961 740 q 986 696 986 715 q 974 663 986 676 q 942 650 961 650 q 909 663 922 650 q 896 696 896 676 z "},"":{"ha":1393,"x_min":158,"x_max":1314,"o":"m 158 696 q 172 728 158 715 q 204 740 185 740 q 236 728 224 740 q 249 696 249 715 q 236 663 249 676 q 204 650 224 650 q 172 663 185 650 q 158 696 158 676 m 1060 -124 q 1073 -92 1060 -104 q 1106 -79 1086 -79 q 1138 -92 1125 -79 q 1150 -124 1150 -104 q 1138 -156 1150 -143 q 1106 -169 1125 -169 q 1073 -156 1086 -169 q 1060 -124 1060 -143 m 1224 40 q 1237 72 1224 60 q 1269 85 1250 85 q 1301 72 1289 85 q 1314 40 1314 60 q 1301 8 1314 21 q 1269 -6 1289 -6 q 1237 8 1250 -6 q 1224 40 1224 21 m 1060 40 q 1073 72 1060 60 q 1106 85 1086 85 q 1138 72 1125 85 q 1150 40 1150 60 q 1138 8 1150 21 q 1106 -6 1125 -6 q 1073 8 1086 -6 q 1060 40 1060 21 m 814 40 q 827 72 814 60 q 860 85 840 85 q 892 72 879 85 q 904 40 904 60 q 892 8 904 21 q 860 -6 879 -6 q 827 8 840 -6 q 814 40 814 21 m 322 40 q 335 72 322 60 q 368 85 349 85 q 400 72 388 85 q 413 40 413 60 q 400 8 413 21 q 368 -6 388 -6 q 335 8 349 -6 q 322 40 322 21 m 1060 204 q 1073 236 1060 224 q 1106 249 1086 249 q 1138 236 1125 249 q 1150 204 1150 224 q 1138 172 1150 185 q 1106 158 1125 158 q 1073 172 1086 158 q 1060 204 1060 185 m 896 204 q 909 236 896 224 q 942 249 922 249 q 974 236 961 249 q 986 204 986 224 q 974 172 986 185 q 942 158 961 158 q 909 172 922 158 q 896 204 896 185 m 486 204 q 499 236 486 224 q 532 249 513 249 q 564 236 551 249 q 576 204 576 224 q 564 172 576 185 q 532 158 551 158 q 499 172 513 158 q 486 204 486 185 m 1060 368 q 1073 400 1060 388 q 1106 413 1086 413 q 1138 400 1125 413 q 1150 368 1150 388 q 1138 335 1150 349 q 1106 322 1125 322 q 1073 335 1086 322 q 1060 368 1060 349 m 650 368 q 663 400 650 388 q 696 413 676 413 q 728 400 715 413 q 740 368 740 388 q 728 335 740 349 q 696 322 715 322 q 663 335 676 322 q 650 368 650 349 m 322 368 q 335 400 322 388 q 368 413 349 413 q 400 400 388 413 q 413 368 413 388 q 400 335 413 349 q 368 322 388 322 q 335 335 349 322 q 322 368 322 349 m 158 368 q 172 400 158 388 q 204 413 185 413 q 236 400 224 413 q 249 368 249 388 q 236 335 249 349 q 204 322 224 322 q 172 335 185 322 q 158 368 158 349 m 486 450 q 499 482 486 469 q 532 494 513 494 q 564 482 551 494 q 576 450 576 469 q 564 417 576 431 q 532 404 551 404 q 499 417 513 404 q 486 450 486 431 m 814 532 q 827 564 814 551 q 860 576 840 576 q 892 564 879 576 q 904 532 904 551 q 892 499 904 513 q 860 486 879 486 q 827 499 840 486 q 814 532 814 513 m 322 532 q 335 564 322 551 q 368 576 349 576 q 400 564 388 576 q 413 532 413 551 q 400 499 413 513 q 368 486 388 486 q 335 499 349 486 q 322 532 322 513 m 486 614 q 499 646 486 633 q 532 658 513 658 q 564 646 551 658 q 576 614 576 633 q 564 581 576 594 q 532 568 551 568 q 499 581 513 568 q 486 614 486 594 m 978 696 q 991 728 978 715 q 1024 740 1004 740 q 1056 728 1043 740 q 1068 696 1068 715 q 1056 663 1068 676 q 1024 650 1043 650 q 991 663 1004 650 q 978 696 978 676 m 322 696 q 335 728 322 715 q 368 740 349 740 q 400 728 388 740 q 413 696 413 715 q 400 663 413 676 q 368 650 388 650 q 335 663 349 650 q 322 696 322 676 z "},"":{"ha":574,"x_min":76,"x_max":494,"o":"m 240 532 q 253 564 240 551 q 286 576 267 576 q 318 564 306 576 q 331 532 331 551 q 318 499 331 513 q 286 486 306 486 q 253 499 267 486 q 240 532 240 513 m 240 -124 q 253 -92 240 -104 q 286 -79 267 -79 q 318 -92 306 -79 q 331 -124 331 -104 q 318 -156 331 -143 q 286 -169 306 -169 q 253 -156 267 -169 q 240 -124 240 -143 m 404 -42 q 417 -10 404 -22 q 450 3 431 3 q 482 -10 469 3 q 494 -42 494 -22 q 482 -74 494 -61 q 450 -87 469 -87 q 417 -74 431 -87 q 404 -42 404 -61 m 76 -42 q 90 -10 76 -22 q 122 3 103 3 q 154 -10 142 3 q 167 -42 167 -22 q 154 -74 167 -61 q 122 -87 142 -87 q 90 -74 103 -87 q 76 -42 76 -61 m 76 122 q 90 154 76 142 q 122 167 103 167 q 154 154 142 167 q 167 122 167 142 q 154 90 167 103 q 122 76 142 76 q 90 90 103 76 q 76 122 76 103 m 240 286 q 253 318 240 306 q 286 331 267 331 q 318 318 306 331 q 331 286 331 306 q 318 253 331 267 q 286 240 306 240 q 253 253 267 240 q 240 286 240 267 z "},"":{"ha":901,"x_min":76,"x_max":822,"o":"m 322 942 q 335 974 322 961 q 368 986 349 986 q 400 974 388 986 q 413 942 413 961 q 400 909 413 922 q 368 896 388 896 q 335 909 349 896 q 322 942 322 922 m 732 40 q 745 72 732 60 q 778 85 758 85 q 810 72 797 85 q 822 40 822 60 q 810 8 822 21 q 778 -6 797 -6 q 745 8 758 -6 q 732 40 732 21 m 76 40 q 90 72 76 60 q 122 85 103 85 q 154 72 142 85 q 167 40 167 60 q 154 8 167 21 q 122 -6 142 -6 q 90 8 103 -6 q 76 40 76 21 m 732 204 q 745 236 732 224 q 778 249 758 249 q 810 236 797 249 q 822 204 822 224 q 810 172 822 185 q 778 158 797 158 q 745 172 758 158 q 732 204 732 185 m 76 204 q 90 236 76 224 q 122 249 103 249 q 154 236 142 249 q 167 204 167 224 q 154 172 167 185 q 122 158 142 158 q 90 172 103 158 q 76 204 76 185 m 568 286 q 581 318 568 306 q 614 331 594 331 q 646 318 633 331 q 658 286 658 306 q 646 253 658 267 q 614 240 633 240 q 581 253 594 240 q 568 286 568 267 m 404 286 q 417 318 404 306 q 450 331 431 331 q 482 318 469 331 q 494 286 494 306 q 482 253 494 267 q 450 240 469 240 q 417 253 431 240 q 404 286 404 267 m 240 286 q 253 318 240 306 q 286 331 267 331 q 318 318 306 331 q 331 286 331 306 q 318 253 331 267 q 286 240 306 240 q 253 253 267 240 q 240 286 240 267 m 732 368 q 745 400 732 388 q 778 413 758 413 q 810 400 797 413 q 822 368 822 388 q 810 335 822 349 q 778 322 797 322 q 745 335 758 322 q 732 368 732 349 m 76 368 q 90 400 76 388 q 122 413 103 413 q 154 400 142 413 q 167 368 167 388 q 154 335 167 349 q 122 322 142 322 q 90 335 103 322 q 76 368 76 349 m 732 532 q 745 564 732 551 q 778 576 758 576 q 810 564 797 576 q 822 532 822 551 q 810 499 822 513 q 778 486 797 486 q 745 499 758 486 q 732 532 732 513 m 76 532 q 90 564 76 551 q 122 576 103 576 q 154 564 142 576 q 167 532 167 551 q 154 499 167 513 q 122 486 142 486 q 90 499 103 486 q 76 532 76 513 m 568 696 q 581 728 568 715 q 614 740 594 740 q 646 728 633 740 q 658 696 658 715 q 646 663 658 676 q 614 650 633 650 q 581 663 594 650 q 568 696 568 676 m 404 696 q 417 728 404 715 q 450 740 431 740 q 482 728 469 740 q 494 696 494 715 q 482 663 494 676 q 450 650 469 650 q 417 663 431 650 q 404 696 404 676 m 240 696 q 253 728 240 715 q 286 740 267 740 q 318 728 306 740 q 331 696 331 715 q 318 663 331 676 q 286 650 306 650 q 253 663 267 650 q 240 696 240 676 m 486 860 q 499 892 486 879 q 532 904 513 904 q 564 892 551 904 q 576 860 576 879 q 564 827 576 840 q 532 814 551 814 q 499 827 513 814 q 486 860 486 840 z "},"":{"ha":901,"x_min":76,"x_max":822,"o":"m 486 942 q 499 974 486 961 q 532 986 513 986 q 564 974 551 986 q 576 942 576 961 q 564 909 576 922 q 532 896 551 896 q 499 909 513 896 q 486 942 486 922 m 732 40 q 745 72 732 60 q 778 85 758 85 q 810 72 797 85 q 822 40 822 60 q 810 8 822 21 q 778 -6 797 -6 q 745 8 758 -6 q 732 40 732 21 m 76 40 q 90 72 76 60 q 122 85 103 85 q 154 72 142 85 q 167 40 167 60 q 154 8 167 21 q 122 -6 142 -6 q 90 8 103 -6 q 76 40 76 21 m 732 204 q 745 236 732 224 q 778 249 758 249 q 810 236 797 249 q 822 204 822 224 q 810 172 822 185 q 778 158 797 158 q 745 172 758 158 q 732 204 732 185 m 76 204 q 90 236 76 224 q 122 249 103 249 q 154 236 142 249 q 167 204 167 224 q 154 172 167 185 q 122 158 142 158 q 90 172 103 158 q 76 204 76 185 m 568 286 q 581 318 568 306 q 614 331 594 331 q 646 318 633 331 q 658 286 658 306 q 646 253 658 267 q 614 240 633 240 q 581 253 594 240 q 568 286 568 267 m 404 286 q 417 318 404 306 q 450 331 431 331 q 482 318 469 331 q 494 286 494 306 q 482 253 494 267 q 450 240 469 240 q 417 253 431 240 q 404 286 404 267 m 240 286 q 253 318 240 306 q 286 331 267 331 q 318 318 306 331 q 331 286 331 306 q 318 253 331 267 q 286 240 306 240 q 253 253 267 240 q 240 286 240 267 m 732 368 q 745 400 732 388 q 778 413 758 413 q 810 400 797 413 q 822 368 822 388 q 810 335 822 349 q 778 322 797 322 q 745 335 758 322 q 732 368 732 349 m 76 368 q 90 400 76 388 q 122 413 103 413 q 154 400 142 413 q 167 368 167 388 q 154 335 167 349 q 122 322 142 322 q 90 335 103 322 q 76 368 76 349 m 732 532 q 745 564 732 551 q 778 576 758 576 q 810 564 797 576 q 822 532 822 551 q 810 499 822 513 q 778 486 797 486 q 745 499 758 486 q 732 532 732 513 m 76 532 q 90 564 76 551 q 122 576 103 576 q 154 564 142 576 q 167 532 167 551 q 154 499 167 513 q 122 486 142 486 q 90 499 103 486 q 76 532 76 513 m 568 696 q 581 728 568 715 q 614 740 594 740 q 646 728 633 740 q 658 696 658 715 q 646 663 658 676 q 614 650 633 650 q 581 663 594 650 q 568 696 568 676 m 404 696 q 417 728 404 715 q 450 740 431 740 q 482 728 469 740 q 494 696 494 715 q 482 663 494 676 q 450 650 469 650 q 417 663 431 650 q 404 696 404 676 m 240 696 q 253 728 240 715 q 286 740 267 740 q 318 728 306 740 q 331 696 331 715 q 318 663 331 676 q 286 650 306 650 q 253 663 267 650 q 240 696 240 676 m 322 860 q 335 892 322 879 q 368 904 349 904 q 400 892 388 904 q 413 860 413 879 q 400 827 413 840 q 368 814 388 814 q 335 827 349 814 q 322 860 322 840 z "},"":{"ha":901,"x_min":76,"x_max":822,"o":"m 404 942 q 417 974 404 961 q 450 986 431 986 q 482 974 469 986 q 494 942 494 961 q 482 909 494 922 q 450 896 469 896 q 417 909 431 896 q 404 942 404 922 m 732 40 q 745 72 732 60 q 778 85 758 85 q 810 72 797 85 q 822 40 822 60 q 810 8 822 21 q 778 -6 797 -6 q 745 8 758 -6 q 732 40 732 21 m 76 40 q 90 72 76 60 q 122 85 103 85 q 154 72 142 85 q 167 40 167 60 q 154 8 167 21 q 122 -6 142 -6 q 90 8 103 -6 q 76 40 76 21 m 732 204 q 745 236 732 224 q 778 249 758 249 q 810 236 797 249 q 822 204 822 224 q 810 172 822 185 q 778 158 797 158 q 745 172 758 158 q 732 204 732 185 m 76 204 q 90 236 76 224 q 122 249 103 249 q 154 236 142 249 q 167 204 167 224 q 154 172 167 185 q 122 158 142 158 q 90 172 103 158 q 76 204 76 185 m 568 286 q 581 318 568 306 q 614 331 594 331 q 646 318 633 331 q 658 286 658 306 q 646 253 658 267 q 614 240 633 240 q 581 253 594 240 q 568 286 568 267 m 404 286 q 417 318 404 306 q 450 331 431 331 q 482 318 469 331 q 494 286 494 306 q 482 253 494 267 q 450 240 469 240 q 417 253 431 240 q 404 286 404 267 m 240 286 q 253 318 240 306 q 286 331 267 331 q 318 318 306 331 q 331 286 331 306 q 318 253 331 267 q 286 240 306 240 q 253 253 267 240 q 240 286 240 267 m 732 368 q 745 400 732 388 q 778 413 758 413 q 810 400 797 413 q 822 368 822 388 q 810 335 822 349 q 778 322 797 322 q 745 335 758 322 q 732 368 732 349 m 76 368 q 90 400 76 388 q 122 413 103 413 q 154 400 142 413 q 167 368 167 388 q 154 335 167 349 q 122 322 142 322 q 90 335 103 322 q 76 368 76 349 m 732 532 q 745 564 732 551 q 778 576 758 576 q 810 564 797 576 q 822 532 822 551 q 810 499 822 513 q 778 486 797 486 q 745 499 758 486 q 732 532 732 513 m 76 532 q 90 564 76 551 q 122 576 103 576 q 154 564 142 576 q 167 532 167 551 q 154 499 167 513 q 122 486 142 486 q 90 499 103 486 q 76 532 76 513 m 568 696 q 581 728 568 715 q 614 740 594 740 q 646 728 633 740 q 658 696 658 715 q 646 663 658 676 q 614 650 633 650 q 581 663 594 650 q 568 696 568 676 m 404 696 q 417 728 404 715 q 450 740 431 740 q 482 728 469 740 q 494 696 494 715 q 482 663 494 676 q 450 650 469 650 q 417 663 431 650 q 404 696 404 676 m 240 696 q 253 728 240 715 q 286 740 267 740 q 318 728 306 740 q 331 696 331 715 q 318 663 331 676 q 286 650 306 650 q 253 663 267 650 q 240 696 240 676 m 568 860 q 581 892 568 879 q 614 904 594 904 q 646 892 633 904 q 658 860 658 879 q 646 827 658 840 q 614 814 633 814 q 581 827 594 814 q 568 860 568 840 m 240 860 q 253 892 240 879 q 286 904 267 904 q 318 892 306 904 q 331 860 331 879 q 318 827 331 840 q 286 814 306 814 q 253 827 267 814 q 240 860 240 840 z "},"":{"ha":901,"x_min":76,"x_max":822,"o":"m 322 942 q 335 974 322 961 q 368 986 349 986 q 400 974 388 986 q 413 942 413 961 q 400 909 413 922 q 368 896 388 896 q 335 909 349 896 q 322 942 322 922 m 732 40 q 745 72 732 60 q 778 85 758 85 q 810 72 797 85 q 822 40 822 60 q 810 8 822 21 q 778 -6 797 -6 q 745 8 758 -6 q 732 40 732 21 m 76 40 q 90 72 76 60 q 122 85 103 85 q 154 72 142 85 q 167 40 167 60 q 154 8 167 21 q 122 -6 142 -6 q 90 8 103 -6 q 76 40 76 21 m 732 204 q 745 236 732 224 q 778 249 758 249 q 810 236 797 249 q 822 204 822 224 q 810 172 822 185 q 778 158 797 158 q 745 172 758 158 q 732 204 732 185 m 76 204 q 90 236 76 224 q 122 249 103 249 q 154 236 142 249 q 167 204 167 224 q 154 172 167 185 q 122 158 142 158 q 90 172 103 158 q 76 204 76 185 m 568 286 q 581 318 568 306 q 614 331 594 331 q 646 318 633 331 q 658 286 658 306 q 646 253 658 267 q 614 240 633 240 q 581 253 594 240 q 568 286 568 267 m 404 286 q 417 318 404 306 q 450 331 431 331 q 482 318 469 331 q 494 286 494 306 q 482 253 494 267 q 450 240 469 240 q 417 253 431 240 q 404 286 404 267 m 240 286 q 253 318 240 306 q 286 331 267 331 q 318 318 306 331 q 331 286 331 306 q 318 253 331 267 q 286 240 306 240 q 253 253 267 240 q 240 286 240 267 m 732 368 q 745 400 732 388 q 778 413 758 413 q 810 400 797 413 q 822 368 822 388 q 810 335 822 349 q 778 322 797 322 q 745 335 758 322 q 732 368 732 349 m 76 368 q 90 400 76 388 q 122 413 103 413 q 154 400 142 413 q 167 368 167 388 q 154 335 167 349 q 122 322 142 322 q 90 335 103 322 q 76 368 76 349 m 732 532 q 745 564 732 551 q 778 576 758 576 q 810 564 797 576 q 822 532 822 551 q 810 499 822 513 q 778 486 797 486 q 745 499 758 486 q 732 532 732 513 m 76 532 q 90 564 76 551 q 122 576 103 576 q 154 564 142 576 q 167 532 167 551 q 154 499 167 513 q 122 486 142 486 q 90 499 103 486 q 76 532 76 513 m 568 696 q 581 728 568 715 q 614 740 594 740 q 646 728 633 740 q 658 696 658 715 q 646 663 658 676 q 614 650 633 650 q 581 663 594 650 q 568 696 568 676 m 404 696 q 417 728 404 715 q 450 740 431 740 q 482 728 469 740 q 494 696 494 715 q 482 663 494 676 q 450 650 469 650 q 417 663 431 650 q 404 696 404 676 m 240 696 q 253 728 240 715 q 286 740 267 740 q 318 728 306 740 q 331 696 331 715 q 318 663 331 676 q 286 650 306 650 q 253 663 267 650 q 240 696 240 676 m 404 860 q 417 892 404 879 q 450 904 431 904 q 482 892 469 904 q 494 860 494 879 q 482 827 494 840 q 450 814 469 814 q 417 827 431 814 q 404 860 404 840 m 240 860 q 253 892 240 879 q 286 904 267 904 q 318 892 306 904 q 331 860 331 879 q 318 827 331 840 q 286 814 306 814 q 253 827 267 814 q 240 860 240 840 m 486 942 q 499 974 486 961 q 532 986 513 986 q 564 974 551 986 q 576 942 576 961 q 564 909 576 922 q 532 896 551 896 q 499 909 513 896 q 486 942 486 922 z "},"":{"ha":901,"x_min":76,"x_max":822,"o":"m 322 942 q 335 974 322 961 q 368 986 349 986 q 400 974 388 986 q 413 942 413 961 q 400 909 413 922 q 368 896 388 896 q 335 909 349 896 q 322 942 322 922 m 732 40 q 745 72 732 60 q 778 85 758 85 q 810 72 797 85 q 822 40 822 60 q 810 8 822 21 q 778 -6 797 -6 q 745 8 758 -6 q 732 40 732 21 m 76 40 q 90 72 76 60 q 122 85 103 85 q 154 72 142 85 q 167 40 167 60 q 154 8 167 21 q 122 -6 142 -6 q 90 8 103 -6 q 76 40 76 21 m 732 204 q 745 236 732 224 q 778 249 758 249 q 810 236 797 249 q 822 204 822 224 q 810 172 822 185 q 778 158 797 158 q 745 172 758 158 q 732 204 732 185 m 76 204 q 90 236 76 224 q 122 249 103 249 q 154 236 142 249 q 167 204 167 224 q 154 172 167 185 q 122 158 142 158 q 90 172 103 158 q 76 204 76 185 m 568 286 q 581 318 568 306 q 614 331 594 331 q 646 318 633 331 q 658 286 658 306 q 646 253 658 267 q 614 240 633 240 q 581 253 594 240 q 568 286 568 267 m 404 286 q 417 318 404 306 q 450 331 431 331 q 482 318 469 331 q 494 286 494 306 q 482 253 494 267 q 450 240 469 240 q 417 253 431 240 q 404 286 404 267 m 240 286 q 253 318 240 306 q 286 331 267 331 q 318 318 306 331 q 331 286 331 306 q 318 253 331 267 q 286 240 306 240 q 253 253 267 240 q 240 286 240 267 m 732 368 q 745 400 732 388 q 778 413 758 413 q 810 400 797 413 q 822 368 822 388 q 810 335 822 349 q 778 322 797 322 q 745 335 758 322 q 732 368 732 349 m 76 368 q 90 400 76 388 q 122 413 103 413 q 154 400 142 413 q 167 368 167 388 q 154 335 167 349 q 122 322 142 322 q 90 335 103 322 q 76 368 76 349 m 732 532 q 745 564 732 551 q 778 576 758 576 q 810 564 797 576 q 822 532 822 551 q 810 499 822 513 q 778 486 797 486 q 745 499 758 486 q 732 532 732 513 m 76 532 q 90 564 76 551 q 122 576 103 576 q 154 564 142 576 q 167 532 167 551 q 154 499 167 513 q 122 486 142 486 q 90 499 103 486 q 76 532 76 513 m 568 696 q 581 728 568 715 q 614 740 594 740 q 646 728 633 740 q 658 696 658 715 q 646 663 658 676 q 614 650 633 650 q 581 663 594 650 q 568 696 568 676 m 404 696 q 417 728 404 715 q 450 740 431 740 q 482 728 469 740 q 494 696 494 715 q 482 663 494 676 q 450 650 469 650 q 417 663 431 650 q 404 696 404 676 m 240 696 q 253 728 240 715 q 286 740 267 740 q 318 728 306 740 q 331 696 331 715 q 318 663 331 676 q 286 650 306 650 q 253 663 267 650 q 240 696 240 676 m 486 942 q 499 974 486 961 q 532 986 513 986 q 564 974 551 986 q 576 942 576 961 q 564 909 576 922 q 532 896 551 896 q 499 909 513 896 q 486 942 486 922 z "}}}
